<?xml version="1.0" encoding="UTF-8"?>
<svg id="Layer_2" data-name="Layer 2" xmlns="http://www.w3.org/2000/svg" xmlns:xlink="http://www.w3.org/1999/xlink" viewBox="0 0 396.63 359.74">
  <defs>
    <style>
      .cls-1 {
        clip-path: url(#clippath);
      }

      .cls-2, .cls-3, .cls-4 {
        fill: none;
      }

      .cls-2, .cls-5, .cls-6, .cls-7 {
        stroke-width: 0px;
      }

      .cls-3 {
        stroke-width: 2px;
      }

      .cls-3, .cls-8 {
        stroke: #fff;
      }

      .cls-8 {
        fill: #0b1a30;
        stroke-width: 3px;
      }

      .cls-9, .cls-4 {
        stroke: #000;
        stroke-miterlimit: 10;
      }

      .cls-9, .cls-7 {
        fill: #fff;
      }

      .cls-6 {
        fill: #f7d852;
      }
    </style>
    <clipPath id="clippath">
      <rect class="cls-2" x="145.04" y="29.72" width="108.39" height="201.46" rx="10.84" ry="10.84"/>
    </clipPath>
  </defs>
  <g id="Layer_1-2" data-name="Layer 1">
    <path class="cls-8" d="m314.37,333.02c-4.37,7.41-10.49,13.5-17.61,17.82l-.08-.02-.97.56c-7.88,4.55-16.9,6.97-26.23,6.86h0l-145.32-1.52c-18.37-.24-35.39-10.32-44.4-26.34h0S8.15,203.56,8.15,203.56c-9.02-16.02-8.84-35.8.41-51.59,0,0,0,0,0,0L82.36,26.79h0C91.68,10.96,108.86,1.27,127.22,1.5h0l145.3,1.62h0c18.32.18,35.35,10.26,44.36,26.27h0s71.6,126.82,71.6,126.82c9.02,16.02,8.84,35.8-.41,51.59h0s-73.7,125.2-73.7,125.2Z"/>
    <g class="cls-1">
      <g>
        <path class="cls-6" d="m242.84,30.9h-87.21c-5.2,0-9.41,4.21-9.41,9.41v180.28c0,5.2,4.21,9.41,9.41,9.41h87.21c5.2,0,9.41-4.21,9.41-9.41V40.31c0-5.2-4.21-9.41-9.41-9.41Z"/>
        <path class="cls-5" d="m218.65,45.04h-38.83c-3.26,0-5.91-2.65-5.91-5.91v-8.22h50.66v8.22c0,3.26-2.65,5.91-5.91,5.91Z"/>
        <path class="cls-7" d="m239.21,189.36h-79.95c-2.32,0-4.21,1.88-4.21,4.21v9.26c0,2.32,1.88,4.21,4.21,4.21h79.95c2.32,0,4.21-1.88,4.21-4.21v-9.26c0-2.32-1.88-4.21-4.21-4.21Z"/>
        <path class="cls-5" d="m239.21,189.95c1.99,0,3.62,1.63,3.62,3.62v9.26c0,1.99-1.63,3.62-3.62,3.62h-79.95c-1.99,0-3.62-1.63-3.62-3.62v-9.26c0-1.99,1.63-3.62,3.62-3.62h79.95Zm0-1.18h-79.95c-2.65,0-4.79,2.14-4.79,4.79v9.26c0,2.65,2.14,4.79,4.79,4.79h79.95c2.65,0,4.79-2.14,4.79-4.79v-9.26c0-2.65-2.14-4.79-4.79-4.79Z"/>
        <path class="cls-7" d="m163.3,204.09c3.25,0,5.89-2.64,5.89-5.89s-2.64-5.89-5.89-5.89-5.89,2.64-5.89,5.89,2.64,5.89,5.89,5.89Z"/>
        <path class="cls-5" d="m163.3,192.9c2.92,0,5.3,2.38,5.3,5.3s-2.38,5.3-5.3,5.3-5.3-2.38-5.3-5.3,2.38-5.3,5.3-5.3Zm0-1.18c-3.58,0-6.48,2.9-6.48,6.48s2.9,6.48,6.48,6.48,6.48-2.9,6.48-6.48-2.9-6.48-6.48-6.48Z"/>
        <path class="cls-4" d="m173.29,195.25h65.68"/>
        <path class="cls-4" d="m173.29,201.14h65.68"/>
        <path class="cls-9" d="m168.08,52.7h-10.31c-2.32,0-4.19,1.88-4.19,4.19v10.31c0,2.32,1.88,4.19,4.19,4.19h10.31c2.32,0,4.19-1.88,4.19-4.19v-10.31c0-2.32-1.88-4.19-4.19-4.19Z"/>
        <path class="cls-9" d="m192.28,52.7h-10.31c-2.32,0-4.19,1.88-4.19,4.19v10.31c0,2.32,1.88,4.19,4.19,4.19h10.31c2.32,0,4.19-1.88,4.19-4.19v-10.31c0-2.32-1.88-4.19-4.19-4.19Z"/>
        <path class="cls-9" d="m216.48,52.7h-10.31c-2.32,0-4.19,1.88-4.19,4.19v10.31c0,2.32,1.88,4.19,4.19,4.19h10.31c2.32,0,4.19-1.88,4.19-4.19v-10.31c0-2.32-1.88-4.19-4.19-4.19Z"/>
        <path class="cls-9" d="m240.69,52.7h-10.31c-2.32,0-4.19,1.88-4.19,4.19v10.31c0,2.32,1.88,4.19,4.19,4.19h10.31c2.32,0,4.19-1.88,4.19-4.19v-10.31c0-2.32-1.88-4.19-4.19-4.19Z"/>
        <path class="cls-9" d="m168.08,77.44h-10.31c-2.32,0-4.19,1.88-4.19,4.19v10.31c0,2.32,1.88,4.19,4.19,4.19h10.31c2.32,0,4.19-1.88,4.19-4.19v-10.31c0-2.32-1.88-4.19-4.19-4.19Z"/>
        <path class="cls-9" d="m192.28,77.44h-10.31c-2.32,0-4.19,1.88-4.19,4.19v10.31c0,2.32,1.88,4.19,4.19,4.19h10.31c2.32,0,4.19-1.88,4.19-4.19v-10.31c0-2.32-1.88-4.19-4.19-4.19Z"/>
        <path class="cls-9" d="m216.48,77.44h-10.31c-2.32,0-4.19,1.88-4.19,4.19v10.31c0,2.32,1.88,4.19,4.19,4.19h10.31c2.32,0,4.19-1.88,4.19-4.19v-10.31c0-2.32-1.88-4.19-4.19-4.19Z"/>
        <path class="cls-9" d="m240.69,77.44h-10.31c-2.32,0-4.19,1.88-4.19,4.19v10.31c0,2.32,1.88,4.19,4.19,4.19h10.31c2.32,0,4.19-1.88,4.19-4.19v-10.31c0-2.32-1.88-4.19-4.19-4.19Z"/>
        <path class="cls-9" d="m168.08,102.18h-10.31c-2.32,0-4.19,1.88-4.19,4.19v10.31c0,2.32,1.88,4.19,4.19,4.19h10.31c2.32,0,4.19-1.88,4.19-4.19v-10.31c0-2.32-1.88-4.19-4.19-4.19Z"/>
        <path class="cls-9" d="m192.28,102.18h-10.31c-2.32,0-4.19,1.88-4.19,4.19v10.31c0,2.32,1.88,4.19,4.19,4.19h10.31c2.32,0,4.19-1.88,4.19-4.19v-10.31c0-2.32-1.88-4.19-4.19-4.19Z"/>
        <path class="cls-9" d="m216.48,102.18h-10.31c-2.32,0-4.19,1.88-4.19,4.19v10.31c0,2.32,1.88,4.19,4.19,4.19h10.31c2.32,0,4.19-1.88,4.19-4.19v-10.31c0-2.32-1.88-4.19-4.19-4.19Z"/>
        <path class="cls-9" d="m240.69,102.18h-10.31c-2.32,0-4.19,1.88-4.19,4.19v10.31c0,2.32,1.88,4.19,4.19,4.19h10.31c2.32,0,4.19-1.88,4.19-4.19v-10.31c0-2.32-1.88-4.19-4.19-4.19Z"/>
      </g>
    </g>
    <rect class="cls-3" x="143.24" y="27.92" width="112" height="205.07" rx="12.65" ry="12.65"/>
    <path class="cls-7" d="m106.26,259.87h5.2v22.76h-4.32l-11.35-13.82v13.82h-5.2v-22.76h4.36l11.32,13.82v-13.82Zm27.59,22.76l-2.02-4.88h-10.57l-2.02,4.88h-5.4l10.15-22.76h5.2l10.18,22.76h-5.53Zm-10.89-8.88h7.22l-3.61-8.71-3.61,8.71Zm22.35,8.88v-18.47h-7.28v-4.29h19.84v4.29h-7.28v18.47h-5.27Zm15.39,0v-22.76h5.27v22.76h-5.27Zm27.19-22.76h5.24l-9.85,22.76h-5.2l-9.82-22.76h5.69l6.93,16.26,7.02-16.26Zm12.37,18.53h12.39v4.23h-17.62v-22.76h17.2v4.23h-11.97v4.94h10.57v4.1h-10.57v5.27Zm42.8,4.23l-2.02-4.88h-10.57l-2.02,4.88h-5.4l10.15-22.76h5.2l10.18,22.76h-5.53Zm-10.89-8.88h7.22l-3.61-8.71-3.61,8.71Zm34.45-13.88h5.2v22.76h-4.32l-11.35-13.82v13.82h-5.2v-22.76h4.36l11.32,13.82v-13.82Zm10.59,22.76v-22.76h10.34c7.45,0,12.55,4.49,12.55,11.38s-5.11,11.38-12.55,11.38h-10.34Zm5.27-4.32h4.81c4.52,0,7.48-2.7,7.48-7.06s-2.96-7.06-7.48-7.06h-4.81v14.11Zm-144.27,15.89h5.04l-7.45,22.76h-5.66l-5.01-15.41-5.17,15.41h-5.63l-7.48-22.76h5.46l5.14,16,5.36-16h4.88l5.2,16.13,5.3-16.13Zm13.22,18.53h12.39v4.23h-17.62v-22.76h17.2v4.23h-11.97v4.94h10.57v4.1h-10.57v5.27Zm33.29-7.61c2.54.81,4.16,2.76,4.16,5.63,0,3.93-3.12,6.21-9.1,6.21h-11.77v-22.76h11.12c5.69,0,8.62,2.37,8.62,5.92,0,2.28-1.17,4.03-3.02,5.01Zm-6.24-6.96h-5.24v5.37h5.24c2.57,0,3.97-.91,3.97-2.7s-1.4-2.67-3.97-2.67Zm.91,14.83c2.73,0,4.19-.85,4.19-2.8s-1.46-2.83-4.19-2.83h-6.15v5.63h6.15Zm39.7,3.97l-2.02-4.88h-10.57l-2.02,4.88h-5.4l10.15-22.76h5.2l10.18,22.76h-5.53Zm-10.89-8.88h7.22l-3.61-8.71-3.61,8.71Zm28.63-13.88c6.08,0,9.89,3.15,9.89,8.26s-3.8,8.23-9.89,8.23h-4.58v6.28h-5.27v-22.76h9.85Zm-.29,12.19c3.22,0,4.84-1.46,4.84-3.93s-1.63-3.97-4.84-3.97h-4.29v7.9h4.29Zm23.79-12.19c6.08,0,9.89,3.15,9.89,8.26s-3.8,8.23-9.89,8.23h-4.58v6.28h-5.27v-22.76h9.85Zm-.29,12.19c3.22,0,4.84-1.46,4.84-3.93s-1.63-3.97-4.84-3.97h-4.29v7.9h4.29Zm21.73,10.96c-3.61,0-7.25-1.07-9.27-2.63l1.79-3.97c1.92,1.4,4.78,2.37,7.51,2.37,3.12,0,4.39-1.04,4.39-2.44,0-4.26-13.23-1.33-13.23-9.79,0-3.87,3.12-7.09,9.59-7.09,2.86,0,5.79.68,7.9,2.02l-1.63,4c-2.11-1.2-4.29-1.79-6.31-1.79-3.12,0-4.32,1.17-4.32,2.6,0,4.19,13.23,1.3,13.23,9.66,0,3.8-3.15,7.06-9.66,7.06Z"/>
  </g>
</svg>