<?xml version="1.0" encoding="UTF-8"?>
<svg id="Layer_2" data-name="Layer 2" xmlns="http://www.w3.org/2000/svg" xmlns:xlink="http://www.w3.org/1999/xlink" viewBox="0 0 220.9 200.48">
  <defs>
    <style>
      .cls-1 {
        mask: url(#mask);
      }

      .cls-2, .cls-3, .cls-4, .cls-5 {
        stroke: #fff;
        stroke-width: 3px;
      }

      .cls-2, .cls-6 {
        fill: #f7d852;
      }

      .cls-3 {
        fill: #0b1a30;
      }

      .cls-4, .cls-7 {
        fill: #fff;
      }

      .cls-8, .cls-6, .cls-7 {
        stroke-width: 0px;
      }

      .cls-9 {
        mask: url(#mask-1);
      }
    </style>
    <mask id="mask" x="88.04" y="11.02" width="56" height="97" maskUnits="userSpaceOnUse">
      <g id="path-12-outside-1_67_706" data-name="path-12-outside-1 67 706">
        <rect class="cls-7" x="88.04" y="11.02" width="56" height="97"/>
        <path class="cls-8" d="m102.07,16.16c1.52,0,3.29.83,3.97,4.32,1.3,6.64,7.1,28.73,11.88,29.75,4.78,1.02,13.8,4.34,15.56,17.9.41,3.14.73,6.13-.76,7.8,4,4.65,10.43,15.02-1.79,23.77-2.69,1.93-5.37,2.73-7.97,2.73-13.15,0-24.21-20.61-24.21-20.61l19.95.46c-8.4-5.12-26.78-18.57-21.34-35.34,0,0-9.49-25.14.05-30.11,0,0,3.29-.67,4.65-.67m0-2.12c-1.76,0-5.34.75-5.66.92-4.84,2.54-6.43,8.98-4.69,19.14.99,5.77,2.75,11.04,3.41,12.89-2.25,7.76-.22,15.59,6.07,23.31,3.11,3.82,6.83,7.07,10.33,9.68l-12.74-.3-3.63-.08,1.72,3.2c.48.89,11.82,21.72,26.07,21.72,3.21,0,6.3-1.05,9.2-3.13,4.7-3.36,7.35-7.32,7.88-11.76.38-3.17-.18-8.08-4.73-13.9.99-2.32.62-5.25.27-7.88-.83-6.45-2.65-12.05-7.49-15.62-2.93-2.16-5.49-3.18-9.71-4.08-.17-.07-2.26-1.16-5.83-11.75-2.17-6.44-3.84-13.3-4.44-16.34-.35-1.82-1.65-6.03-6.05-6.03h0Z"/>
      </g>
    </mask>
    <mask id="mask-1" x="73.2" y="44.1" width="46" height="45" maskUnits="userSpaceOnUse">
      <g id="path-20-outside-2_67_706" data-name="path-20-outside-2 67 706">
        <rect class="cls-7" x="73.2" y="44.1" width="46" height="45"/>
        <path class="cls-8" d="m96.62,47.1s-21.56,14.2-19.25,25.67c.01.06.03.12.04.17.26,3.13,2.26,15,17.43,11.83,17.43-3.64,24.02-15.85,19.81-21.65-1.85-2.55-5.82-4.15-9.69-5.15"/>
      </g>
    </mask>
  </defs>
  <g id="Layer_1-2" data-name="Layer 1">
    <path class="cls-3" d="m174.69,185.02c-2.42,4.1-5.81,7.47-9.75,9.86h-.04s-.54.3-.54.3c-4.36,2.52-9.35,3.86-14.52,3.8h0l-80.45-.84c-10.17-.13-19.59-5.71-24.58-14.58h0S5.18,113.35,5.18,113.35c-4.99-8.87-4.9-19.82.23-28.56,0,0,0,0,0,0L46.26,15.5h0c5.16-8.76,14.67-14.13,24.83-13.99h0l80.43.89h0c10.14.1,19.57,5.68,24.56,14.54h0s39.63,70.21,39.63,70.21c4.99,8.87,4.9,19.82-.23,28.56h0s-40.8,69.31-40.8,69.31Z"/>
    <path class="cls-7" d="m85.8,150.57c1.4.45,2.3,1.53,2.3,3.11,0,2.18-1.73,3.44-5.04,3.44h-6.52v-12.6h6.16c3.15,0,4.77,1.31,4.77,3.28,0,1.26-.65,2.23-1.67,2.77Zm-3.46-3.85h-2.9v2.97h2.9c1.42,0,2.2-.5,2.2-1.49s-.77-1.48-2.2-1.48Zm.5,8.21c1.51,0,2.32-.47,2.32-1.55s-.81-1.57-2.32-1.57h-3.4v3.11h3.4Zm18.62,2.2h-3.13l-2.43-3.51h-2.68v3.51h-2.92v-12.6h5.45c3.37,0,5.47,1.75,5.47,4.57,0,1.89-.95,3.28-2.59,3.98l2.83,4.05Zm-3.19-8.03c0-1.39-.9-2.2-2.68-2.2h-2.38v4.39h2.38c1.78,0,2.68-.83,2.68-2.2Zm14.68,8.03l-1.12-2.7h-5.85l-1.12,2.7h-2.99l5.62-12.6h2.88l5.63,12.6h-3.06Zm-6.03-4.91h4l-2-4.82-2,4.82Zm19.07-7.69h2.88v12.6h-2.39l-6.28-7.65v7.65h-2.88v-12.6h2.41l6.26,7.65v-7.65Zm5.86,12.6v-12.6h5.72c4.12,0,6.95,2.48,6.95,6.3s-2.83,6.3-6.95,6.3h-5.72Zm2.92-2.39h2.66c2.5,0,4.14-1.49,4.14-3.91s-1.64-3.91-4.14-3.91h-2.66v7.81Zm-65.31,21.61c-2,0-4.01-.59-5.13-1.46l.99-2.2c1.06.77,2.65,1.31,4.16,1.31,1.73,0,2.43-.58,2.43-1.35,0-2.36-7.33-.74-7.33-5.42,0-2.14,1.73-3.92,5.31-3.92,1.58,0,3.2.38,4.37,1.12l-.9,2.21c-1.17-.67-2.38-.99-3.49-.99-1.73,0-2.39.65-2.39,1.44,0,2.32,7.33.72,7.33,5.35,0,2.11-1.75,3.91-5.35,3.91Zm10.24-2.56h6.86v2.34h-9.76v-12.6h9.52v2.34h-6.62v2.74h5.85v2.27h-5.85v2.92Zm20.34,2.34h-3.13l-2.43-3.51h-2.68v3.51h-2.92v-12.6h5.45c3.37,0,5.47,1.75,5.47,4.57,0,1.89-.95,3.28-2.59,3.98l2.83,4.05Zm-3.19-8.03c0-1.39-.9-2.2-2.68-2.2h-2.38v4.39h2.38c1.78,0,2.68-.83,2.68-2.2Zm14.48-4.57h2.9l-5.45,12.6h-2.88l-5.44-12.6h3.15l3.83,9,3.89-9Zm3.95,12.6v-12.6h2.92v12.6h-2.92Zm11.94.22c-3.91,0-6.82-2.72-6.82-6.52s2.92-6.52,6.84-6.52c2.18,0,4,.79,5.18,2.23l-1.87,1.73c-.85-.97-1.91-1.48-3.17-1.48-2.36,0-4.03,1.66-4.03,4.03s1.67,4.03,4.03,4.03c1.26,0,2.32-.5,3.17-1.49l1.87,1.73c-1.19,1.46-3.01,2.25-5.2,2.25Zm10.07-2.56h6.86v2.34h-9.76v-12.6h9.52v2.34h-6.62v2.74h5.85v2.27h-5.85v2.92Zm13.32,2.56c-2,0-4.01-.59-5.13-1.46l.99-2.2c1.06.77,2.65,1.31,4.16,1.31,1.73,0,2.43-.58,2.43-1.35,0-2.36-7.33-.74-7.33-5.42,0-2.14,1.73-3.92,5.31-3.92,1.58,0,3.2.38,4.37,1.12l-.9,2.21c-1.17-.67-2.38-.99-3.49-.99-1.73,0-2.39.65-2.39,1.44,0,2.32,7.33.72,7.33,5.35,0,2.11-1.75,3.91-5.35,3.91Z"/>
    <path class="cls-4" d="m110.65,116.99c24.07,0,43.58-19.51,43.58-43.58s-19.51-43.58-43.58-43.58-43.58,19.51-43.58,43.58,19.51,43.58,43.58,43.58Z"/>
    <path class="cls-5" d="m110.65,34.94c21.21,0,38.46,17.26,38.46,38.46s-17.26,38.46-38.46,38.46-38.47-17.26-38.47-38.46,17.26-38.46,38.47-38.46Zm0-5.12c-24.07,0-43.58,19.51-43.58,43.58s19.51,43.58,43.58,43.58,43.58-19.51,43.58-43.58-19.51-43.58-43.58-43.58Z"/>
    <path class="cls-2" d="m110.65,134.9c33.97,0,61.5-27.53,61.5-61.5s-27.53-61.5-61.5-61.5-61.5,27.53-61.5,61.5,27.53,61.5,61.5,61.5Z"/>
    <path class="cls-5" d="m150.52,33.54h0c10.65,10.65,16.51,24.8,16.51,39.87s-5.86,29.22-16.51,39.87h0c-10.65,10.65-24.8,16.52-39.87,16.52s-29.22-5.86-39.87-16.51h0c-10.65-10.65-16.52-24.81-16.52-39.87s5.86-29.22,16.51-39.87h0c10.65-10.65,24.8-16.52,39.87-16.52s29.22,5.86,39.87,16.51Zm-39.87-21.63c-33.97,0-61.5,27.54-61.5,61.5s27.53,61.5,61.5,61.5,61.5-27.54,61.5-61.5-27.54-61.5-61.5-61.5Z"/>
    <path class="cls-4" d="m110.65,116.99c24.07,0,43.58-19.51,43.58-43.58s-19.51-43.58-43.58-43.58-43.58,19.51-43.58,43.58,19.51,43.58,43.58,43.58Z"/>
    <path class="cls-5" d="m110.65,34.41c21.5,0,38.99,17.5,38.99,38.99s-17.49,38.99-38.99,38.99-38.99-17.49-38.99-38.99,17.49-38.99,38.99-38.99Zm0-4.59c-24.07,0-43.58,19.51-43.58,43.58s19.51,43.58,43.58,43.58,43.58-19.51,43.58-43.58-19.51-43.58-43.58-43.58Z"/>
    <path class="cls-4" d="m132.31,96.37c12.6-3.64,18.91-18.55,14.77-32.89-4.14-14.34-17.44-23.58-30.04-19.94-12.6,3.64-18.91,18.55-14.77,32.89,4.15,14.34,17.44,23.58,30.04,19.94Z"/>
    <path class="cls-5" d="m142.16,64.91h0c1.86,6.44,1.79,12.25-.02,16.84-1.91,4.82-5.63,8.09-11.25,9.71h0c-1.9.55-3.73.82-5.46.82-8.09,0-15.02-6.15-18.23-17.27h0c-1.86-6.44-1.79-12.25.02-16.84,1.91-4.82,5.63-8.09,11.25-9.71h0c1.9-.55,3.73-.82,5.47-.82,8.08,0,15.02,6.15,18.23,17.27Zm-25.12-21.37h0c-7.42,2.14-12.23,6.77-14.59,12.75-2.34,5.92-2.24,13.02-.18,20.14,3.44,11.9,11.56,20.97,23.15,20.97,2.2,0,4.5-.33,6.88-1.02h0c7.42-2.14,12.23-6.77,14.59-12.75,2.34-5.92,2.24-13.02.18-20.14-3.44-11.9-11.56-20.97-23.15-20.97-2.2,0-4.5.33-6.88,1.02Z"/>
    <path class="cls-4" d="m95.78,46.97c-2.66,8.86.87,16.76,5.9,22.94,3.59,4.4,8.03,8.05,11.83,10.74l-14.72-.34-2.57-.06,1.22,2.27,1.32-.71q-1.32.71-1.32.71h0s0,0,0,0v.02s.05.07.05.07c.03.06.08.15.14.26.12.22.31.54.55.95.48.81,1.18,1.94,2.07,3.26,1.77,2.64,4.33,6.05,7.43,9.11,3.08,3.04,6.8,5.83,10.92,7.06,4.2,1.25,8.74.85,13.21-2.35h0c3.22-2.31,5.3-4.78,6.49-7.34,1.19-2.57,1.43-5.12,1.11-7.5-.57-4.17-2.86-7.81-4.81-10.25.5-1,.68-2.11.73-3.18.06-1.5-.14-3.15-.34-4.71-.92-7.12-3.78-11.68-7.15-14.59-3.34-2.88-7.07-4.04-9.58-4.58-.12-.03-.46-.18-1.01-.81-.52-.6-1.08-1.46-1.67-2.57-1.18-2.21-2.37-5.19-3.46-8.4-2.19-6.41-3.95-13.53-4.58-16.79-.38-1.96-1.25-3.37-2.47-4.28-1.19-.89-2.55-1.19-3.74-1.24-1.19-.05-2.3.15-3.09.34-.4.1-.73.2-.97.28-.12.04-.21.07-.28.1-.03.01-.06.02-.08.03h-.03s0,.01,0,.01h0s0,0,0,0t.56,1.39l-.57-1.39-.06.03-.06.03c-3,1.56-4.34,4.64-4.83,7.91-.49,3.28-.17,7.07.43,10.59.6,3.54,1.51,6.9,2.26,9.37.38,1.24.72,2.26.96,2.97.09.25.16.47.22.64Z"/>
    <path class="cls-8" d="m102.07,16.16c1.52,0,3.29.83,3.97,4.32,1.3,6.64,7.1,28.73,11.88,29.75,4.78,1.02,13.8,4.34,15.56,17.9.41,3.14.73,6.13-.76,7.8,4,4.65,10.43,15.02-1.79,23.77-2.69,1.93-5.37,2.73-7.97,2.73-13.15,0-24.21-20.61-24.21-20.61l19.95.46c-8.4-5.12-26.78-18.57-21.34-35.34,0,0-9.49-25.14.05-30.11,0,0,3.29-.67,4.65-.67m0-2.12c-1.76,0-5.34.75-5.66.92-4.84,2.54-6.43,8.98-4.69,19.14.99,5.77,2.75,11.04,3.41,12.89-2.25,7.76-.22,15.59,6.07,23.31,3.11,3.82,6.83,7.07,10.33,9.68l-12.74-.3-3.63-.08,1.72,3.2c.48.89,11.82,21.72,26.07,21.72,3.21,0,6.3-1.05,9.2-3.13,4.7-3.36,7.35-7.32,7.88-11.76.38-3.17-.18-8.08-4.73-13.9.99-2.32.62-5.25.27-7.88-.83-6.45-2.65-12.05-7.49-15.62-2.93-2.16-5.49-3.18-9.71-4.08-.17-.07-2.26-1.16-5.83-11.75-2.17-6.44-3.84-13.3-4.44-16.34-.35-1.82-1.65-6.03-6.05-6.03h0Z"/>
    <g class="cls-1">
      <path class="cls-7" d="m106.05,20.48l2.95-.58h0s-2.94.58-2.94.58Zm27.44,47.64l-2.97.39h0s2.97-.39,2.97-.39Zm-.76,7.8l-2.24-2-1.75,1.96,1.71,1.99,2.27-1.96Zm-1.79,23.77l-1.75-2.44h0s1.75,2.44,1.75,2.44Zm-32.17-17.88l.07-3-5.15-.12,2.43,4.54,2.64-1.42Zm19.95.46l-.07,3,11.16.26-9.53-5.82-1.56,2.56Zm-21.34-35.34l2.85.93.32-1-.37-.98-2.81,1.06Zm.05-30.11l-.6-2.94-.41.08-.38.19,1.39,2.66Zm4.65-2.78v3h3v-3h-3Zm-5.66.92l1.39,2.66h.03s.03-.03.03-.03l-1.45-2.63Zm-4.69,19.14l2.96-.5h0s-2.96.5-2.96.5Zm3.41,12.89l2.88.84.27-.93-.32-.91-2.83,1Zm6.07,23.31l2.33-1.89h0s-2.32,1.89-2.32,1.89Zm10.33,9.68l-.07,3,9.4.22-7.54-5.62-1.79,2.4Zm-12.74-.3l-.07,3h0l.07-3Zm-3.63-.08l.07-3-5.15-.12,2.44,4.54,2.64-1.42Zm1.72,3.2l2.64-1.42h0s-2.64,1.42-2.64,1.42Zm35.27,18.6l-1.75-2.44h0s1.75,2.44,1.75,2.44Zm7.88-11.76l2.98.36h0s-2.98-.36-2.98-.36Zm-4.73-13.9l-2.76-1.18-.7,1.63,1.1,1.4,2.36-1.85Zm.27-7.88l-2.98.38h0s2.98-.38,2.98-.38Zm-7.49-15.62l-1.78,2.42h0l1.78-2.42Zm-9.71-4.08l-1.2,2.75.28.12.3.06.63-2.93Zm-5.83-11.75l-2.84.96h0s2.84-.96,2.84-.96Zm-4.44-16.34l2.95-.57h0s-2.95.57-2.95.57Zm-6.05-6.03v-3h-3v3h3Zm0,5.13c.2,0,.25.04.3.08.08.08.47.48.73,1.81l5.89-1.15c-.42-2.16-1.26-3.92-2.62-5.13-1.39-1.24-2.98-1.61-4.3-1.61v6Zm1.03,1.89c.67,3.45,2.48,10.76,4.74,17.38,1.12,3.3,2.4,6.54,3.75,9.07.67,1.26,1.42,2.45,2.24,3.4.77.89,1.92,1.94,3.47,2.27l1.25-5.87c.36.08.28.22-.19-.33-.41-.48-.92-1.23-1.48-2.29-1.13-2.11-2.28-5-3.36-8.18-2.17-6.35-3.91-13.4-4.53-16.59l-5.89,1.15Zm14.2,32.11c2.14.45,5.04,1.39,7.58,3.58,2.48,2.14,4.84,5.67,5.63,11.77l5.95-.77c-.96-7.46-3.99-12.37-7.66-15.54-3.61-3.11-7.61-4.35-10.25-4.91l-1.25,5.87Zm13.21,15.35c.21,1.61.35,2.89.31,3.94-.04,1.07-.27,1.4-.33,1.47l4.48,4c1.42-1.59,1.78-3.59,1.85-5.22.07-1.64-.15-3.42-.35-4.96l-5.95.77Zm-.06,9.37c1.88,2.18,4.02,5.39,4.49,8.79.22,1.63.05,3.31-.73,5.01-.79,1.71-2.3,3.62-5.02,5.57l3.49,4.88c3.39-2.42,5.66-5.09,6.97-7.93,1.32-2.85,1.59-5.7,1.23-8.34-.7-5.13-3.76-9.43-5.88-11.9l-4.55,3.91Zm-1.27,19.37c-2.21,1.59-4.29,2.17-6.22,2.17v6c3.26,0,6.55-1.02,9.71-3.29l-3.49-4.88Zm-6.22,2.17c-2.5,0-5.07-.98-7.66-2.71-2.58-1.73-4.99-4.09-7.1-6.54-2.09-2.44-3.8-4.9-4.99-6.76-.59-.92-1.05-1.69-1.36-2.22-.15-.26-.27-.47-.35-.61-.04-.07-.07-.12-.08-.15,0-.02-.01-.03-.02-.03,0,0,0,0,0,0h0s0,0-2.64,1.42q-2.64,1.42-2.64,1.42s0,0,0,0c0,0,0,0,0,0,0,0,0,0,0,.02,0,.01.02.03.03.06.03.05.06.11.11.19.09.17.23.4.4.7.35.6.85,1.44,1.5,2.45,1.29,2.01,3.17,4.7,5.48,7.41,2.31,2.7,5.12,5.49,8.32,7.63,3.19,2.13,6.92,3.73,11,3.73v-6Zm-24.28-14.61l19.95.46.14-6-19.95-.46-.14,6Zm21.58-5.1c-4.09-2.49-10.45-6.93-15.1-12.64-4.64-5.7-7.23-12.2-4.96-19.21l-5.71-1.85c-3.17,9.75.72,18.36,6.01,24.85,5.28,6.49,12.32,11.34,16.62,13.97l3.13-5.12Zm-22.91-32.78q2.81-1.06,2.81-1.06s0,0,0,0h0s0,0,0-.01c0,0,0-.02-.02-.04-.02-.04-.04-.11-.07-.19-.06-.17-.15-.43-.27-.76-.23-.67-.55-1.63-.91-2.81-.72-2.36-1.57-5.53-2.13-8.82-.57-3.33-.8-6.57-.42-9.17.39-2.63,1.3-3.98,2.45-4.58l-2.77-5.32c-3.62,1.88-5.1,5.54-5.62,9.02-.52,3.51-.17,7.48.44,11.06.62,3.62,1.54,7.05,2.31,9.55.38,1.26.73,2.3.98,3.02.13.36.23.65.3.85.04.1.06.18.08.23,0,.03.02.05.02.06,0,0,0,.01,0,.02,0,0,0,0,0,0,0,0,0,0,0,0t2.81-1.06Zm.05-30.11q.6,2.94.6,2.94h0s0,0,0,0c0,0,0,0,0,0,0,0,0,0,0,0,0,0,.01,0,.02,0,.02,0,.06-.01.1-.02.09-.02.21-.04.37-.07.32-.06.75-.14,1.22-.22,1.03-.17,1.95-.29,2.34-.29v-6c-.97,0-2.38.21-3.34.38-.52.09-1,.18-1.34.24-.17.03-.31.06-.41.08-.05,0-.09.02-.12.02-.01,0-.02,0-.03,0,0,0,0,0,0,0,0,0,0,0,0,0,0,0,0,0,0,0h0s0,0,.6,2.94Zm4.65-5.78c-1.17,0-2.73.23-3.9.44-.62.11-1.2.23-1.66.34-.23.05-.45.11-.65.16-.06.02-.5.13-.89.35l2.89,5.26c-.13.07-.24.12-.28.13-.05.02-.09.03-.1.04-.03,0-.03,0,0,0,.07-.02.19-.05.37-.09.35-.08.84-.18,1.37-.28,1.14-.21,2.25-.35,2.84-.35v-6Zm-7.05,1.26c-3.34,1.75-5.39,4.81-6.33,8.65-.92,3.76-.82,8.36.08,13.64l5.92-1.01c-.83-4.88-.81-8.57-.17-11.2.62-2.55,1.79-3.98,3.29-4.77l-2.79-5.31Zm-6.25,22.3c1.03,6.02,2.86,11.48,3.54,13.39l5.65-2.01c-.63-1.78-2.34-6.87-3.28-12.39l-5.92,1.01Zm3.49,11.55c-2.6,8.92-.12,17.76,6.63,26.04l4.65-3.79c-5.83-7.15-7.43-14-5.52-20.58l-5.76-1.68Zm6.62,26.04c3.31,4.07,7.24,7.49,10.87,10.19l3.59-4.81c-3.37-2.51-6.9-5.6-9.8-9.17l-4.65,3.79Zm12.73,4.79l-12.74-.3-.14,6,12.74.3.14-6Zm-12.74-.3l-3.63-.08-.14,6,3.63.09.14-6Zm-6.34,4.33l1.72,3.2,5.29-2.84-1.72-3.2-5.28,2.84Zm1.72,3.2c.28.53,3.37,6.19,8.26,11.76,4.76,5.42,11.93,11.55,20.45,11.55v-6c-5.73,0-11.36-4.29-15.95-9.51-4.46-5.07-7.29-10.27-7.48-10.63l-5.29,2.83Zm28.71,23.31c3.9,0,7.6-1.29,10.95-3.69l-3.49-4.88c-2.45,1.75-4.94,2.57-7.45,2.57v6Zm10.95-3.69c5.17-3.7,8.45-8.34,9.11-13.84l-5.96-.72c-.41,3.38-2.43,6.66-6.65,9.68l3.49,4.88Zm9.11-13.84c.48-3.97-.31-9.67-5.35-16.11l-4.73,3.7c4.07,5.21,4.4,9.33,4.12,11.7l5.96.72Zm-4.95-13.08c.73-1.69.9-3.47.88-5.03-.01-1.56-.22-3.13-.39-4.42l-5.95.78c.18,1.35.33,2.56.34,3.7,0,1.14-.13,1.98-.4,2.61l5.51,2.37Zm.49-9.45c-.86-6.68-2.83-13.34-8.69-17.65l-3.56,4.83c3.82,2.81,5.49,7.37,6.29,13.58l5.95-.77Zm-8.69-17.65c-3.36-2.48-6.35-3.64-10.86-4.6l-1.25,5.87c3.92.84,6.05,1.72,8.56,3.56l3.56-4.83Zm-10.29-4.41c.73.32.57.62-.29-.76-.82-1.34-2.15-4.02-3.9-9.2l-5.69,1.92c1.82,5.41,3.32,8.56,4.48,10.44,1.13,1.83,2.09,2.71,2.99,3.11l2.4-5.5Zm-4.19-9.96c-2.13-6.31-3.77-13.04-4.33-15.95l-5.89,1.15c.62,3.16,2.32,10.15,4.54,16.72l5.69-1.92Zm-4.33-15.95c-.21-1.09-.73-3.08-2.01-4.87-1.37-1.91-3.63-3.59-6.98-3.59v6c1.05,0,1.63.43,2.1,1.08.55.77.86,1.8,1,2.53l5.89-1.15Zm-11.99-5.46h0s6,.01,6,.01h0s-6-.01-6-.01Z"/>
    </g>
    <path class="cls-4" d="m92.41,100.68l-.6.32-.16.66,1.46.34q-1.46-.34-1.46-.34h0s0,0,0,0h0s0,.05,0,.05c0,.03-.01.07-.03.12-.02.1-.05.25-.08.43-.06.36-.12.87-.15,1.47-.06,1.2.01,2.85.56,4.55.55,1.71,1.6,3.48,3.49,4.84,1.88,1.35,4.46,2.2,7.95,2.3,6.81.19,12.13-1.69,15.53-4.41,3.32-2.65,5.08-6.42,3.7-9.74-.65-1.57-1.93-2.87-3.3-3.92-1.39-1.07-3.01-1.97-4.52-2.7-1.51-.73-2.96-1.3-4.02-1.69-.53-.19-.97-.34-1.28-.45-.15-.05-.28-.09-.36-.12-.04-.01-.07-.02-.1-.03h-.03s0,0,0,0h0s0,0,0,0l-.43,1.44.43-1.44-.59-.18-.54.29-15.45,8.19Z"/>
    <path class="cls-5" d="m118.87,102.85h0c-.23-.55-.73-1.18-1.56-1.88-.81-.68-1.83-1.34-2.94-1.95-1.95-1.07-4.07-1.92-5.57-2.44l-13.34,7.07c-.1,1.35,0,3.52,1.25,5.14,1.16,1.5,3.3,2.49,6.78,2.59,8.14.22,12.91-2.84,14.67-5.39l.7-3.13Zm0,0c.29.71.22,1.78-.7,3.13l.7-3.13Zm-26.22,9.04h0c2.32,3.01,6.04,4.46,10.69,4.59.35.02.69.02.98.02h.02c9.22,0,15.36-3.72,18.04-7.63h0c1.71-2.49,2.27-5.42,1.21-7.99h0c-.68-1.64-1.98-3.02-3.39-4.15-1.43-1.14-3.09-2.1-4.65-2.87-3.11-1.54-5.99-2.43-6.26-2.51h0l-.42-.13-.59-.18-.55.29-16.26,8.62-.6.32-.16.66-.11.47h0s0,.03,0,.03h0c-.04.2-.37,1.67-.29,3.63.08,1.97.58,4.57,2.33,6.84Z"/>
    <path class="cls-4" d="m84.67,92.18l-.61.3-.17.66,1.45.38q-1.45-.38-1.45-.38h0s0,0,0,0h0s-.01.05-.01.05c0,.04-.02.08-.03.14-.03.12-.06.29-.1.49-.08.42-.16,1.01-.22,1.71-.1,1.4-.07,3.33.51,5.31.59,2,1.74,4.08,3.88,5.71,2.13,1.62,5.11,2.7,9.19,2.93,8.01.44,14.31-1.6,18.36-4.67,3.97-3.01,6.07-7.29,4.61-11.1h0c-.7-1.81-2.13-3.36-3.71-4.63-1.6-1.29-3.47-2.41-5.23-3.32-1.76-.91-3.45-1.63-4.69-2.12-.62-.25-1.13-.44-1.49-.57-.18-.07-.32-.11-.42-.15-.05-.02-.09-.03-.11-.04h-.03s0-.01,0-.01h0s0,0,0,0t-.47,1.42l.47-1.42-.59-.19-.55.27-18.57,9.21Z"/>
    <path class="cls-5" d="m97.33,105.45c-4.23-.24-6.89-1.52-8.32-3.48-1.61-2.21-1.57-5.1-1.37-6.73l16.45-8.16c1.77.66,4.37,1.77,6.76,3.16,1.33.78,2.56,1.62,3.54,2.49.99.88,1.63,1.72,1.91,2.45h0c.4,1.04.22,2.48-.99,4.14-2.27,3.11-8.15,6.67-17.97,6.12Zm0,0l-.08,1.5.08-1.5Zm-.28,5.11h0c.24.01.48.02.71.03v.03h1.5c10.19,0,17.06-4.01,20.17-8.28h0c2.03-2.79,2.75-6.08,1.63-8.99-.73-1.89-2.17-3.51-3.78-4.86-1.62-1.36-3.53-2.53-5.33-3.48-3.59-1.9-6.93-3.02-7.24-3.13h0l-.41-.14-.59-.19-.55.28-19.4,9.62-.61.3-.17.66-.12.46c-.07.27-.49,1.95-.45,4.19.03,2.28.53,5.27,2.45,7.91h0c2.55,3.51,6.77,5.29,12.18,5.59Z"/>
    <path class="cls-4" d="m78.68,79.3l-.61.3-.18.66,1.45.38q-1.45-.38-1.45-.38h0s0,0,0,0h0s-.01.06-.01.06c-.01.04-.02.09-.04.16-.03.13-.07.32-.11.56-.09.47-.19,1.14-.25,1.95-.12,1.6-.08,3.78.57,6.03.66,2.27,1.97,4.62,4.38,6.45,2.4,1.83,5.79,3.07,10.45,3.32,9.18.51,16.37-1.83,20.98-5.32,4.53-3.43,6.86-8.26,5.24-12.51-.78-2.03-2.39-3.78-4.19-5.24-1.82-1.48-3.96-2.75-5.97-3.79-2.02-1.04-3.95-1.87-5.37-2.43-.71-.28-1.3-.5-1.71-.65-.21-.07-.37-.13-.48-.17-.06-.02-.1-.03-.13-.04h-.03s-.01-.01-.01-.01h0s0,0,0,0t-.47,1.42l.47-1.42-.59-.19-.55.27-21.37,10.6Z"/>
    <path class="cls-5" d="m79.09,93.58h0c-2.15-2.96-2.7-6.31-2.74-8.88-.03-2.58.45-4.49.5-4.7h0s.12-.47.12-.47l.17-.66.61-.3,22.19-11,.56-.28.59.2.41.14s0,0,0,0c.35.12,4.17,1.4,8.26,3.57,2.05,1.08,4.21,2.41,6.05,3.95,1.83,1.53,3.44,3.35,4.25,5.46h0c1.23,3.22.44,6.86-1.84,9.98l-39.14,3.01Zm0,0c2.85,3.92,7.59,5.94,13.73,6.28.87.05,1.72.07,2.54.07l-16.27-6.35Zm16.28,6.35c11.58,0,19.36-4.56,22.86-9.36l-22.86,9.36Zm-13.75-17.57l19.25-9.54c1.47.55,4.36,1.7,7.22,3.27,1.66.91,3.27,1.94,4.58,3.05,1.32,1.12,2.23,2.24,2.63,3.29.51,1.35.26,3.14-1.19,5.13h0c-2.69,3.69-9.6,7.82-21.01,7.19-4.95-.28-8.12-1.79-9.86-4.17-2.01-2.75-1.87-6.36-1.62-8.21Z"/>
    <path class="cls-7" d="m96.62,47.1s-21.56,14.2-19.25,25.67c.01.06.03.12.04.17.26,3.13,2.26,15,17.43,11.83,17.43-3.64,24.02-15.85,19.81-21.65-1.85-2.55-5.82-4.15-9.69-5.15"/>
    <g class="cls-9">
      <path class="cls-7" d="m77.37,72.77l2.95-.54v-.03s-.01-.03-.01-.03l-2.94.59Zm.04.17l2.99-.25-.02-.27-.07-.26-2.9.79Zm17.43,11.83l-.61-2.94h0l.61,2.94Zm19.81-21.65l-2.43,1.76h0s2.43-1.76,2.43-1.76Zm-18.03-16.03q-1.65-2.51-1.65-2.5s0,0,0,0c0,0,0,0,0,0,0,0,0,0-.02.01-.01,0-.03.02-.05.04-.05.03-.11.08-.2.13-.17.12-.41.28-.72.5-.61.43-1.48,1.05-2.5,1.83-2.05,1.56-4.77,3.77-7.44,6.38-2.65,2.59-5.34,5.66-7.23,8.94-1.87,3.24-3.16,7.06-2.37,10.94l5.88-1.18c-.37-1.85.17-4.12,1.69-6.76,1.5-2.61,3.77-5.24,6.22-7.64,2.43-2.38,4.96-4.43,6.88-5.89.96-.73,1.76-1.31,2.32-1.7.28-.2.5-.34.64-.44.07-.05.13-.09.16-.11.02-.01.03-.02.04-.03,0,0,0,0,0,0,0,0,0,0,0,0h0s0,0-1.65-2.5Zm-22.2,26.21c.04.21.09.39.1.43l5.79-1.58s0-.02,0-.03c0,0,0,0,0,0,0,0,.01.05.02.1l-5.9,1.07Zm0-.11c.15,1.75.78,6.25,3.79,9.93,1.55,1.89,3.72,3.54,6.65,4.45,2.91.9,6.41,1.01,10.58.14l-1.23-5.87c-3.42.71-5.85.53-7.59,0-1.71-.53-2.91-1.45-3.78-2.52-1.84-2.25-2.34-5.25-2.45-6.63l-5.98.51Zm21.03,14.51c9.28-1.94,15.96-6.21,19.77-11.1,3.69-4.73,5.09-10.78,1.86-15.24l-4.86,3.52c.97,1.34,1.18,4.29-1.73,8.03-2.79,3.58-8.12,7.22-16.26,8.92l1.23,5.87Zm21.63-26.34c-1.32-1.83-3.26-3.14-5.19-4.09-1.96-.97-4.13-1.68-6.18-2.2l-1.49,5.81c1.82.47,3.56,1.05,5.02,1.77,1.49.74,2.46,1.5,2.98,2.23l4.86-3.52Z"/>
    </g>
    <path class="cls-5" d="m74.87,73.34v-.06c-.72-3.49.32-7.01,2.07-10.2,1.76-3.2,4.32-6.23,6.93-8.84,5.22-5.22,10.85-8.97,11.34-9.28l1.25-.82.82,1.25,1.17,1.77.8,1.22-1.2.84s-.01,0-.03.02c-.41.28-5.45,3.66-10.14,8.25h0c-2.18,2.14-4.47,4.71-6.07,7.36-1.62,2.69-2.39,5.24-1.95,7.42h0s.06.3.06.3l.02.08v.08c.16,1.83.88,5.93,4,8.25l-9.08-7.65Zm0,0v.02m0-.02v.02m0,0c.23,2.4,1.25,8.17,6.01,11.72,2.37,1.77,5.26,2.68,8.55,2.78h.01s.62.01.62.01c1.66,0,3.43-.2,5.29-.59,12.75-2.66,19.87-9.6,22.16-15.54h0c1.39-3.59,1.22-7.32-.8-10.11-2.04-2.81-5.74-4.64-10.92-5.98l-1.31-.34-.47,1.27-.75,2.04-.58,1.56,1.61.41c2.21.57,4.03,1.2,5.44,1.9,1.42.71,2.33,1.43,2.83,2.13.85,1.17,1.06,2.96.18,5.26-1.65,4.26-7.26,10.04-18.44,12.38h0c-4.69.98-8.08.41-10.36-1.29l-9.07-7.62Z"/>
    <path class="cls-5" d="m104.5,60.64h0s0,0,0,0h.08s.08,0,.08,0h1.05l.36-.98.75-2.04.63-1.72-1.81-.28c-5.14-.8-8.93.86-11.41,2.72-1.23.93-2.14,1.9-2.74,2.65-.3.38-.53.69-.69.93-.08.12-.14.21-.18.28-.02.04-.04.06-.05.08v.03s-.02,0-.02,0h0s0,0,0,0t1.3.75l-1.3-.74,2.31,1.86c2.35-2.12,5.24-3.02,7.61-3.38,1.18-.18,2.2-.22,2.93-.22.36,0,.65.01.84.03.1,0,.17.01.21.02.02,0,.04,0,.05,0h0Z"/>
    <path class="cls-5" d="m98.02,44.23l-1.3-3.62-1.5,3.54-1.04,2.47-.36.86.62.71.97,1.12.77.89,1.04-.54,1.14-.59,1.17-.6-.44-1.24-1.08-3Z"/>
    <path class="cls-5" d="m125.87,28.88h0c.18-.93.07-1.85-.33-2.65-.05-.1-.11-.2-.17-.3.44-.51.76-1.15.9-1.9.24-1.25-.09-2.47-.99-3.42-.85-.9-2.1-1.45-3.55-1.73,0,0,0,0,0,0l-4.97-.96-1.47-.28-.28,1.47-1.96,10.19-.28,1.47,1.47.28,5.26,1.01s0,0,0,0c1.49.29,2.91.27,4.07-.24,1.26-.56,2.04-1.61,2.29-2.94Z"/>
    <path class="cls-5" d="m134.41,32.94l.45,2.49.51,2.83-2.61-1.2-2.35-1.07-.88-.4v-.84l-.43-2.42-.53,1.16-.62,1.36-1.36-.63-2.18-1-1.36-.63.62-1.36,4.32-9.43.63-1.36,1.36.63,4.08,1.87h0c1.48.68,2.67,1.69,3.3,3.01.65,1.35.62,2.86-.03,4.28l-2.92,2.71Zm0,0c1.27-.42,2.3-1.35,2.92-2.71l-2.92,2.71Zm-3.21-5.18l.26-.56.42.19.15.07c.32.17.41.3.42.32,0,.02,0,.07-.06.18h0c-.05.11-.09.15-.1.16l-1.09-.36Zm0,0l.41.19h0c.45.21.65.18.67.17l-1.09-.36Z"/>
    <path class="cls-5" d="m143.84,43.08l.7-2.74h.85l-.71-.56,1.96-7.71.24-.94-.76-.6-.91-.72.02-.07-.07.04-.9-.71-.76-.61-.86.45-10.06,5.27-2.05,1.07,1.82,1.43,1.93,1.52.79.62.87-.49,1.23-.69,2.2,1.74-.38,1.35-.27.96.79.62,1.97,1.56,1.82,1.44.57-2.24Z"/>
    <path class="cls-5" d="m157.55,45.64l1.2-.91-.91-1.19-1.43-1.89-.91-1.2-1.19.91-1.67,1.27.92-3.83.17-.69-.43-.57-1.2-1.58-.91-1.19-1.19.91-8.26,6.27-1.19.91.91,1.19,1.43,1.89.91,1.2,1.19-.91,1.68-1.28-.92,3.85-.16.69.43.56,1.19,1.57.91,1.2,1.19-.91,8.26-6.27Z"/>
    <path class="cls-5" d="m160.31,47.84l-.57-1.39-1.39.57-9.61,3.91-1.39.57.57,1.39,1.78,4.37h0c.75,1.85,1.99,3.3,3.6,4.08,1.63.79,3.49.83,5.31.09,1.82-.74,3.13-2.07,3.74-3.77.61-1.68.48-3.59-.27-5.44h0s-1.78-4.37-1.78-4.37Zm-5.96,7.62l-.08-.2-.26-.64,3.18-1.29.26.64h0c.28.68.25,1.19.12,1.52-.12.32-.4.66-.99.9-.59.24-1.03.19-1.34.05-.29-.14-.62-.43-.89-.98Z"/>
    <path class="cls-5" d="m166.17,69.5l-.07-1.5-1.5.07-10.37.51-1.5.07.07,1.5.12,2.4.07,1.5,1.5-.07,10.37-.51,1.5-.07-.07-1.5-.12-2.4Z"/>
    <path class="cls-5" d="m166.44,76.12l.2-1.48-1.49-.21-10.27-1.41-1.49-.21-.2,1.49-.64,4.67h0c-.27,1.98.08,3.85,1.08,5.33,1.01,1.5,2.61,2.46,4.56,2.73,1.95.27,3.74-.23,5.13-1.4,1.37-1.16,2.21-2.87,2.48-4.84h0l.64-4.67Zm-7.51,5.53c-.63-.09-.99-.35-1.18-.63-.21-.29-.36-.77-.26-1.5t0,0l.1-.68,3.4.47-.09.68c-.1.73-.38,1.15-.66,1.38-.26.22-.67.37-1.3.28Z"/>
    <path class="cls-5" d="m151.02,95.55l2.05.81v-.9l.49.19,1.74.69.7.28-.23.59,1.4.55,1.79.71,1.4.55.55-1.39,2.88-7.29.55-1.4-1.4-.55-9.65-3.81-1.39-.55-.55,1.39-2.95,7.47-.55,1.4,1.4.55,1.79.71Z"/>
    <path class="cls-5" d="m151.36,109.64l.97-1.15,1.12.78,1.36-1.94.86-1.23-1.23-.86-1.71-1.2,3.93-.29.71-.05.41-.58,1.14-1.62.86-1.23-1.23-.86-8.49-5.96-1.23-.86-.86,1.23-1.36,1.94-.86,1.23,1.23.86,1.73,1.21-3.95.3-.71.05-.41.58-1.13,1.61-.86,1.23,1.23.86,8.49,5.96Z"/>
    <path class="cls-5" d="m146.47,109.36l-4.62-5.16-1-1.12-1.12,1-1.79,1.6-1.12,1,1,1.12,4.62,5.16-1.36,1.22-1.12,1,1,1.12,1.31,1.46,1,1.12,1.12-1,6.73-6.04,1.12-1-1-1.12-1.31-1.46-1-1.12-1.12,1-1.35,1.21Z"/>
    <path class="cls-5" d="m142.1,119.33l1.26-.82-.82-1.26-5.67-8.69-.82-1.26-1.26.82-2.01,1.31-1.26.82.82,1.26,5.67,8.69.82,1.26,1.26-.82,2.01-1.31Z"/>
    <path class="cls-5" d="m134.09,118.42l-2.86-6.3-.62-1.37-1.37.62-2.19.99-1.37.62.62,1.37,2.86,6.3-1.66.75-1.37.62.62,1.37.81,1.78.62,1.36,1.36-.62,8.24-3.74,1.37-.62-.62-1.37-.81-1.78-.62-1.37-1.37.62-1.66.75Z"/>
    <path class="cls-5" d="m121.32,127.29l.9-2.74,2,2.08.59.61.83-.19,2.48-.57,2.59-.6-1.84-1.91-5.11-5.3-.73-3.2-.33-1.46-1.46.33-2.34.53-1.46.33.34,1.46.72,3.16-2.3,7.04-.82,2.52,2.58-.59,2.3-.52.83-.19.26-.81Z"/>
    <path class="cls-5" d="m97.54,116.39l.73,2.49-1.21.6,1.44.2,2.23,7.62.27.93.96.13,1.15.16.02.07.04-.07,1.14.16.96.13.51-.83,5.99-9.65,1.22-1.96-2.29-.31-2.44-.33-.99-.14-.51.87-.71,1.21-2.77-.38-.36-1.37-.25-.97-.99-.14-2.5-.34-2.29-.32.65,2.22Z"/>
    <path class="cls-5" d="m84.4,121.16l-.38.92.71.71h0s.21.22.21.22l.28.12,2.2.89,1.39.57.57-1.39.79-1.95,1.16,3.77.21.68.66.27,1.84.75,1.39.57.57-1.39,3.93-9.61.57-1.39-1.39-.57-2.2-.9-1.39-.57-.57,1.39-.8,1.95-1.17-3.78-.21-.68-.66-.27-1.83-.75-1.39-.57-.57,1.39-3.93,9.61Z"/>
    <path class="cls-5" d="m80.94,120.69l1.2.9.9-1.2,6.26-8.27.91-1.2-1.2-.9-3.76-2.84h0c-1.59-1.2-3.4-1.82-5.18-1.67-1.8.15-3.43,1.07-4.61,2.64l1.2.9-1.2-.9c-1.18,1.57-1.63,3.38-1.29,5.15.34,1.76,1.42,3.33,3.01,4.53h0l3.76,2.84Zm-.11-6.32l-.55-.42h0c-.59-.44-.82-.89-.88-1.24-.06-.33,0-.76.4-1.27h0c.38-.51.78-.69,1.12-.73.36-.04.85.07,1.43.51h0l.55.42-2.07,2.74Z"/>
    <path class="cls-5" d="m65.67,106.2l.86,1.23,1.23-.86,8.51-5.93,1.23-.86-.86-1.23-1.37-1.97-.86-1.23-1.23.86-8.51,5.93-1.23.86.86,1.23,1.37,1.97Z"/>
    <path class="cls-5" d="m57.89,91.45v2.33l.76-.34.36.79.62,1.37,1.37-.62,1.91-.87-1.75,3.54-.32.64.29.65.82,1.81.62,1.37,1.37-.62,9.45-4.28,1.37-.62-.62-1.37-.98-2.16-.62-1.37-1.37.62-1.92.87,1.75-3.55.31-.64-.29-.65-.81-1.79-.62-1.36-1.36.62-9.45,4.28.48,1.07-1.36.29h0Z"/>
    <path class="cls-5" d="m61.5,86.05l6.78-1.37,1.47-.3-.3-1.47-.48-2.36-.3-1.47-1.47.3-6.78,1.37-.36-1.78-.3-1.47-1.47.3-1.92.39-1.47.3.3,1.47,1.79,8.86.3,1.47,1.47-.3,1.92-.39,1.47-.3-.3-1.47-.36-1.78Z"/>
    <path class="cls-5" d="m65,67.25h-1.51s0,.82,0,.82h-.9s-1.87-.02-1.87-.02h-.75s0-.64,0-.64h-1.5s-1.93-.03-1.93-.03h-1.5s-.01,1.49-.01,1.49l-.06,7.84v1.5s1.49.01,1.49.01l10.37.08h1.5s.01-1.49.01-1.49l.06-8.04v-1.5s-1.49-.01-1.49-.01l-1.93-.02Z"/>
    <path class="cls-5" d="m61.82,59.96c-.17.23-.28.48-.36.79l.36-.79Zm0,0l-.12.5,1.46.36,1.91.46c-.01.12-.04.24-.07.37-.15.62-.47,1-.81,1.21-.34.21-.81.31-1.4.17-.61-.15-.98-.46-1.18-.79-.2-.34-.3-.83-.15-1.48l.36-.79Zm.83-3.42l-.58-1.04-.7-1.27-1.29.66c-1.84.94-3.03,2.67-3.55,4.77h0c-.96,3.93,1.04,7.68,4.97,8.63,3.92.95,7.41-1.44,8.36-5.34.42-1.71.35-3.68-.36-5.34l-.3-.69-.73-.18-4.09-.99-1.46-.35-.28,1.13Z"/>
    <path class="cls-5" d="m65.53,50.32l.55.28.21-.41s0,0,0,0c.23-.44.21-.64.2-.66,0,0,0,0,0,0,0,0-.05-.05-.15-.1l-.81.89Zm0,0l.21-.4.08-.15c.18-.31.32-.39.34-.4.02,0,.07.01.18.07l-.81.89Zm7.58,2.27l.78-.1.36-.7,1.19-2.29,1.33-2.55-2.85.37-2.51.33c-.36-1.28-1.23-2.36-2.56-3.05h0c-1.39-.72-2.89-.83-4.28-.25-1.35.56-2.42,1.7-3.17,3.15h0s-2.07,3.99-2.07,3.99l-.69,1.33,1.33.69,9.21,4.78,1.33.69.69-1.33,1.11-2.13.69-1.33-1.33-.69-1.13-.59,2.57-.33Z"/>
    <path class="cls-5" d="m65.59,40.73l-.9,1.2,1.2.91,8.27,6.27,1.2.91.9-1.2,1.45-1.92.9-1.2-1.2-.91-8.27-6.27-1.2-.91-.91,1.2-1.45,1.92Z"/>
    <path class="cls-5" d="m72.11,40.17l1.31-1.27,4.82,4.96,1.04,1.08,1.08-1.05,1.72-1.67,1.07-1.05-1.04-1.08-4.82-4.96,1.31-1.27,1.08-1.05-1.05-1.08-1.37-1.4-1.04-1.07-1.07,1.04-6.48,6.3-1.08,1.05,1.05,1.08,1.37,1.4,1.04,1.07,1.08-1.04Z"/>
    <path class="cls-5" d="m87.65,32.28l-.18-7.39-.07-2.65-2.24,1.43-1.99,1.27-.72.46.02.85.07,2.88-2.58-1.29-.76-.38-.71.45-2.15,1.37-2.24,1.43,2.38,1.18,6.59,3.28,1.77,2.77.81,1.26,1.26-.8,2.03-1.29,1.27-.8-.81-1.27-1.76-2.76Z"/>
    <path class="cls-7" d="m110.65,115.49c23.24,0,42.08-18.84,42.08-42.08s-18.84-42.08-42.08-42.08-42.08,18.84-42.08,42.08,18.84,42.08,42.08,42.08Z"/>
    <path class="cls-8" d="m110.65,33.44c22.04,0,39.96,17.93,39.96,39.96s-17.93,39.96-39.96,39.96-39.97-17.93-39.97-39.96,17.93-39.96,39.97-39.96Zm0-2.12c-23.24,0-42.08,18.84-42.08,42.08s18.84,42.08,42.08,42.08,42.08-18.84,42.08-42.08-18.84-42.08-42.08-42.08Z"/>
    <path class="cls-6" d="m110.65,133.4c33.14,0,60-26.86,60-60s-26.86-60-60-60-60,26.86-60,60,26.86,60,60,60Z"/>
    <path class="cls-8" d="m110.65,15.52c15.46,0,30,6.02,40.93,16.95,10.93,10.93,16.96,25.47,16.96,40.93s-6.02,30-16.96,40.93c-10.93,10.93-25.47,16.96-40.93,16.96s-30-6.02-40.93-16.96c-10.94-10.94-16.95-25.47-16.95-40.93s6.02-30,16.95-40.93c10.93-10.94,25.47-16.95,40.93-16.95Zm0-2.12c-33.14,0-60,26.86-60,60s26.86,60,60,60,60-26.86,60-60-26.86-60-60-60Z"/>
    <path class="cls-7" d="m110.65,115.49c23.24,0,42.08-18.84,42.08-42.08s-18.84-42.08-42.08-42.08-42.08,18.84-42.08,42.08,18.84,42.08,42.08,42.08Z"/>
    <path class="cls-8" d="m110.65,32.91c22.33,0,40.49,18.17,40.49,40.49s-18.17,40.49-40.49,40.49-40.49-18.17-40.49-40.49,18.16-40.49,40.49-40.49Zm0-1.59c-23.24,0-42.08,18.84-42.08,42.08s18.84,42.08,42.08,42.08,42.08-18.84,42.08-42.08-18.84-42.08-42.08-42.08Z"/>
    <path class="cls-7" d="m131.9,94.93c11.58-3.35,17.73-17.24,13.74-31.03-3.99-13.79-16.6-22.26-28.18-18.92-11.58,3.35-17.73,17.24-13.74,31.03,3.99,13.79,16.6,22.26,28.18,18.92Z"/>
    <path class="cls-8" d="m123.92,46.14c9,0,16.36,6.86,19.67,18.35,1.93,6.66,1.9,12.82-.07,17.81-2.1,5.3-6.21,8.87-12.23,10.6-2.02.58-3.99.88-5.88.88-9,0-16.36-6.86-19.68-18.35-1.93-6.67-1.9-12.83.07-17.81,2.1-5.3,6.21-8.87,12.23-10.6,2.02-.58,3.99-.88,5.88-.88Zm0-2.12c-2.05,0-4.21.31-6.47.96-13.99,4.04-17.73,17.24-13.75,31.03,3.34,11.57,11.06,19.88,21.71,19.88,2.05,0,4.21-.31,6.47-.96,13.99-4.04,17.73-17.24,13.75-31.04-3.34-11.57-11.06-19.88-21.71-19.88Z"/>
    <path class="cls-7" d="m132.73,75.92c1.49-1.67,1.17-4.65.76-7.8-1.75-13.56-10.78-16.88-15.56-17.9-4.78-1.02-10.59-23.11-11.88-29.75-1.3-6.64-8.63-3.65-8.63-3.65-9.54,4.97-.05,30.11-.05,30.11-5.45,16.76,12.95,30.21,21.34,35.34l-19.95-.46s15.86,29.56,32.17,17.88c12.22-8.75,5.79-19.12,1.79-23.77h0Z"/>
    <path class="cls-8" d="m102.07,16.16c1.52,0,3.29.83,3.97,4.32,1.3,6.64,7.1,28.73,11.88,29.75,4.78,1.02,13.8,4.34,15.56,17.9.41,3.14.73,6.13-.76,7.8,4,4.65,10.43,15.02-1.79,23.77-2.69,1.93-5.37,2.73-7.97,2.73-13.15,0-24.21-20.61-24.21-20.61l19.95.46c-8.4-5.12-26.78-18.57-21.34-35.34,0,0-9.49-25.14.05-30.11,0,0,3.29-.67,4.65-.67m0-2.12c-1.76,0-5.34.75-5.66.92-4.84,2.54-6.43,8.98-4.69,19.14.99,5.77,2.75,11.04,3.41,12.89-2.25,7.76-.22,15.59,6.07,23.31,3.11,3.82,6.83,7.07,10.33,9.68l-12.74-.3-3.63-.08,1.72,3.2c.48.89,11.82,21.72,26.07,21.72,3.21,0,6.3-1.05,9.2-3.13,4.7-3.36,7.35-7.32,7.88-11.76.38-3.17-.18-8.08-4.73-13.9.99-2.32.62-5.25.27-7.88-.83-6.45-2.65-12.05-7.49-15.62-2.93-2.16-5.49-3.18-9.71-4.08-.17-.07-2.26-1.16-5.83-11.75-2.17-6.44-3.84-13.3-4.44-16.34-.35-1.82-1.65-6.03-6.05-6.03h0Z"/>
    <path class="cls-7" d="m93.11,102s-2.73,11.57,10.32,11.93c13.04.36,19.81-7.22,17.8-12.07-2.01-4.85-12.67-8.06-12.67-8.06l-15.45,8.19Z"/>
    <path class="cls-8" d="m104.34,115c-.31,0-.62,0-.94-.02-4.39-.12-7.61-1.47-9.56-4.01-2.97-3.87-1.81-9.01-1.76-9.23l.11-.47,16.26-8.62.42.13c.46.14,11.16,3.41,13.35,8.67.83,1.99.44,4.39-1.06,6.57-2.35,3.42-7.98,6.98-16.81,6.98h0Zm-10.28-12.31c-.18,1.2-.45,4.52,1.47,7.01,1.55,2,4.21,3.07,7.93,3.17,8.51.23,13.83-2.97,15.94-6.05,1.1-1.6,1.41-3.22.85-4.56-1.42-3.43-8.49-6.32-11.59-7.32l-14.6,7.75Z"/>
    <path class="cls-7" d="m85.34,93.52s-3.6,13.62,11.85,14.48c15.45.85,23.72-7.92,21.49-13.74-2.23-5.81-14.76-9.96-14.76-9.96l-18.57,9.22Z"/>
    <path class="cls-8" d="m99.27,109.12c-.69,0-1.41-.02-2.14-.06-5.14-.28-8.86-1.96-11.05-4.98-3.35-4.61-1.83-10.58-1.76-10.83l.12-.46,19.39-9.62.41.14c.53.17,13.03,4.38,15.42,10.58.9,2.32.37,5.08-1.44,7.57-2.77,3.81-9.15,7.66-18.96,7.66h0Zm-13-14.87c-.25,1.35-.76,5.47,1.53,8.6,1.81,2.47,4.99,3.85,9.45,4.1,10.18.57,16.62-3.11,19.26-6.74,1.4-1.92,1.82-3.9,1.18-5.56-1.61-4.21-10.07-7.92-13.7-9.19l-17.72,8.79h0Z"/>
    <path class="cls-7" d="m79.34,80.64s-4.15,15.67,13.62,16.66c17.78.99,27.29-9.11,24.73-15.79s-16.98-11.46-16.98-11.46l-21.38,10.6Z"/>
    <path class="cls-8" d="m95.38,98.43c-.81,0-1.62-.02-2.47-.07-5.86-.32-10.1-2.23-12.6-5.66-3.81-5.24-2.07-12.03-2-12.32l.12-.47,22.19-11,.41.14c.61.2,14.92,5.02,17.63,12.09,1.01,2.63.41,5.74-1.65,8.55-3.17,4.34-10.45,8.74-21.66,8.74h.01Zm-15.11-17.06c-.29,1.49-.94,6.38,1.77,10.1,2.11,2.88,5.8,4.49,10.99,4.79,11.77.65,19.24-3.6,22.3-7.81,1.65-2.26,2.13-4.58,1.38-6.55-2.13-5.54-13.6-9.87-15.92-10.7l-20.52,10.17h0Z"/>
    <path class="cls-7" d="m96.62,47.1s-21.56,14.2-19.25,25.67c.01.06.03.12.04.17.26,3.13,2.26,15,17.43,11.83,17.43-3.64,24.02-15.85,19.81-21.65-1.85-2.55-5.82-4.15-9.69-5.15"/>
    <path class="cls-8" d="m90.07,86.37c-3.29,0-6.06-.83-8.28-2.49-4.3-3.21-5.23-8.53-5.43-10.77-.02-.06-.02-.1-.03-.13-2.42-12.04,18.8-26.18,19.71-26.77l1.16,1.77c-.05.04-5.39,3.57-10.36,8.43-4.46,4.36-9.54,10.7-8.44,16.15l.06.3c.16,1.9.92,6.59,4.59,9.33,2.76,2.06,6.65,2.58,11.57,1.56,11.54-2.41,17.66-8.45,19.53-13.3,1.01-2.6.88-4.98-.36-6.68-1.4-1.93-4.57-3.44-9.12-4.61l.75-2.04c5.1,1.31,8.36,3.03,10.08,5.4,1.65,2.28,1.87,5.44.62,8.69-2.07,5.37-8.7,12.03-21.07,14.61-1.77.37-3.44.56-4.98.56h0Z"/>
    <path class="cls-8" d="m104.67,59.15s-7.52-.84-12.81,3.93c0,0,4.23-7.41,13.57-5.97l-.75,2.04h0Z"/>
    <path class="cls-8" d="m96.61,44.73l1.07,3-1.14.59-.97-1.12,1.04-2.47Z"/>
    <path class="cls-8" d="m124.4,28.6c-.34,1.76-1.93,2.51-4.61,2l-5.27-1.01,1.96-10.19,4.97.96c2.55.49,3.65,1.81,3.35,3.39-.2,1.02-.87,1.7-1.78,1.98,1.06.58,1.62,1.59,1.38,2.87Zm-2.32-.7c.16-.86-.41-1.39-1.64-1.63l-2.75-.53-.49,2.52,2.75.53c1.22.23,1.95-.02,2.12-.89h0Zm-3.6-6.28l-.46,2.4,2.35.45c1.15.22,1.85-.06,2.01-.87.15-.8-.4-1.31-1.55-1.54l-2.35-.45Z"/>
    <path class="cls-8" d="m131.04,34.61l-.61-3.46-.11-.05-1.9-.87-1.21,2.63-2.18-1,4.33-9.43,4.08,1.87c2.52,1.15,3.5,3.19,2.53,5.3-.65,1.41-1.84,2.13-3.31,2.09l.73,4-2.35-1.07h0Zm1.46-8.6l-1.78-.82-1.51,3.29,1.78.82c1.33.61,2.29.3,2.76-.73.48-1.04.08-1.95-1.26-2.57h0Z"/>
    <path class="cls-8" d="m141.07,38.83l-3.78-2.99-2.1,1.18-1.93-1.52,10.06-5.27,1.86,1.47-2.79,11.02-1.97-1.56.66-2.31h0Zm.54-1.9l1.18-4.13-3.75,2.1,2.58,2.04h0Z"/>
    <path class="cls-8" d="m156.65,44.45l-8.26,6.27-1.19-1.57,1.89-7.93-5.02,3.81-1.43-1.89,8.26-6.27,1.2,1.58-1.9,7.92,5.02-3.81,1.43,1.89Z"/>
    <path class="cls-8" d="m158.92,48.41l1.78,4.37c1.28,3.14.26,6.07-2.65,7.25-2.91,1.19-5.68-.2-6.96-3.34l-1.78-4.37,9.61-3.91Zm-6.05,7.43c.78,1.9,2.43,2.69,4.27,1.94,1.84-.75,2.47-2.46,1.69-4.37l-.83-2.03-5.96,2.42.83,2.03h0Z"/>
    <path class="cls-8" d="m164.67,69.57l.12,2.4-10.36.51-.12-2.4,10.36-.51Z"/>
    <path class="cls-8" d="m164.95,75.91l-.64,4.67c-.46,3.36-2.81,5.39-5.92,4.96-3.11-.43-4.82-3.01-4.36-6.37l.64-4.67,10.27,1.41Zm-8.95,3.4c-.28,2.04.75,3.54,2.72,3.82,1.97.27,3.37-.9,3.65-2.94l.3-2.17-6.37-.88-.3,2.17Z"/>
    <path class="cls-8" d="m151.57,94.15l-1.79-.71,2.95-7.47,9.65,3.81-2.88,7.29-1.79-.71,2.01-5.07-2.1-.83-1.77,4.48-1.74-.69,1.77-4.48-2.23-.88-2.08,5.25h0Z"/>
    <path class="cls-8" d="m152.22,108.41l-8.49-5.96,1.13-1.61,8.12-.61-5.15-3.62,1.36-1.94,8.49,5.96-1.14,1.62-8.12.6,5.16,3.62-1.36,1.94h0Z"/>
    <path class="cls-8" d="m146.35,111.48l2.47-2.22,1.31,1.46-6.73,6.03-1.31-1.46,2.47-2.22-5.62-6.27,1.79-1.6,5.62,6.27h0Z"/>
    <path class="cls-8" d="m141.28,118.07l-2.01,1.31-5.67-8.69,2.01-1.31,5.67,8.69Z"/>
    <path class="cls-8" d="m133.35,120.4l3.02-1.37.81,1.78-8.24,3.74-.81-1.78,3.02-1.37-3.48-7.67,2.19-.99,3.48,7.67h0Z"/>
    <path class="cls-8" d="m120.03,119.92l-.82-3.58,2.34-.53.82,3.61,5.4,5.6-2.48.57-3.73-3.88-1.67,5.11-2.3.52,2.43-7.43h0Z"/>
    <path class="cls-8" d="m102.07,118.65l4.77.65,1.21-2.08,2.44.33-5.99,9.65-2.35-.32-3.19-10.91,2.5.34.61,2.33h-.01Zm.5,1.9l1.09,4.16,2.17-3.71-3.26-.44h0Z"/>
    <path class="cls-8" d="m85.79,121.73l3.93-9.61,1.83.75,2.41,7.79,2.38-5.83,2.2.9-3.93,9.61-1.84-.75-2.39-7.78-2.38,5.83-2.2-.9h0Z"/>
    <path class="cls-8" d="m81.85,119.49l-3.76-2.84c-2.71-2.05-3.32-5.08-1.43-7.59,1.9-2.5,4.99-2.73,7.69-.68l3.76,2.84-6.26,8.27Zm1.41-9.47c-1.64-1.24-3.46-1.07-4.66.51-1.2,1.58-.87,3.38.78,4.62l1.75,1.32,3.88-5.13-1.75-1.32Z"/>
    <path class="cls-8" d="m66.9,105.34l-1.37-1.97,8.51-5.93,1.37,1.97-8.51,5.93Z"/>
    <path class="cls-8" d="m59.39,91.45l9.45-4.28.82,1.79-3.61,7.31,5.74-2.6.98,2.16-9.45,4.28-.82-1.81,3.61-7.3-5.74,2.6-.98-2.16h0Z"/>
    <path class="cls-8" d="m59.73,84.87l.66,3.25-1.92.39-1.79-8.86,1.92-.39.66,3.26,8.25-1.67.48,2.36-8.25,1.67h0Z"/>
    <path class="cls-8" d="m64.99,68.75l1.93.02-.06,8.04-10.37-.08.06-7.84,1.93.02-.04,5.45,2.25.02.04-4.82,1.87.02-.04,4.82,2.4.02.04-5.65h0Z"/>
    <path class="cls-8" d="m63.51,59.36l.52-2.13,4.09,1c.57,1.31.64,2.95.29,4.39-.77,3.17-3.51,4.97-6.55,4.24-3.04-.74-4.65-3.61-3.86-6.82.43-1.77,1.39-3.09,2.77-3.79l1.02,1.84c-.96.55-1.52,1.31-1.77,2.33-.48,1.96.51,3.62,2.42,4.09,1.88.46,3.55-.56,4.02-2.48.15-.64.19-1.25.01-1.92l-2.95-.72Z"/>
    <path class="cls-8" d="m72.92,51.1l-3.49.44-.05.11-.96,1.85,2.56,1.33-1.11,2.13-9.21-4.78,2.07-3.99c1.28-2.46,3.36-3.33,5.42-2.26,1.38.72,2.03,1.94,1.92,3.4l4.03-.52-1.19,2.29Zm-8.51-1.88l-.91,1.74,3.21,1.67.91-1.74c.68-1.3.41-2.28-.59-2.79-1.01-.52-1.95-.17-2.63,1.13h0Z"/>
    <path class="cls-8" d="m66.79,41.64l1.45-1.92,8.27,6.27-1.45,1.92-8.27-6.27Z"/>
    <path class="cls-8" d="m73.45,36.78l-2.38,2.31-1.37-1.4,6.48-6.3,1.37,1.4-2.38,2.31,5.86,6.04-1.72,1.67-5.86-6.04Z"/>
    <path class="cls-8" d="m86.16,32.75l1.98,3.1-2.03,1.29-1.99-3.12-6.97-3.47,2.15-1.37,4.81,2.4-.14-5.38,1.99-1.27.2,7.81h0Z"/>
  </g>
</svg>