<?xml version="1.0" encoding="UTF-8"?>
<svg id="Layer_2" data-name="Layer 2" xmlns="http://www.w3.org/2000/svg" viewBox="0 0 207.41 57.55">
  <defs>
    <style>
      .cls-1 {
        fill: #f9a61d;
      }

      .cls-1, .cls-2, .cls-3, .cls-4, .cls-5 {
        stroke-width: 0px;
      }

      .cls-2 {
        fill: #81d3f6;
      }

      .cls-3 {
        fill: #636e91;
      }

      .cls-4 {
        fill: #ffdc5c;
      }

      .cls-5 {
        fill: #fff;
      }
    </style>
  </defs>
  <g id="Layer_1-2" data-name="Layer 1">
    <g>
      <g>
        <path class="cls-5" d="m57,32.96l2.68-16.9h4.29l-2.11,13.28h6.1l-.56,3.61h-10.4Z"/>
        <path class="cls-5" d="m79.64,15.83h.21l5.68,17.13h-4.48l-.8-2.58h-5.68l-1.57,2.58h-4.48l11.12-17.13Zm-.14,11.66c-.38-1.34-.8-3-.96-4.04-.33.56-1.62,2.96-2.25,4.04h3.21Z"/>
        <path class="cls-5" d="m102.57,26.7c-.61,3.97-3.73,6.59-8.38,6.59s-6.92-2.63-6.31-6.59l1.69-10.63h4.29l-1.62,10.16c-.31,1.99.56,3.14,2.56,3.14s3.21-1.15,3.52-3.14l1.62-10.16h4.32l-1.69,10.63Z"/>
        <path class="cls-5" d="m119.79,33.2l-7.44-7.63-1.2-1.13-1.34,8.52h-4.2l2.72-17.13h.19l7.37,7.6c.42.38.8.8,1.22,1.15l1.34-8.52h4.22l-2.72,17.13h-.16Z"/>
        <path class="cls-5" d="m139.01,20.78c-.87-.49-2.28-1.13-4.29-1.13-3.54,0-5.89,2.65-5.89,5.56,0,2.28,1.45,4.15,4.15,4.15,2.16,0,3.87-.61,4.97-1.13l-.63,3.97c-1.13.54-3.12,1.08-5.33,1.08-4.55,0-7.53-3.29-7.53-7.56,0-5.44,4.69-10,10.49-10,2.25,0,3.73.59,4.69,1.13l-.63,3.92Z"/>
        <path class="cls-5" d="m151.05,32.96l1.08-6.78h-6.24l-1.08,6.78h-4.29l2.68-16.9h4.29l-1.03,6.52h6.24l1.03-6.52h4.32l-2.68,16.9h-4.32Z"/>
        <path class="cls-5" d="m164.7,27.59l-.84,5.37h-4.29l2.68-16.9h5.63c3.66,0,6.05,1.64,6.05,4.86,0,4.41-3.33,6.66-7.88,6.66h-1.34Zm1.27-7.91l-.68,4.29h1.55c1.48,0,2.7-.77,2.7-2.51,0-1.22-.87-1.78-2.04-1.78h-1.53Z"/>
        <path class="cls-5" d="m182.44,15.83h.21l5.68,17.13h-4.48l-.8-2.58h-5.68l-1.57,2.58h-4.48l11.12-17.13Zm-.14,11.66c-.38-1.34-.8-3-.96-4.04-.33.56-1.62,2.96-2.25,4.04h3.22Z"/>
        <path class="cls-5" d="m190.72,32.96l2.68-16.9h5.66c5.33,0,8.35,3.05,8.35,7.27,0,5.44-4.46,9.62-11.01,9.62h-5.68Zm6.41-13.28l-1.55,9.67h1.34c3.82,0,6.1-2.63,6.1-5.54,0-2.28-1.5-4.13-4.58-4.13h-1.31Z"/>
      </g>
      <g>
        <path class="cls-5" d="m138.38,43.19l1.14-7.23h2c1.94,0,3.29,1.18,3.29,3.08,0,2.51-2.02,4.15-4.4,4.15h-2.04Zm1.81-6.59l-.94,5.94h1.28c1.9,0,3.5-1.37,3.5-3.42,0-1.54-1.05-2.52-2.61-2.52h-1.23Z"/>
        <path class="cls-5" d="m146.06,43.19l1.14-7.23h4.36l-.1.64h-3.59l-.41,2.6h3.04l-.1.65h-3.04l-.43,2.69h3.75l-.1.64h-4.51Z"/>
        <path class="cls-5" d="m154.61,43.31h-.02l-2.08-7.35h.82l.86,3.2c.24.91.46,1.64.66,2.48.48-.84.92-1.57,1.47-2.48l1.87-3.2h.83l-4.42,7.35Z"/>
        <path class="cls-5" d="m159.27,43.19l1.14-7.23h4.36l-.1.64h-3.59l-.41,2.6h3.04l-.1.65h-3.04l-.43,2.69h3.75l-.1.64h-4.51Z"/>
        <path class="cls-5" d="m165.61,43.19l1.14-7.23h.76l-1.04,6.59h3.18l-.1.64h-3.95Z"/>
        <path class="cls-5" d="m175.26,35.84c1.87,0,3.13,1.41,3.13,3.22,0,2.33-2,4.25-4.32,4.25-1.87,0-3.13-1.4-3.13-3.21,0-2.32,2.01-4.26,4.32-4.26Zm-1.07,6.76c1.89,0,3.41-1.55,3.41-3.47,0-1.48-.95-2.57-2.45-2.57-1.87,0-3.42,1.54-3.42,3.46,0,1.48.96,2.58,2.46,2.58Z"/>
        <path class="cls-5" d="m180.88,40.26l-.46,2.93h-.76l1.14-7.23h2.1c1.34,0,2.11.68,2.11,1.81,0,1.53-1.1,2.49-2.79,2.49h-1.34Zm.58-3.65l-.48,3.01h1.36c1.15,0,1.88-.68,1.88-1.75,0-.78-.52-1.27-1.45-1.27h-1.31Z"/>
        <path class="cls-5" d="m185.95,43.19l1.14-7.23h4.36l-.1.64h-3.59l-.41,2.6h3.04l-.1.65h-3.04l-.43,2.69h3.75l-.1.64h-4.51Z"/>
        <path class="cls-5" d="m193.06,43.19h-.76l1.14-7.23h2.29c1.37,0,2.16.68,2.16,1.82,0,1.28-.9,2.14-2.02,2.37l.53,1.89c.1.39.29.6.6.6.18,0,.34-.04.42-.06l-.11.65c-.12.04-.31.08-.54.08-.63,0-.9-.42-1.14-1.23l-.51-1.84h-1.6l-.46,2.94Zm1.04-6.59l-.48,3.01h1.55c1.18,0,1.93-.68,1.93-1.74,0-.79-.54-1.28-1.5-1.28h-1.5Z"/>
        <path class="cls-5" d="m198.65,42.88l.12-.76c.43.23,1.13.5,1.93.5,1.02,0,1.87-.48,1.87-1.37,0-.59-.38-.97-1.44-1.37-1.18-.45-1.72-1.01-1.72-1.87,0-1.4,1.23-2.18,2.65-2.18.72,0,1.35.2,1.7.37l-.12.74c-.35-.2-1.01-.42-1.66-.42-1,0-1.8.51-1.8,1.35,0,.54.34.97,1.42,1.39,1.19.45,1.74.98,1.74,1.85,0,1.38-1.14,2.2-2.71,2.2-.83,0-1.55-.22-1.98-.43Z"/>
      </g>
      <g>
        <path class="cls-3" d="m25.46,56.64c-1.36,0-2.71-.36-3.91-1.07L3.78,45.09C1.42,43.69-.03,41.12,0,38.38l.2-20.63c.03-2.74,1.53-5.28,3.91-6.63L22.08.99c2.39-1.35,5.34-1.32,7.7.08l17.76,10.49c2.36,1.39,3.81,3.96,3.78,6.7l-.2,20.63c-.03,2.74-1.53,5.28-3.91,6.63l-17.96,10.14c-1.17.66-2.48.99-3.78.99ZM23.15,2.88L5.18,13.02c-1.71.97-2.79,2.79-2.81,4.76l-.2,20.63c-.02,1.97,1.02,3.81,2.72,4.82l17.76,10.49c1.7,1,3.81,1.02,5.53.05l17.96-10.14c1.71-.97,2.79-2.79,2.81-4.76l.2-20.63c.02-1.97-1.02-3.81-2.72-4.82L28.68,2.93c-1.7-1-3.81-1.02-5.53-.05h0Z"/>
        <path class="cls-4" d="m24.02,6.76l-15.98,9.02c-1.15.65-1.87,1.86-1.88,3.18l-.18,18.34c-.01,1.32.68,2.55,1.82,3.22l15.8,9.33c1.14.67,2.55.69,3.7.04l15.98-9.02c1.15-.65,1.87-1.86,1.88-3.18l.18-18.34c.01-1.32-.68-2.55-1.82-3.22l-15.8-9.33c-1.14-.67-2.55-.69-3.7-.04Z"/>
        <path class="cls-1" d="m46.32,13.38L28.77,3.02c-1.76-1.04-3.94-1.06-5.72-.06L5.3,12.98c-1.78,1-2.89,2.88-2.91,4.93l-.2,20.38c-.02,2.04,1.05,3.94,2.81,4.98l17.55,10.36c1.76,1.04,3.94,1.06,5.72.06l17.75-10.01c1.78-1,2.89-2.88,2.91-4.93l.2-20.38c.02-2.04-1.05-3.94-2.81-4.98Zm-1.16,24.02c-.01,1.5-.83,2.87-2.13,3.61l-15.48,8.74c-1.3.74-2.9.72-4.19-.04l-15.31-9.04c-1.29-.76-2.07-2.15-2.06-3.65l.17-17.78c.01-1.5.83-2.87,2.13-3.61l15.48-8.74c1.3-.74,2.9-.72,4.19.04l15.31,9.04c1.29.76,2.07,2.15,2.06,3.65l-.17,17.78Z"/>
        <g>
          <path class="cls-3" d="m18.29,27.94h0s-3.18,10.95-3.18,10.95c-.29,1,.46,1.99,1.5,1.99h3.21c-1.09-4.73-1.53-9.05-1.53-12.94Z"/>
          <polygon class="cls-3" points="25.66 41.61 21.16 41.61 21.4 44.4 29.96 44.4 30.21 41.61 25.66 41.61"/>
          <path class="cls-3" d="m36.21,38.89l-3.18-10.95h0c0,3.89-.44,8.22-1.53,12.94h3.21c1.04,0,1.79-1,1.5-1.99Z"/>
        </g>
        <path class="cls-2" d="m25.66,3.22s-11.64,13.82-5.67,38.39h11.34C37.3,17.04,25.66,3.22,25.66,3.22Z"/>
        <path class="cls-3" d="m25.66,13.91c-2.19,0-3.97,1.78-3.97,3.97s1.78,3.97,3.97,3.97,3.97-1.78,3.97-3.97-1.78-3.97-3.97-3.97Z"/>
        <circle class="cls-4" cx="25.66" cy="17.88" r="2.7"/>
        <circle class="cls-5" cx="26.61" cy="16.92" r="1.29"/>
        <path class="cls-5" d="m28.99,56.49l1.06-.69c-1.55-3.32-.81-9.74-.62-11.13.02-.18.04-.27.04-.27h-7.62s.01.1.04.27c.19,1.42.96,8.04-.7,11.31l.65.44c1.12.76,2.38,1.15,3.64,1.15s2.43-.35,3.52-1.06Z"/>
      </g>
    </g>
  </g>
</svg>