<?xml version="1.0" encoding="UTF-8"?>
<svg id="Layer_2" data-name="Layer 2" xmlns="http://www.w3.org/2000/svg" xmlns:xlink="http://www.w3.org/1999/xlink" viewBox="0 0 381.31 346.91">
  <defs>
    <style>
      .cls-1 {
        clip-path: url(#clippath);
      }

      .cls-2 {
        fill: none;
      }

      .cls-2, .cls-3, .cls-4, .cls-5, .cls-6, .cls-7 {
        stroke-width: 0px;
      }

      .cls-8 {
        mask: url(#mask);
      }

      .cls-9 {
        fill: #0b1a30;
        stroke: #fff;
        stroke-width: 3px;
      }

      .cls-3, .cls-5 {
        fill: #f7d852;
      }

      .cls-3, .cls-7 {
        fill-rule: evenodd;
      }

      .cls-6 {
        fill: #fff;
      }
    </style>
    <mask id="mask" x="94.04" y="40.71" width="183.82" height="178.62" maskUnits="userSpaceOnUse">
      <g id="path-2-outside-1_67_480" data-name="path-2-outside-1 67 480">
        <rect class="cls-6" x="94.04" y="40.71" width="183.82" height="178.62"/>
        <path class="cls-7" d="m243.39,45.91H99.96v.58h-.72v137.15h.72v1.94h13.92v11.64h.72v1.94h13.92v11.64h.72v1.94h143.43V73.07h-14.63v-13.58h-14.63v-13.58Z"/>
      </g>
    </mask>
    <clipPath id="clippath">
      <rect class="cls-2" x="99.24" y="45.91" width="173.42" height="166.83"/>
    </clipPath>
  </defs>
  <g id="Layer_1-2" data-name="Layer 1">
    <path class="cls-9" d="m302.48,321.2c-4.18,7.13-10.05,12.98-16.89,17.13l-.08-.02-.94.54c-7.56,4.36-16.22,6.68-25.19,6.56h0l-139.67-1.74c-17.65-.27-34.04-10.01-42.73-25.46h0S7.94,195.91,7.94,195.91c-8.7-15.45-8.57-34.51.3-49.71,0,0,0,0,0,0L78.93,25.77h0C87.85,10.54,104.34,1.24,121.98,1.51h0l139.65,1.83h0c17.61.21,33.99,9.95,42.69,25.4h0s69.04,122.29,69.04,122.29c8.7,15.45,8.57,34.51-.3,49.71l-70.6,120.46Z"/>
    <path class="cls-7" d="m243.39,45.91H99.96v.58h-.72v137.15h.72v1.94h13.92v11.64h.72v1.94h13.92v11.64h.72v1.94h143.43V73.07h-14.63v-13.58h-14.63v-13.58Z"/>
    <g class="cls-8">
      <path class="cls-6" d="m99.96,45.91v-5.2h-5.2v5.2h5.2Zm143.43,0h5.2v-5.2h-5.2v5.2Zm-143.43.58v5.2h5.2v-5.2h-5.2Zm-.72,0v-5.2h-5.2v5.2h5.2Zm0,137.15h-5.2v5.2h5.2v-5.2Zm.72,0h5.2v-5.2h-5.2v5.2Zm0,1.94h-5.2v5.2h5.2v-5.2Zm13.92,0h5.2v-5.2h-5.2v5.2Zm0,11.64h-5.2v5.2h5.2v-5.2Zm.72,0h5.2v-5.2h-5.2v5.2Zm0,1.94h-5.2v5.2h5.2v-5.2Zm13.92,0h5.2v-5.2h-5.2v5.2Zm0,11.64h-5.2v5.2h5.2v-5.2Zm.72,0h5.2v-5.2h-5.2v5.2Zm0,1.94h-5.2v5.2h5.2v-5.2Zm143.43,0v5.2h5.2v-5.2h-5.2Zm0-139.67h5.2v-5.2h-5.2v5.2Zm-14.63,0h-5.2v5.2h5.2v-5.2Zm0-13.58h5.2v-5.2h-5.2v5.2Zm-14.63,0h-5.2v5.2h5.2v-5.2Zm-143.43-8.38h143.43v-10.4H99.96v10.4Zm5.2-4.62v-.58h-10.4v.58h10.4Zm-5.92,5.2h.72v-10.4h-.72v10.4Zm5.2,131.94V46.49h-10.4v137.15h10.4Zm-4.49-5.2h-.72v10.4h.72v-10.4Zm5.2,7.14v-1.94h-10.4v1.94h10.4Zm8.71-5.2h-13.92v10.4h13.92v-10.4Zm5.2,16.84v-11.64h-10.4v11.64h10.4Zm-4.48-5.2h-.72v10.4h.72v-10.4Zm5.2,7.14v-1.94h-10.41v1.94h10.41Zm8.71-5.2h-13.92v10.4h13.92v-10.4Zm5.2,16.84v-11.64h-10.4v11.64h10.4Zm-4.49-5.2h-.72v10.4h.72v-10.4Zm5.2,7.14v-1.94h-10.4v1.94h10.4Zm138.23-5.2h-143.43v10.4h143.43v-10.4Zm-5.2-134.47v139.67h10.4V73.07h-10.4Zm-9.43,5.2h14.63v-10.4h-14.63v10.4Zm-5.2-18.78v13.58h10.4v-13.58h-10.4Zm-9.43,5.2h14.63v-10.4h-14.63v10.4Zm-5.2-18.78v13.58h10.4v-13.58h-10.4Z"/>
    </g>
    <g class="cls-1">
      <g>
        <path class="cls-3" d="m99.97,47.17h141.94v12.32h16.11v13.58h14.63v139.67h-143.43v-13.58h-14.63v-16.2h-14.62V47.17Zm17.35,135.79v13.66h11.9v-13.66h-11.9Zm14.63,0h109.95v-107.37h13.37v121.03h-123.33v-13.66Zm109.95-109.89v-11.05h13.37v11.05h-13.37Zm16.11,126.09h-126.06v11.04h137.96V75.59h-11.9v123.57Z"/>
        <path class="cls-5" d="m271.18,74.33h-141.94v135.79h141.94V74.33Z"/>
        <path class="cls-4" d="m270.45,75.01v134.43h-140.48V75.01h140.48Zm1.46-1.36h-143.4v137.15h143.4V73.65Z"/>
        <path class="cls-4" d="m269.92,75.59v134.61h-137.96V75.59h137.97m2.72-2.53h-143.43v139.67h143.43V73.07Z"/>
        <path class="cls-4" d="m270.48,93.81h-139.34c-.75,0-1.36-.57-1.36-1.26s.61-1.26,1.36-1.26h139.34c.75,0,1.36.57,1.36,1.26s-.62,1.26-1.36,1.26Z"/>
        <path class="cls-4" d="m179.68,139.36h-39.82c-.75,0-1.36-.57-1.36-1.26v-36.95c0-.69.61-1.26,1.36-1.26h39.82c.75,0,1.36.57,1.36,1.26v36.95c0,.69-.61,1.26-1.36,1.26Zm-38.44-2.53h37.08v-34.41h-37.08v34.41Z"/>
        <path class="cls-4" d="m256.56,198.06h-39.82c-.75,0-1.36-.57-1.36-1.26v-26.32c0-.69.61-1.26,1.36-1.26h39.82c.75,0,1.36.57,1.36,1.26v26.32c0,.69-.61,1.26-1.36,1.26Zm-38.44-2.52h37.08v-23.79h-37.08v23.79Z"/>
        <path class="cls-4" d="m256.56,161.63h-116.7c-.75,0-1.36-.57-1.36-1.26v-11.89c0-.69.61-1.26,1.36-1.26h116.71c.75,0,1.36.57,1.36,1.26v11.89c0,.69-.62,1.26-1.36,1.26h-.02Zm-115.34-2.52h113.98v-9.36h-113.98v9.36Z"/>
        <path class="cls-4" d="m256.56,103.93h-65.44c-.75,0-1.36-.57-1.36-1.26s.62-1.26,1.36-1.26h65.44c.75,0,1.36.57,1.36,1.26s-.61,1.26-1.36,1.26Z"/>
        <path class="cls-4" d="m256.56,114.06h-65.44c-.75,0-1.36-.57-1.36-1.26s.62-1.26,1.36-1.26h65.44c.75,0,1.36.57,1.36,1.26s-.61,1.26-1.36,1.26Z"/>
        <path class="cls-4" d="m256.56,124.18h-65.44c-.75,0-1.36-.57-1.36-1.26s.62-1.26,1.36-1.26h65.44c.75,0,1.36.57,1.36,1.26s-.61,1.26-1.36,1.26Z"/>
        <path class="cls-4" d="m256.56,134.31h-65.44c-.75,0-1.36-.57-1.36-1.26s.62-1.26,1.36-1.26h65.44c.75,0,1.36.57,1.36,1.26s-.61,1.26-1.36,1.26Z"/>
        <path class="cls-4" d="m205.84,174.78h-65.44c-.75,0-1.36-.57-1.36-1.26s.61-1.26,1.36-1.26h65.44c.75,0,1.36.57,1.36,1.26s-.62,1.26-1.36,1.26Z"/>
        <path class="cls-4" d="m205.84,184.9h-65.44c-.75,0-1.36-.57-1.36-1.26s.61-1.26,1.36-1.26h65.44c.75,0,1.36.57,1.36,1.26s-.62,1.26-1.36,1.26Z"/>
        <path class="cls-4" d="m205.84,195.03h-65.44c-.75,0-1.36-.57-1.36-1.26s.61-1.26,1.36-1.26h65.44c.75,0,1.36.57,1.36,1.26s-.62,1.26-1.36,1.26Z"/>
        <path class="cls-4" d="m140.14,81.08c1.24,0,2.27.94,2.27,2.1s-1.01,2.1-2.27,2.1-2.27-.94-2.27-2.1,1.01-2.1,2.27-2.1Zm0-2.53c-2.75,0-4.99,2.08-4.99,4.63s2.24,4.63,4.99,4.63,4.99-2.08,4.99-4.63-2.24-4.63-4.99-4.63Z"/>
        <path class="cls-4" d="m156.5,81.08c1.24,0,2.27.94,2.27,2.1s-1.01,2.1-2.27,2.1-2.27-.94-2.27-2.1,1.01-2.1,2.27-2.1Zm0-2.53c-2.75,0-4.99,2.08-4.99,4.63s2.24,4.63,4.99,4.63,4.99-2.08,4.99-4.63-2.24-4.63-4.99-4.63Z"/>
        <path class="cls-4" d="m172.86,81.08c1.25,0,2.27.94,2.27,2.1s-1.01,2.1-2.27,2.1-2.27-.94-2.27-2.1,1.01-2.1,2.27-2.1Zm0-2.53c-2.75,0-4.99,2.08-4.99,4.63s2.24,4.63,4.99,4.63,4.99-2.08,4.99-4.63-2.24-4.63-4.99-4.63Z"/>
        <path class="cls-4" d="m260.12,81.08c1.24,0,2.27.94,2.27,2.1s-1.01,2.1-2.27,2.1-2.27-.94-2.27-2.1,1.01-2.1,2.27-2.1Zm0-2.53c-2.75,0-4.99,2.08-4.99,4.63s2.24,4.63,4.99,4.63,4.99-2.08,4.99-4.63-2.24-4.63-4.99-4.63Z"/>
        <path class="cls-6" d="m256.54,60.75H114.61v135.79h141.94V60.75Z"/>
        <path class="cls-4" d="m255.81,61.43v134.43H115.34V61.43h140.48Zm1.46-1.36H113.87v137.15h143.4V60.07Z"/>
        <path class="cls-4" d="m255.29,62.01v134.61H117.33V62.01h137.97m2.72-2.53H114.59v139.67h143.43V59.49Z"/>
        <path class="cls-4" d="m255.84,80.24H116.51c-.75,0-1.36-.57-1.36-1.26s.61-1.26,1.36-1.26h139.34c.75,0,1.36.57,1.36,1.26s-.62,1.26-1.36,1.26Z"/>
        <path class="cls-4" d="m165.05,125.78h-39.82c-.75,0-1.36-.57-1.36-1.26v-36.95c0-.69.61-1.26,1.36-1.26h39.82c.75,0,1.36.57,1.36,1.26v36.95c0,.69-.61,1.26-1.36,1.26Zm-38.44-2.53h37.08v-34.41h-37.08v34.41Z"/>
        <path class="cls-4" d="m241.93,184.48h-39.82c-.75,0-1.36-.57-1.36-1.26v-26.32c0-.69.61-1.26,1.36-1.26h39.82c.75,0,1.36.57,1.36,1.26v26.32c0,.69-.61,1.26-1.36,1.26Zm-38.44-2.53h37.08v-23.79h-37.08v23.79Z"/>
        <path class="cls-4" d="m241.93,148.05h-116.7c-.75,0-1.36-.57-1.36-1.26v-11.89c0-.69.61-1.26,1.36-1.26h116.71c.75,0,1.36.57,1.36,1.26v11.89c0,.69-.62,1.26-1.36,1.26h-.02Zm-115.34-2.52h113.98v-9.36h-113.98v9.36Z"/>
        <path class="cls-4" d="m241.93,90.35h-65.44c-.75,0-1.36-.57-1.36-1.26s.62-1.26,1.36-1.26h65.44c.75,0,1.36.57,1.36,1.26s-.61,1.26-1.36,1.26Z"/>
        <path class="cls-4" d="m241.93,100.48h-65.44c-.75,0-1.36-.57-1.36-1.26s.62-1.26,1.36-1.26h65.44c.75,0,1.36.57,1.36,1.26s-.61,1.26-1.36,1.26Z"/>
        <path class="cls-4" d="m241.93,110.6h-65.44c-.75,0-1.36-.57-1.36-1.26s.62-1.26,1.36-1.26h65.44c.75,0,1.36.57,1.36,1.26s-.61,1.26-1.36,1.26Z"/>
        <path class="cls-4" d="m241.93,120.73h-65.44c-.75,0-1.36-.57-1.36-1.26s.62-1.26,1.36-1.26h65.44c.75,0,1.36.57,1.36,1.26s-.61,1.26-1.36,1.26Z"/>
        <path class="cls-4" d="m191.21,161.21h-65.44c-.75,0-1.36-.57-1.36-1.26s.61-1.26,1.36-1.26h65.44c.75,0,1.36.57,1.36,1.26s-.62,1.26-1.36,1.26Z"/>
        <path class="cls-4" d="m191.21,171.32h-65.44c-.75,0-1.36-.57-1.36-1.26s.61-1.26,1.36-1.26h65.44c.75,0,1.36.57,1.36,1.26s-.62,1.26-1.36,1.26Z"/>
        <path class="cls-4" d="m191.21,181.45h-65.44c-.75,0-1.36-.57-1.36-1.26s.61-1.26,1.36-1.26h65.44c.75,0,1.36.57,1.36,1.26s-.62,1.26-1.36,1.26Z"/>
        <path class="cls-4" d="m125.51,67.5c1.24,0,2.27.94,2.27,2.1s-1.01,2.1-2.27,2.1-2.27-.94-2.27-2.1,1.01-2.1,2.27-2.1Zm0-2.53c-2.75,0-4.99,2.08-4.99,4.63s2.24,4.63,4.99,4.63,4.99-2.08,4.99-4.63-2.24-4.63-4.99-4.63Z"/>
        <path class="cls-4" d="m141.87,67.5c1.24,0,2.27.94,2.27,2.1s-1.01,2.1-2.27,2.1-2.27-.94-2.27-2.1,1.01-2.1,2.27-2.1Zm0-2.53c-2.75,0-4.99,2.08-4.99,4.63s2.24,4.63,4.99,4.63,4.99-2.08,4.99-4.63-2.24-4.63-4.99-4.63Z"/>
        <path class="cls-4" d="m158.23,67.5c1.25,0,2.27.94,2.27,2.1s-1.01,2.1-2.27,2.1-2.27-.94-2.27-2.1,1.01-2.1,2.27-2.1Zm0-2.53c-2.75,0-4.99,2.08-4.99,4.63s2.24,4.63,4.99,4.63,4.99-2.08,4.99-4.63-2.24-4.63-4.99-4.63Z"/>
        <path class="cls-4" d="m245.48,67.5c1.24,0,2.27.94,2.27,2.1s-1.01,2.1-2.27,2.1-2.27-.94-2.27-2.1,1.01-2.1,2.27-2.1Zm0-2.53c-2.75,0-4.99,2.08-4.99,4.63s2.24,4.63,4.99,4.63,4.99-2.08,4.99-4.63-2.24-4.63-4.99-4.63Z"/>
        <path class="cls-5" d="m241.91,47.17H99.97v135.79h141.94V47.17Z"/>
        <path class="cls-4" d="m241.18,47.85v134.43H100.7V47.85h140.48Zm1.46-1.36H99.24v137.15h143.4V46.49Z"/>
        <path class="cls-4" d="m240.65,48.43v134.61H102.69V48.43h137.97m2.72-2.53H99.96v139.67h143.43V45.91Z"/>
        <path class="cls-4" d="m241.21,66.66H101.87c-.75,0-1.36-.57-1.36-1.26s.61-1.26,1.36-1.26h139.34c.75,0,1.36.57,1.36,1.26s-.62,1.26-1.36,1.26Z"/>
        <path class="cls-4" d="m150.41,112.2h-39.82c-.75,0-1.36-.57-1.36-1.26v-36.95c0-.69.61-1.26,1.36-1.26h39.82c.75,0,1.36.57,1.36,1.26v36.95c0,.69-.61,1.26-1.36,1.26Zm-38.44-2.52h37.08v-34.41h-37.1v34.41h.01Z"/>
        <path class="cls-4" d="m227.29,170.9h-39.82c-.75,0-1.36-.57-1.36-1.26v-26.32c0-.69.62-1.26,1.36-1.26h39.82c.75,0,1.36.57,1.36,1.26v26.32c0,.69-.61,1.26-1.36,1.26Zm-38.44-2.53h37.08v-23.79h-37.08v23.79Z"/>
        <path class="cls-4" d="m227.29,134.47h-116.7c-.75,0-1.36-.57-1.36-1.26v-11.9c0-.69.61-1.26,1.36-1.26h116.71c.75,0,1.36.57,1.36,1.26v11.9c0,.69-.61,1.26-1.36,1.26h-.02Zm-115.34-2.53h113.98v-9.36h-113.98v9.36Z"/>
        <path class="cls-4" d="m227.29,76.77h-65.44c-.75,0-1.36-.57-1.36-1.26s.62-1.26,1.36-1.26h65.44c.75,0,1.36.57,1.36,1.26s-.61,1.26-1.36,1.26Z"/>
        <path class="cls-4" d="m227.29,86.9h-65.44c-.75,0-1.36-.57-1.36-1.26s.62-1.26,1.36-1.26h65.44c.75,0,1.36.57,1.36,1.26s-.61,1.26-1.36,1.26Z"/>
        <path class="cls-4" d="m227.29,97.02h-65.44c-.75,0-1.36-.57-1.36-1.26s.62-1.26,1.36-1.26h65.44c.75,0,1.36.57,1.36,1.26s-.61,1.26-1.36,1.26Z"/>
        <path class="cls-4" d="m227.29,107.15h-65.44c-.75,0-1.36-.57-1.36-1.26s.62-1.26,1.36-1.26h65.44c.75,0,1.36.57,1.36,1.26s-.61,1.26-1.36,1.26Z"/>
        <path class="cls-4" d="m176.58,147.63h-65.44c-.75,0-1.36-.57-1.36-1.26s.61-1.26,1.36-1.26h65.44c.75,0,1.36.57,1.36,1.26s-.62,1.26-1.36,1.26Z"/>
        <path class="cls-4" d="m176.58,157.74h-65.44c-.75,0-1.36-.57-1.36-1.26s.61-1.26,1.36-1.26h65.44c.75,0,1.36.57,1.36,1.26s-.62,1.26-1.36,1.26Z"/>
        <path class="cls-4" d="m176.58,167.87h-65.44c-.75,0-1.36-.57-1.36-1.26s.61-1.26,1.36-1.26h65.44c.75,0,1.36.57,1.36,1.26s-.62,1.26-1.36,1.26Z"/>
        <path class="cls-4" d="m110.87,53.92c1.24,0,2.27.94,2.27,2.1s-1.01,2.1-2.27,2.1-2.27-.94-2.27-2.1,1.01-2.1,2.27-2.1Zm0-2.53c-2.75,0-4.99,2.08-4.99,4.63s2.24,4.63,4.99,4.63,4.99-2.08,4.99-4.63-2.24-4.63-4.99-4.63Z"/>
        <path class="cls-4" d="m127.23,53.92c1.25,0,2.27.94,2.27,2.1s-1.01,2.1-2.27,2.1-2.27-.94-2.27-2.1,1.01-2.1,2.27-2.1Zm0-2.53c-2.75,0-4.99,2.08-4.99,4.63s2.24,4.63,4.99,4.63,4.99-2.08,4.99-4.63-2.24-4.63-4.99-4.63Z"/>
        <path class="cls-4" d="m143.59,53.92c1.25,0,2.27.94,2.27,2.1s-1.01,2.1-2.27,2.1-2.27-.94-2.27-2.1,1.01-2.1,2.27-2.1Zm0-2.53c-2.75,0-4.99,2.08-4.99,4.63s2.24,4.63,4.99,4.63,4.99-2.08,4.99-4.63-2.24-4.63-4.99-4.63Z"/>
        <path class="cls-4" d="m230.85,53.92c1.24,0,2.27.94,2.27,2.1s-1.01,2.1-2.27,2.1-2.27-.94-2.27-2.1,1.01-2.1,2.27-2.1Zm0-2.53c-2.75,0-4.99,2.08-4.99,4.63s2.24,4.63,4.99,4.63,4.99-2.08,4.99-4.63-2.24-4.63-4.99-4.63Z"/>
      </g>
    </g>
    <path class="cls-6" d="m136.81,251c5.84,0,9.49,3.03,9.49,7.93s-3.65,7.9-9.49,7.9h-4.4v6.02h-5.06v-21.85h9.46Zm-.28,11.71c3.09,0,4.65-1.4,4.65-3.78s-1.56-3.81-4.65-3.81h-4.12v7.59h4.12Zm24.27,10.52c-6.9,0-11.96-4.81-11.96-11.3s5.06-11.3,11.96-11.3,11.96,4.78,11.96,11.3-5.09,11.3-11.96,11.3Zm0-4.31c3.9,0,6.84-2.84,6.84-6.99s-2.93-6.99-6.84-6.99-6.84,2.84-6.84,6.99,2.93,6.99,6.84,6.99Zm35.11,3.93h-5.43l-4.21-6.09h-4.65v6.09h-5.06v-21.85h9.46c5.84,0,9.49,3.03,9.49,7.93,0,3.28-1.65,5.68-4.49,6.9l4.9,7.02Zm-5.53-13.92c0-2.4-1.56-3.81-4.65-3.81h-4.12v7.62h4.12c3.09,0,4.65-1.44,4.65-3.81Zm13.35,13.92v-17.73h-6.99v-4.12h19.04v4.12h-6.99v17.73h-5.06Zm30,0l-1.94-4.68h-10.14l-1.94,4.68h-5.18l9.74-21.85h4.99l9.77,21.85h-5.31Zm-10.46-8.52h6.93l-3.46-8.37-3.46,8.37Zm18.03,8.52v-21.85h5.06v17.73h10.96v4.12h-16.01Zm-108.73,11.1h4.84l-7.15,21.85h-5.43l-4.81-14.8-4.96,14.8h-5.4l-7.18-21.85h5.24l4.93,15.36,5.15-15.36h4.68l4.99,15.48,5.09-15.48Zm12.69,17.79h11.89v4.06h-16.92v-21.85h16.51v4.06h-11.49v4.74h10.14v3.93h-10.14v5.06Zm31.96-7.3c2.43.78,4,2.65,4,5.4,0,3.78-3,5.96-8.74,5.96h-11.3v-21.85h10.68c5.46,0,8.27,2.28,8.27,5.68,0,2.19-1.12,3.87-2.9,4.81Zm-5.99-6.68h-5.03v5.15h5.03c2.47,0,3.81-.87,3.81-2.59s-1.34-2.56-3.81-2.56Zm.87,14.23c2.62,0,4.03-.81,4.03-2.68s-1.4-2.72-4.03-2.72h-5.9v5.4h5.9Zm38.11,3.81l-1.94-4.68h-10.14l-1.94,4.68h-5.18l9.74-21.85h4.99l9.77,21.85h-5.31Zm-10.46-8.52h6.93l-3.46-8.37-3.46,8.37Zm27.49-13.33c5.84,0,9.49,3.03,9.49,7.93s-3.65,7.9-9.49,7.9h-4.4v6.02h-5.06v-21.85h9.46Zm-.28,11.71c3.09,0,4.65-1.4,4.65-3.78s-1.56-3.81-4.65-3.81h-4.12v7.59h4.12Zm22.84-11.71c5.84,0,9.49,3.03,9.49,7.93s-3.65,7.9-9.49,7.9h-4.4v6.02h-5.06v-21.85h9.46Zm-.28,11.71c3.09,0,4.65-1.4,4.65-3.78s-1.56-3.81-4.65-3.81h-4.12v7.59h4.12Zm20.86,10.52c-3.46,0-6.96-1.03-8.9-2.53l1.72-3.81c1.84,1.34,4.59,2.28,7.21,2.28,3,0,4.21-1,4.21-2.34,0-4.09-12.7-1.28-12.7-9.4,0-3.71,3-6.8,9.21-6.8,2.75,0,5.56.66,7.59,1.94l-1.56,3.84c-2.03-1.15-4.12-1.72-6.06-1.72-3,0-4.15,1.12-4.15,2.5,0,4.03,12.7,1.25,12.7,9.27,0,3.65-3.03,6.77-9.27,6.77Z"/>
  </g>
</svg>