<?xml version="1.0" encoding="utf-8"?>
<!-- Generator: Adobe Illustrator 27.8.1, SVG Export Plug-In . SVG Version: 6.00 Build 0)  -->
<svg version="1.1" id="Layer_2_00000132065498368068793480000007710718142401751701_"
	 xmlns="http://www.w3.org/2000/svg" xmlns:xlink="http://www.w3.org/1999/xlink" x="0px" y="0px" viewBox="0 0 381.3 346.9"
	 style="enable-background:new 0 0 381.3 346.9;" xml:space="preserve">
<style type="text/css">
	.st0{fill:#0B1A30;stroke:#FFFFFF;stroke-width:3;}
	.st1{fill-rule:evenodd;clip-rule:evenodd;}
	.st2{fill:#FFFFFF;}
	.st3{clip-path:url(#SVGID_00000135682438756644495840000015279594993847288470_);}
	.st4{fill-rule:evenodd;clip-rule:evenodd;fill:#F7D852;}
	.st5{fill:#F7D852;}
	.st6{enable-background:new    ;}
</style>
<g id="Layer_1-2">
	<path class="st0" d="M302.5,321.2c-4.2,7.1-10,13-16.9,17.1l-0.1,0l-0.9,0.5c-7.6,4.4-16.2,6.7-25.2,6.6l0,0l-139.7-1.7
		c-17.7-0.3-34-10-42.7-25.5l0,0l-69-122.3c-8.7-15.4-8.6-34.5,0.3-49.7l0,0L78.9,25.8l0,0C87.8,10.5,104.3,1.2,122,1.5l0,0
		l139.6,1.8l0,0c17.6,0.2,34,9.9,42.7,25.4l0,0l69,122.3c8.7,15.4,8.6,34.5-0.3,49.7L302.5,321.2L302.5,321.2z"/>
	<path class="st1" d="M243.4,45.9H100v0.6h-0.7v137.1h0.7v1.9h13.9v11.6h0.7v1.9h13.9v11.6h0.7v1.9h143.4V73.1H258V59.5h-14.6
		L243.4,45.9L243.4,45.9z"/>
	<g>
		<path class="st2" d="M100,45.9v-5.2h-5.2v5.2H100z M243.4,45.9h5.2v-5.2h-5.2V45.9z M100,46.5v5.2h5.2v-5.2H100z M99.2,46.5v-5.2
			H94v5.2H99.2z M99.2,183.6H94v5.2h5.2V183.6z M100,183.6h5.2v-5.2H100V183.6z M100,185.6h-5.2v5.2h5.2V185.6z M113.9,185.6h5.2
			v-5.2h-5.2V185.6z M113.9,197.2h-5.2v5.2h5.2V197.2z M114.6,197.2h5.2V192h-5.2V197.2z M114.6,199.2h-5.2v5.2h5.2V199.2z
			 M128.5,199.2h5.2V194h-5.2V199.2z M128.5,210.8h-5.2v5.2h5.2V210.8z M129.2,210.8h5.2v-5.2h-5.2V210.8z M129.2,212.7H124v5.2h5.2
			V212.7z M272.7,212.7v5.2h5.2v-5.2H272.7z M272.7,73.1h5.2v-5.2h-5.2V73.1z M258,73.1h-5.2v5.2h5.2V73.1z M258,59.5h5.2v-5.2H258
			V59.5z M243.4,59.5h-5.2v5.2h5.2C243.4,64.7,243.4,59.5,243.4,59.5z M100,51.1h143.4V40.7H100L100,51.1L100,51.1z M105.2,46.5
			v-0.6H94.8v0.6H105.2z M99.3,51.7h0.7V41.3h-0.7C99.3,41.3,99.3,51.7,99.3,51.7z M104.5,183.6V46.5H94.1v137.1L104.5,183.6
			L104.5,183.6z M100,178.4h-0.7v10.4h0.7V178.4z M105.2,185.6v-1.9H94.8v1.9H105.2z M113.9,180.4H100v10.4h13.9V180.4z
			 M119.1,197.2v-11.6h-10.4v11.6H119.1z M114.6,192h-0.7v10.4h0.7V192z M119.8,199.2v-1.9h-10.4v1.9
			C109.4,199.2,119.8,199.2,119.8,199.2z M128.5,194h-13.9v10.4h13.9V194z M133.7,210.8v-11.6h-10.4v11.6H133.7z M129.2,205.6h-0.7
			V216h0.7V205.6z M134.4,212.7v-1.9H124v1.9H134.4z M272.6,207.5H129.2v10.4h143.4V207.5z M267.4,73.1v139.7h10.4V73.1L267.4,73.1
			L267.4,73.1z M258,78.3h14.6V67.9H258V78.3z M252.8,59.5v13.6h10.4V59.5H252.8L252.8,59.5z M243.4,64.7H258V54.3h-14.6V64.7z
			 M238.2,45.9v13.6h10.4V45.9H238.2z"/>
	</g>
	<g>
		<defs>
			<rect id="SVGID_1_" x="99.2" y="45.9" width="173.4" height="166.8"/>
		</defs>
		<clipPath id="SVGID_00000014596603041994539410000012532038205720896146_">
			<use xlink:href="#SVGID_1_"  style="overflow:visible;"/>
		</clipPath>
		<g style="clip-path:url(#SVGID_00000014596603041994539410000012532038205720896146_);">
			<g>
				<path class="st4" d="M100,47.2h141.9v12.3H258v13.6h14.6v139.7H129.2v-13.6h-14.6V183H100L100,47.2L100,47.2z M117.3,183v13.7
					h11.9V183H117.3z M131.9,183h109.9V75.6h13.4v121H131.9L131.9,183L131.9,183z M241.9,73.1V62h13.4v11H241.9z M258,199.2H132v11
					h138V75.6H258L258,199.2L258,199.2z"/>
				<path class="st5" d="M271.2,74.3H129.2v135.8h141.9V74.3z"/>
				<path d="M270.5,75v134.4H130V75H270.5z M271.9,73.7H128.5v137.1h143.4V73.7z"/>
				<path d="M269.9,75.6v134.6H132V75.6H269.9 M272.6,73.1H129.2v139.7h143.4V73.1L272.6,73.1z"/>
				<path d="M270.5,93.8H131.1c-0.8,0-1.4-0.6-1.4-1.3s0.6-1.3,1.4-1.3h139.3c0.8,0,1.4,0.6,1.4,1.3S271.2,93.8,270.5,93.8z"/>
				<path d="M179.7,139.4h-39.8c-0.8,0-1.4-0.6-1.4-1.3v-36.9c0-0.7,0.6-1.3,1.4-1.3h39.8c0.8,0,1.4,0.6,1.4,1.3v36.9
					C181,138.8,180.4,139.4,179.7,139.4z M141.2,136.8h37.1v-34.4h-37.1V136.8z"/>
				<path d="M256.6,198.1h-39.8c-0.8,0-1.4-0.6-1.4-1.3v-26.3c0-0.7,0.6-1.3,1.4-1.3h39.8c0.8,0,1.4,0.6,1.4,1.3v26.3
					C257.9,197.5,257.3,198.1,256.6,198.1L256.6,198.1z M218.1,195.5h37.1v-23.8h-37.1V195.5L218.1,195.5z"/>
				<path d="M256.6,161.6H139.9c-0.8,0-1.4-0.6-1.4-1.3v-11.9c0-0.7,0.6-1.3,1.4-1.3h116.7c0.8,0,1.4,0.6,1.4,1.3v11.9
					C257.9,161.1,257.3,161.6,256.6,161.6L256.6,161.6L256.6,161.6z M141.2,159.1h114v-9.4h-114V159.1z"/>
				<path d="M256.6,103.9h-65.4c-0.8,0-1.4-0.6-1.4-1.3s0.6-1.3,1.4-1.3h65.4c0.8,0,1.4,0.6,1.4,1.3S257.3,103.9,256.6,103.9z"/>
				<path d="M256.6,114.1h-65.4c-0.8,0-1.4-0.6-1.4-1.3s0.6-1.3,1.4-1.3h65.4c0.8,0,1.4,0.6,1.4,1.3S257.3,114.1,256.6,114.1z"/>
				<path d="M256.6,124.2h-65.4c-0.8,0-1.4-0.6-1.4-1.3s0.6-1.3,1.4-1.3h65.4c0.8,0,1.4,0.6,1.4,1.3S257.3,124.2,256.6,124.2z"/>
				<path d="M256.6,134.3h-65.4c-0.8,0-1.4-0.6-1.4-1.3s0.6-1.3,1.4-1.3h65.4c0.8,0,1.4,0.6,1.4,1.3S257.3,134.3,256.6,134.3z"/>
				<path d="M205.8,174.8h-65.4c-0.8,0-1.4-0.6-1.4-1.3s0.6-1.3,1.4-1.3h65.4c0.8,0,1.4,0.6,1.4,1.3S206.6,174.8,205.8,174.8z"/>
				<path d="M205.8,184.9h-65.4c-0.8,0-1.4-0.6-1.4-1.3s0.6-1.3,1.4-1.3h65.4c0.8,0,1.4,0.6,1.4,1.3S206.6,184.9,205.8,184.9z"/>
				<path d="M205.8,195h-65.4c-0.8,0-1.4-0.6-1.4-1.3s0.6-1.3,1.4-1.3h65.4c0.8,0,1.4,0.6,1.4,1.3S206.6,195,205.8,195z"/>
				<path d="M140.1,81.1c1.2,0,2.3,0.9,2.3,2.1s-1,2.1-2.3,2.1s-2.3-0.9-2.3-2.1S138.9,81.1,140.1,81.1z M140.1,78.6
					c-2.8,0-5,2.1-5,4.6s2.2,4.6,5,4.6s5-2.1,5-4.6S142.9,78.6,140.1,78.6z"/>
				<path d="M156.5,81.1c1.2,0,2.3,0.9,2.3,2.1s-1,2.1-2.3,2.1s-2.3-0.9-2.3-2.1S155.2,81.1,156.5,81.1z M156.5,78.6
					c-2.8,0-5,2.1-5,4.6s2.2,4.6,5,4.6s5-2.1,5-4.6S159.2,78.6,156.5,78.6z"/>
				<path d="M172.9,81.1c1.2,0,2.3,0.9,2.3,2.1s-1,2.1-2.3,2.1s-2.3-0.9-2.3-2.1S171.6,81.1,172.9,81.1z M172.9,78.6
					c-2.8,0-5,2.1-5,4.6s2.2,4.6,5,4.6s5-2.1,5-4.6S175.6,78.6,172.9,78.6z"/>
				<path d="M260.1,81.1c1.2,0,2.3,0.9,2.3,2.1s-1,2.1-2.3,2.1s-2.3-0.9-2.3-2.1S258.9,81.1,260.1,81.1z M260.1,78.6
					c-2.8,0-5,2.1-5,4.6s2.2,4.6,5,4.6s5-2.1,5-4.6S262.9,78.6,260.1,78.6z"/>
				<path class="st2" d="M256.5,60.8H114.6v135.8h141.9L256.5,60.8L256.5,60.8z"/>
				<path d="M255.8,61.4v134.4H115.3V61.4H255.8L255.8,61.4z M257.3,60.1H113.9v137.1h143.4V60.1z"/>
				<path d="M255.3,62v134.6h-138V62H255.3 M258,59.5H114.6v139.7H258V59.5L258,59.5z"/>
				<path d="M255.8,80.2H116.5c-0.8,0-1.4-0.6-1.4-1.3s0.6-1.3,1.4-1.3h139.3c0.8,0,1.4,0.6,1.4,1.3S256.6,80.2,255.8,80.2
					L255.8,80.2z"/>
				<path d="M165.1,125.8h-39.8c-0.8,0-1.4-0.6-1.4-1.3v-37c0-0.7,0.6-1.3,1.4-1.3h39.8c0.8,0,1.4,0.6,1.4,1.3v36.9
					C166.4,125.2,165.8,125.8,165.1,125.8z M126.6,123.2h37.1V88.8h-37.1V123.2z"/>
				<path d="M241.9,184.5h-39.8c-0.8,0-1.4-0.6-1.4-1.3v-26.3c0-0.7,0.6-1.3,1.4-1.3h39.8c0.8,0,1.4,0.6,1.4,1.3v26.3
					C243.3,183.9,242.7,184.5,241.9,184.5z M203.5,181.9h37.1v-23.8h-37.1V181.9L203.5,181.9z"/>
				<path d="M241.9,148.1H125.2c-0.8,0-1.4-0.6-1.4-1.3v-11.9c0-0.7,0.6-1.3,1.4-1.3h116.7c0.8,0,1.4,0.6,1.4,1.3v11.9
					C243.3,147.5,242.7,148.1,241.9,148.1L241.9,148.1L241.9,148.1z M126.6,145.5h114v-9.4h-114
					C126.6,136.2,126.6,145.5,126.6,145.5z"/>
				<path d="M241.9,90.3h-65.4c-0.8,0-1.4-0.6-1.4-1.3s0.6-1.3,1.4-1.3h65.4c0.8,0,1.4,0.6,1.4,1.3S242.7,90.3,241.9,90.3z"/>
				<path d="M241.9,100.5h-65.4c-0.8,0-1.4-0.6-1.4-1.3s0.6-1.3,1.4-1.3h65.4c0.8,0,1.4,0.6,1.4,1.3S242.7,100.5,241.9,100.5z"/>
				<path d="M241.9,110.6h-65.4c-0.8,0-1.4-0.6-1.4-1.3s0.6-1.3,1.4-1.3h65.4c0.8,0,1.4,0.6,1.4,1.3S242.7,110.6,241.9,110.6z"/>
				<path d="M241.9,120.7h-65.4c-0.8,0-1.4-0.6-1.4-1.3s0.6-1.3,1.4-1.3h65.4c0.8,0,1.4,0.6,1.4,1.3S242.7,120.7,241.9,120.7z"/>
				<path d="M191.2,161.2h-65.4c-0.8,0-1.4-0.6-1.4-1.3s0.6-1.3,1.4-1.3h65.4c0.8,0,1.4,0.6,1.4,1.3S192,161.2,191.2,161.2z"/>
				<path d="M191.2,171.3h-65.4c-0.8,0-1.4-0.6-1.4-1.3s0.6-1.3,1.4-1.3h65.4c0.8,0,1.4,0.6,1.4,1.3S192,171.3,191.2,171.3z"/>
				<path d="M191.2,181.4h-65.4c-0.8,0-1.4-0.6-1.4-1.3s0.6-1.3,1.4-1.3h65.4c0.8,0,1.4,0.6,1.4,1.3S192,181.4,191.2,181.4z"/>
				<path d="M125.5,67.5c1.2,0,2.3,0.9,2.3,2.1s-1,2.1-2.3,2.1s-2.3-0.9-2.3-2.1S124.3,67.5,125.5,67.5z M125.5,65
					c-2.8,0-5,2.1-5,4.6s2.2,4.6,5,4.6c2.8,0,5-2.1,5-4.6S128.3,65,125.5,65z"/>
				<path d="M141.9,67.5c1.2,0,2.3,0.9,2.3,2.1s-1,2.1-2.3,2.1s-2.3-0.9-2.3-2.1S140.6,67.5,141.9,67.5z M141.9,65
					c-2.8,0-5,2.1-5,4.6s2.2,4.6,5,4.6s5-2.1,5-4.6S144.6,65,141.9,65z"/>
				<path d="M158.2,67.5c1.2,0,2.3,0.9,2.3,2.1s-1,2.1-2.3,2.1s-2.3-0.9-2.3-2.1S157,67.5,158.2,67.5z M158.2,65c-2.8,0-5,2.1-5,4.6
					s2.2,4.6,5,4.6s5-2.1,5-4.6S161,65,158.2,65z"/>
				<path d="M245.5,67.5c1.2,0,2.3,0.9,2.3,2.1s-1,2.1-2.3,2.1s-2.3-0.9-2.3-2.1S244.2,67.5,245.5,67.5z M245.5,65
					c-2.8,0-5,2.1-5,4.6s2.2,4.6,5,4.6s5-2.1,5-4.6S248.2,65,245.5,65z"/>
				<path class="st5" d="M241.9,47.2H100V183h141.9V47.2z"/>
				<path d="M241.2,47.8v134.4H100.7V47.8H241.2z M242.6,46.5H99.2v137.1h143.4L242.6,46.5L242.6,46.5z"/>
				<path d="M240.6,48.4V183h-138V48.4H240.6 M243.4,45.9H100v139.7h143.4L243.4,45.9L243.4,45.9z"/>
				<path d="M241.2,66.7H101.9c-0.8,0-1.4-0.6-1.4-1.3s0.6-1.3,1.4-1.3h139.3c0.8,0,1.4,0.6,1.4,1.3S241.9,66.7,241.2,66.7
					L241.2,66.7z"/>
				<path d="M150.4,112.2h-39.8c-0.8,0-1.4-0.6-1.4-1.3V74c0-0.7,0.6-1.3,1.4-1.3h39.8c0.8,0,1.4,0.6,1.4,1.3v36.9
					C151.8,111.6,151.2,112.2,150.4,112.2z M112,109.7h37.1V75.3H112L112,109.7L112,109.7L112,109.7z"/>
				<path d="M227.3,170.9h-39.8c-0.8,0-1.4-0.6-1.4-1.3v-26.3c0-0.7,0.6-1.3,1.4-1.3h39.8c0.8,0,1.4,0.6,1.4,1.3v26.3
					C228.7,170.3,228,170.9,227.3,170.9L227.3,170.9z M188.8,168.4h37.1v-23.8h-37.1V168.4z"/>
				<path d="M227.3,134.5H110.6c-0.8,0-1.4-0.6-1.4-1.3v-11.9c0-0.7,0.6-1.3,1.4-1.3h116.7c0.8,0,1.4,0.6,1.4,1.3v11.9
					C228.7,133.9,228,134.5,227.3,134.5L227.3,134.5L227.3,134.5z M111.9,131.9h114v-9.4h-114C111.9,122.6,111.9,131.9,111.9,131.9z
					"/>
				<path d="M227.3,76.8h-65.4c-0.8,0-1.4-0.6-1.4-1.3s0.6-1.3,1.4-1.3h65.4c0.8,0,1.4,0.6,1.4,1.3S228,76.8,227.3,76.8z"/>
				<path d="M227.3,86.9h-65.4c-0.8,0-1.4-0.6-1.4-1.3s0.6-1.3,1.4-1.3h65.4c0.8,0,1.4,0.6,1.4,1.3S228,86.9,227.3,86.9z"/>
				<path d="M227.3,97h-65.4c-0.8,0-1.4-0.6-1.4-1.3s0.6-1.3,1.4-1.3h65.4c0.8,0,1.4,0.6,1.4,1.3S228,97,227.3,97z"/>
				<path d="M227.3,107.2h-65.4c-0.8,0-1.4-0.6-1.4-1.3s0.6-1.3,1.4-1.3h65.4c0.8,0,1.4,0.6,1.4,1.3S228,107.2,227.3,107.2z"/>
				<path d="M176.6,147.6h-65.4c-0.8,0-1.4-0.6-1.4-1.3s0.6-1.3,1.4-1.3h65.4c0.8,0,1.4,0.6,1.4,1.3S177.3,147.6,176.6,147.6z"/>
				<path d="M176.6,157.7h-65.4c-0.8,0-1.4-0.6-1.4-1.3s0.6-1.3,1.4-1.3h65.4c0.8,0,1.4,0.6,1.4,1.3S177.3,157.7,176.6,157.7z"/>
				<path d="M176.6,167.9h-65.4c-0.8,0-1.4-0.6-1.4-1.3s0.6-1.3,1.4-1.3h65.4c0.8,0,1.4,0.6,1.4,1.3S177.3,167.9,176.6,167.9z"/>
				<path d="M110.9,53.9c1.2,0,2.3,0.9,2.3,2.1s-1,2.1-2.3,2.1s-2.3-0.9-2.3-2.1S109.6,53.9,110.9,53.9z M110.9,51.4
					c-2.8,0-5,2.1-5,4.6s2.2,4.6,5,4.6s5-2.1,5-4.6S113.6,51.4,110.9,51.4z"/>
				<path d="M127.2,53.9c1.3,0,2.3,0.9,2.3,2.1s-1,2.1-2.3,2.1S125,57.2,125,56S126,53.9,127.2,53.9z M127.2,51.4
					c-2.8,0-5,2.1-5,4.6s2.2,4.6,5,4.6c2.8,0,5-2.1,5-4.6S130,51.4,127.2,51.4z"/>
				<path d="M143.6,53.9c1.2,0,2.3,0.9,2.3,2.1s-1,2.1-2.3,2.1s-2.3-0.9-2.3-2.1S142.3,53.9,143.6,53.9z M143.6,51.4
					c-2.8,0-5,2.1-5,4.6s2.2,4.6,5,4.6s5-2.1,5-4.6S146.3,51.4,143.6,51.4z"/>
				<path d="M230.9,53.9c1.2,0,2.3,0.9,2.3,2.1s-1,2.1-2.3,2.1s-2.3-0.9-2.3-2.1S229.6,53.9,230.9,53.9z M230.9,51.4
					c-2.8,0-5,2.1-5,4.6s2.2,4.6,5,4.6s5-2.1,5-4.6S233.6,51.4,230.9,51.4z"/>
			</g>
		</g>
	</g>
	<g class="st6">
		<path class="st2" d="M105.9,263.6v4.3H88v-23.1h17.5v4.3H93.3v5h10.7v4.2H93.3v5.3H105.9z"/>
		<path class="st2" d="M131.4,244.8v23.1H127l-11.5-14v14h-5.3v-23.1h4.4l11.5,14v-14H131.4z"/>
		<path class="st2" d="M141.6,249.2h-7.4v-4.4h20.1v4.4H147v18.7h-5.3V249.2z"/>
		<path class="st2" d="M175.1,263.6v4.3h-17.9v-23.1h17.5v4.3h-12.1v5h10.7v4.2h-10.7v5.3H175.1z"/>
		<path class="st2" d="M194.1,267.9l-4.5-6.4h-0.3h-4.7v6.4h-5.3v-23.1h10c6.2,0,10,3.2,10,8.4c0,3.5-1.7,6-4.8,7.3l5.2,7.4H194.1z
			 M189.1,249.2h-4.4v8.1h4.4c3.3,0,4.9-1.5,4.9-4C194,250.7,192.3,249.2,189.1,249.2z"/>
	</g>
	<g class="st6">
		<path class="st2" d="M223.7,253.2c0,5.1-3.9,8.3-10,8.3H209v6.4h-5.3v-23.1h10C219.8,244.8,223.7,248,223.7,253.2z M218.2,253.2
			c0-2.5-1.6-4-4.9-4H209v8h4.4C216.6,257.2,218.2,255.7,218.2,253.2z"/>
	</g>
	<g class="st6">
		<path class="st2" d="M242.2,267.9l-4.5-6.4h-0.3h-4.7v6.4h-5.3v-23.1h10c6.2,0,10,3.2,10,8.4c0,3.5-1.7,6-4.8,7.3l5.2,7.4H242.2z
			 M237.2,249.2h-4.4v8.1h4.4c3.3,0,4.9-1.5,4.9-4C242.1,250.7,240.4,249.2,237.2,249.2z"/>
		<path class="st2" d="M251.7,244.8h5.3v23.1h-5.3V244.8z"/>
		<path class="st2" d="M260.7,265.7l1.8-4c1.9,1.4,4.9,2.4,7.6,2.4c3.2,0,4.5-1.1,4.5-2.5c0-4.3-13.4-1.4-13.4-9.9
			c0-3.9,3.2-7.2,9.7-7.2c2.9,0,5.9,0.7,8,2l-1.6,4.1c-2.1-1.2-4.4-1.8-6.4-1.8c-3.2,0-4.4,1.2-4.4,2.6c0,4.3,13.4,1.3,13.4,9.8
			c0,3.9-3.2,7.2-9.8,7.2C266.5,268.3,262.8,267.2,260.7,265.7z"/>
		<path class="st2" d="M301.5,263.6v4.3h-17.9v-23.1H301v4.3h-12.1v5h10.7v4.2h-10.7v5.3H301.5z"/>
	</g>
	<g class="st6">
		<path class="st2" d="M95.6,300.5l1.8-4c1.9,1.4,4.9,2.4,7.6,2.4c3.2,0,4.5-1.1,4.5-2.5c0-4.3-13.4-1.4-13.4-9.9
			c0-3.9,3.2-7.2,9.7-7.2c2.9,0,5.9,0.7,8,2l-1.6,4.1c-2.1-1.2-4.4-1.8-6.4-1.8c-3.2,0-4.4,1.2-4.4,2.6c0,4.3,13.4,1.3,13.4,9.8
			c0,3.9-3.2,7.2-9.8,7.2C101.3,303.1,97.7,302,95.6,300.5z"/>
		<path class="st2" d="M117,291.2c0-6.9,5.3-11.9,12.6-11.9c7.3,0,12.6,5,12.6,11.9c0,6.9-5.4,11.9-12.6,11.9
			C122.4,303.1,117,298.1,117,291.2z M136.9,291.2c0-4.4-3.1-7.4-7.2-7.4c-4.1,0-7.2,3-7.2,7.4s3.1,7.4,7.2,7.4
			C133.8,298.6,136.9,295.6,136.9,291.2z"/>
	</g>
	<g class="st6">
		<path class="st2" d="M151.7,283.9v6.1h10.7v4.3h-10.7v8.4h-5.3v-23.1h17.5v4.3H151.7z"/>
	</g>
	<g class="st6">
		<path class="st2" d="M172.4,284H165v-4.4h20.1v4.4h-7.4v18.7h-5.3V284z"/>
	</g>
	<g class="st6">
		<path class="st2" d="M222.5,279.6l-7.6,23.1h-5.7l-5.1-15.6l-5.2,15.6h-5.7l-7.6-23.1h5.5l5.2,16.2l5.4-16.2h5L212,296l5.4-16.4
			H222.5z"/>
	</g>
	<g class="st6">
		<path class="st2" d="M239.9,297.8h-10.7l-2,5h-5.5l10.3-23.1h5.3l10.3,23.1h-5.6L239.9,297.8z M238.2,293.7l-3.7-8.8l-3.7,8.8
			H238.2z"/>
		<path class="st2" d="M264.7,302.7l-4.5-6.4h-0.3h-4.7v6.4h-5.3v-23.1h10c6.2,0,10,3.2,10,8.4c0,3.5-1.8,6-4.8,7.3l5.2,7.4H264.7z
			 M259.6,284h-4.4v8.1h4.4c3.3,0,4.9-1.5,4.9-4C264.6,285.5,262.9,284,259.6,284z"/>
		<path class="st2" d="M292.1,298.4v4.3h-17.9v-23.1h17.5v4.3h-12.1v5h10.7v4.2h-10.7v5.3H292.1z"/>
	</g>
</g>
</svg>
