<?xml version="1.0" encoding="UTF-8"?>
<svg id="Layer_2" data-name="Layer 2" xmlns="http://www.w3.org/2000/svg" xmlns:xlink="http://www.w3.org/1999/xlink" viewBox="0 0 381.31 346.91">
  <defs>
    <style>
      .cls-1 {
        letter-spacing: -.01em;
      }

      .cls-2 {
        clip-path: url(#clippath);
      }

      .cls-3 {
        fill: none;
      }

      .cls-3, .cls-4, .cls-5, .cls-6, .cls-7, .cls-8 {
        stroke-width: 0px;
      }

      .cls-9 {
        font-family: Montserrat-Bold, Montserrat;
        font-size: 33px;
        font-weight: 700;
      }

      .cls-9, .cls-7 {
        fill: #fff;
      }

      .cls-10 {
        mask: url(#mask);
      }

      .cls-11 {
        letter-spacing: 0em;
      }

      .cls-12 {
        fill: #0b1a30;
        stroke: #fff;
        stroke-width: 3px;
      }

      .cls-4, .cls-6 {
        fill: #f7d852;
      }

      .cls-4, .cls-8 {
        fill-rule: evenodd;
      }

      .cls-13 {
        letter-spacing: -.04em;
      }

      .cls-14 {
        letter-spacing: -.01em;
      }

      .cls-15 {
        letter-spacing: 0em;
      }
    </style>
    <mask id="mask" x="94.04" y="40.71" width="183.82" height="178.62" maskUnits="userSpaceOnUse">
      <g id="path-2-outside-1_67_480" data-name="path-2-outside-1 67 480">
        <rect class="cls-7" x="94.04" y="40.71" width="183.82" height="178.62"/>
        <path class="cls-8" d="m243.39,45.91H99.96v.58h-.72v137.15h.72v1.94h13.92v11.64h.72v1.94h13.92v11.64h.72v1.94h143.43V73.07h-14.63v-13.58h-14.63v-13.58Z"/>
      </g>
    </mask>
    <clipPath id="clippath">
      <rect class="cls-3" x="99.24" y="45.91" width="173.42" height="166.83"/>
    </clipPath>
  </defs>
  <g id="Layer_1-2" data-name="Layer 1">
    <path class="cls-12" d="m302.48,321.2c-4.18,7.13-10.05,12.98-16.89,17.13l-.08-.02-.94.54c-7.56,4.36-16.22,6.68-25.19,6.56h0l-139.67-1.74c-17.65-.27-34.04-10.01-42.73-25.46h0S7.94,195.91,7.94,195.91c-8.7-15.45-8.57-34.51.3-49.71,0,0,0,0,0,0L78.93,25.77h0C87.85,10.54,104.34,1.24,121.98,1.51h0l139.65,1.83h0c17.61.21,33.99,9.95,42.69,25.4h0s69.04,122.29,69.04,122.29c8.7,15.45,8.57,34.51-.3,49.71l-70.6,120.46Z"/>
    <path class="cls-8" d="m243.39,45.91H99.96v.58h-.72v137.15h.72v1.94h13.92v11.64h.72v1.94h13.92v11.64h.72v1.94h143.43V73.07h-14.63v-13.58h-14.63v-13.58Z"/>
    <g class="cls-10">
      <path class="cls-7" d="m99.96,45.91v-5.2h-5.2v5.2h5.2Zm143.43,0h5.2v-5.2h-5.2v5.2Zm-143.43.58v5.2h5.2v-5.2h-5.2Zm-.72,0v-5.2h-5.2v5.2h5.2Zm0,137.15h-5.2v5.2h5.2v-5.2Zm.72,0h5.2v-5.2h-5.2v5.2Zm0,1.94h-5.2v5.2h5.2v-5.2Zm13.92,0h5.2v-5.2h-5.2v5.2Zm0,11.64h-5.2v5.2h5.2v-5.2Zm.72,0h5.2v-5.2h-5.2v5.2Zm0,1.94h-5.2v5.2h5.2v-5.2Zm13.92,0h5.2v-5.2h-5.2v5.2Zm0,11.64h-5.2v5.2h5.2v-5.2Zm.72,0h5.2v-5.2h-5.2v5.2Zm0,1.94h-5.2v5.2h5.2v-5.2Zm143.43,0v5.2h5.2v-5.2h-5.2Zm0-139.67h5.2v-5.2h-5.2v5.2Zm-14.63,0h-5.2v5.2h5.2v-5.2Zm0-13.58h5.2v-5.2h-5.2v5.2Zm-14.63,0h-5.2v5.2h5.2v-5.2Zm-143.43-8.38h143.43v-10.4H99.96v10.4Zm5.2-4.62v-.58h-10.4v.58h10.4Zm-5.92,5.2h.72v-10.4h-.72v10.4Zm5.2,131.94V46.49h-10.4v137.15h10.4Zm-4.49-5.2h-.72v10.4h.72v-10.4Zm5.2,7.14v-1.94h-10.4v1.94h10.4Zm8.71-5.2h-13.92v10.4h13.92v-10.4Zm5.2,16.84v-11.64h-10.4v11.64h10.4Zm-4.48-5.2h-.72v10.4h.72v-10.4Zm5.2,7.14v-1.94h-10.41v1.94h10.41Zm8.71-5.2h-13.92v10.4h13.92v-10.4Zm5.2,16.84v-11.64h-10.4v11.64h10.4Zm-4.49-5.2h-.72v10.4h.72v-10.4Zm5.2,7.14v-1.94h-10.4v1.94h10.4Zm138.23-5.2h-143.43v10.4h143.43v-10.4Zm-5.2-134.47v139.67h10.4V73.07h-10.4Zm-9.43,5.2h14.63v-10.4h-14.63v10.4Zm-5.2-18.78v13.58h10.4v-13.58h-10.4Zm-9.43,5.2h14.63v-10.4h-14.63v10.4Zm-5.2-18.78v13.58h10.4v-13.58h-10.4Z"/>
    </g>
    <g class="cls-2">
      <g>
        <path class="cls-4" d="m99.97,47.17h141.94v12.32h16.11v13.58h14.63v139.67h-143.43v-13.58h-14.63v-16.2h-14.62V47.17Zm17.35,135.79v13.66h11.9v-13.66h-11.9Zm14.63,0h109.95v-107.37h13.37v121.03h-123.33v-13.66Zm109.95-109.89v-11.05h13.37v11.05h-13.37Zm16.11,126.09h-126.06v11.04h137.96V75.59h-11.9v123.57Z"/>
        <path class="cls-6" d="m271.18,74.33h-141.94v135.79h141.94V74.33Z"/>
        <path class="cls-5" d="m270.45,75.01v134.43h-140.48V75.01h140.48Zm1.46-1.36h-143.4v137.15h143.4V73.65Z"/>
        <path class="cls-5" d="m269.92,75.59v134.61h-137.96V75.59h137.97m2.72-2.53h-143.43v139.67h143.43V73.07Z"/>
        <path class="cls-5" d="m270.48,93.81h-139.34c-.75,0-1.36-.57-1.36-1.26s.61-1.26,1.36-1.26h139.34c.75,0,1.36.57,1.36,1.26s-.62,1.26-1.36,1.26Z"/>
        <path class="cls-5" d="m179.68,139.36h-39.82c-.75,0-1.36-.57-1.36-1.26v-36.95c0-.69.61-1.26,1.36-1.26h39.82c.75,0,1.36.57,1.36,1.26v36.95c0,.69-.61,1.26-1.36,1.26Zm-38.44-2.53h37.08v-34.41h-37.08v34.41Z"/>
        <path class="cls-5" d="m256.56,198.06h-39.82c-.75,0-1.36-.57-1.36-1.26v-26.32c0-.69.61-1.26,1.36-1.26h39.82c.75,0,1.36.57,1.36,1.26v26.32c0,.69-.61,1.26-1.36,1.26Zm-38.44-2.52h37.08v-23.79h-37.08v23.79Z"/>
        <path class="cls-5" d="m256.56,161.63h-116.7c-.75,0-1.36-.57-1.36-1.26v-11.89c0-.69.61-1.26,1.36-1.26h116.71c.75,0,1.36.57,1.36,1.26v11.89c0,.69-.62,1.26-1.36,1.26h-.02Zm-115.34-2.52h113.98v-9.36h-113.98v9.36Z"/>
        <path class="cls-5" d="m256.56,103.93h-65.44c-.75,0-1.36-.57-1.36-1.26s.62-1.26,1.36-1.26h65.44c.75,0,1.36.57,1.36,1.26s-.61,1.26-1.36,1.26Z"/>
        <path class="cls-5" d="m256.56,114.06h-65.44c-.75,0-1.36-.57-1.36-1.26s.62-1.26,1.36-1.26h65.44c.75,0,1.36.57,1.36,1.26s-.61,1.26-1.36,1.26Z"/>
        <path class="cls-5" d="m256.56,124.18h-65.44c-.75,0-1.36-.57-1.36-1.26s.62-1.26,1.36-1.26h65.44c.75,0,1.36.57,1.36,1.26s-.61,1.26-1.36,1.26Z"/>
        <path class="cls-5" d="m256.56,134.31h-65.44c-.75,0-1.36-.57-1.36-1.26s.62-1.26,1.36-1.26h65.44c.75,0,1.36.57,1.36,1.26s-.61,1.26-1.36,1.26Z"/>
        <path class="cls-5" d="m205.84,174.78h-65.44c-.75,0-1.36-.57-1.36-1.26s.61-1.26,1.36-1.26h65.44c.75,0,1.36.57,1.36,1.26s-.62,1.26-1.36,1.26Z"/>
        <path class="cls-5" d="m205.84,184.9h-65.44c-.75,0-1.36-.57-1.36-1.26s.61-1.26,1.36-1.26h65.44c.75,0,1.36.57,1.36,1.26s-.62,1.26-1.36,1.26Z"/>
        <path class="cls-5" d="m205.84,195.03h-65.44c-.75,0-1.36-.57-1.36-1.26s.61-1.26,1.36-1.26h65.44c.75,0,1.36.57,1.36,1.26s-.62,1.26-1.36,1.26Z"/>
        <path class="cls-5" d="m140.14,81.08c1.24,0,2.27.94,2.27,2.1s-1.01,2.1-2.27,2.1-2.27-.94-2.27-2.1,1.01-2.1,2.27-2.1Zm0-2.53c-2.75,0-4.99,2.08-4.99,4.63s2.24,4.63,4.99,4.63,4.99-2.08,4.99-4.63-2.24-4.63-4.99-4.63Z"/>
        <path class="cls-5" d="m156.5,81.08c1.24,0,2.27.94,2.27,2.1s-1.01,2.1-2.27,2.1-2.27-.94-2.27-2.1,1.01-2.1,2.27-2.1Zm0-2.53c-2.75,0-4.99,2.08-4.99,4.63s2.24,4.63,4.99,4.63,4.99-2.08,4.99-4.63-2.24-4.63-4.99-4.63Z"/>
        <path class="cls-5" d="m172.86,81.08c1.25,0,2.27.94,2.27,2.1s-1.01,2.1-2.27,2.1-2.27-.94-2.27-2.1,1.01-2.1,2.27-2.1Zm0-2.53c-2.75,0-4.99,2.08-4.99,4.63s2.24,4.63,4.99,4.63,4.99-2.08,4.99-4.63-2.24-4.63-4.99-4.63Z"/>
        <path class="cls-5" d="m260.12,81.08c1.24,0,2.27.94,2.27,2.1s-1.01,2.1-2.27,2.1-2.27-.94-2.27-2.1,1.01-2.1,2.27-2.1Zm0-2.53c-2.75,0-4.99,2.08-4.99,4.63s2.24,4.63,4.99,4.63,4.99-2.08,4.99-4.63-2.24-4.63-4.99-4.63Z"/>
        <path class="cls-7" d="m256.54,60.75H114.61v135.79h141.94V60.75Z"/>
        <path class="cls-5" d="m255.81,61.43v134.43H115.34V61.43h140.48Zm1.46-1.36H113.87v137.15h143.4V60.07Z"/>
        <path class="cls-5" d="m255.29,62.01v134.61H117.33V62.01h137.97m2.72-2.53H114.59v139.67h143.43V59.49Z"/>
        <path class="cls-5" d="m255.84,80.24H116.51c-.75,0-1.36-.57-1.36-1.26s.61-1.26,1.36-1.26h139.34c.75,0,1.36.57,1.36,1.26s-.62,1.26-1.36,1.26Z"/>
        <path class="cls-5" d="m165.05,125.78h-39.82c-.75,0-1.36-.57-1.36-1.26v-36.95c0-.69.61-1.26,1.36-1.26h39.82c.75,0,1.36.57,1.36,1.26v36.95c0,.69-.61,1.26-1.36,1.26Zm-38.44-2.53h37.08v-34.41h-37.08v34.41Z"/>
        <path class="cls-5" d="m241.93,184.48h-39.82c-.75,0-1.36-.57-1.36-1.26v-26.32c0-.69.61-1.26,1.36-1.26h39.82c.75,0,1.36.57,1.36,1.26v26.32c0,.69-.61,1.26-1.36,1.26Zm-38.44-2.53h37.08v-23.79h-37.08v23.79Z"/>
        <path class="cls-5" d="m241.93,148.05h-116.7c-.75,0-1.36-.57-1.36-1.26v-11.89c0-.69.61-1.26,1.36-1.26h116.71c.75,0,1.36.57,1.36,1.26v11.89c0,.69-.62,1.26-1.36,1.26h-.02Zm-115.34-2.52h113.98v-9.36h-113.98v9.36Z"/>
        <path class="cls-5" d="m241.93,90.35h-65.44c-.75,0-1.36-.57-1.36-1.26s.62-1.26,1.36-1.26h65.44c.75,0,1.36.57,1.36,1.26s-.61,1.26-1.36,1.26Z"/>
        <path class="cls-5" d="m241.93,100.48h-65.44c-.75,0-1.36-.57-1.36-1.26s.62-1.26,1.36-1.26h65.44c.75,0,1.36.57,1.36,1.26s-.61,1.26-1.36,1.26Z"/>
        <path class="cls-5" d="m241.93,110.6h-65.44c-.75,0-1.36-.57-1.36-1.26s.62-1.26,1.36-1.26h65.44c.75,0,1.36.57,1.36,1.26s-.61,1.26-1.36,1.26Z"/>
        <path class="cls-5" d="m241.93,120.73h-65.44c-.75,0-1.36-.57-1.36-1.26s.62-1.26,1.36-1.26h65.44c.75,0,1.36.57,1.36,1.26s-.61,1.26-1.36,1.26Z"/>
        <path class="cls-5" d="m191.21,161.21h-65.44c-.75,0-1.36-.57-1.36-1.26s.61-1.26,1.36-1.26h65.44c.75,0,1.36.57,1.36,1.26s-.62,1.26-1.36,1.26Z"/>
        <path class="cls-5" d="m191.21,171.32h-65.44c-.75,0-1.36-.57-1.36-1.26s.61-1.26,1.36-1.26h65.44c.75,0,1.36.57,1.36,1.26s-.62,1.26-1.36,1.26Z"/>
        <path class="cls-5" d="m191.21,181.45h-65.44c-.75,0-1.36-.57-1.36-1.26s.61-1.26,1.36-1.26h65.44c.75,0,1.36.57,1.36,1.26s-.62,1.26-1.36,1.26Z"/>
        <path class="cls-5" d="m125.51,67.5c1.24,0,2.27.94,2.27,2.1s-1.01,2.1-2.27,2.1-2.27-.94-2.27-2.1,1.01-2.1,2.27-2.1Zm0-2.53c-2.75,0-4.99,2.08-4.99,4.63s2.24,4.63,4.99,4.63,4.99-2.08,4.99-4.63-2.24-4.63-4.99-4.63Z"/>
        <path class="cls-5" d="m141.87,67.5c1.24,0,2.27.94,2.27,2.1s-1.01,2.1-2.27,2.1-2.27-.94-2.27-2.1,1.01-2.1,2.27-2.1Zm0-2.53c-2.75,0-4.99,2.08-4.99,4.63s2.24,4.63,4.99,4.63,4.99-2.08,4.99-4.63-2.24-4.63-4.99-4.63Z"/>
        <path class="cls-5" d="m158.23,67.5c1.25,0,2.27.94,2.27,2.1s-1.01,2.1-2.27,2.1-2.27-.94-2.27-2.1,1.01-2.1,2.27-2.1Zm0-2.53c-2.75,0-4.99,2.08-4.99,4.63s2.24,4.63,4.99,4.63,4.99-2.08,4.99-4.63-2.24-4.63-4.99-4.63Z"/>
        <path class="cls-5" d="m245.48,67.5c1.24,0,2.27.94,2.27,2.1s-1.01,2.1-2.27,2.1-2.27-.94-2.27-2.1,1.01-2.1,2.27-2.1Zm0-2.53c-2.75,0-4.99,2.08-4.99,4.63s2.24,4.63,4.99,4.63,4.99-2.08,4.99-4.63-2.24-4.63-4.99-4.63Z"/>
        <path class="cls-6" d="m241.91,47.17H99.97v135.79h141.94V47.17Z"/>
        <path class="cls-5" d="m241.18,47.85v134.43H100.7V47.85h140.48Zm1.46-1.36H99.24v137.15h143.4V46.49Z"/>
        <path class="cls-5" d="m240.65,48.43v134.61H102.69V48.43h137.97m2.72-2.53H99.96v139.67h143.43V45.91Z"/>
        <path class="cls-5" d="m241.21,66.66H101.87c-.75,0-1.36-.57-1.36-1.26s.61-1.26,1.36-1.26h139.34c.75,0,1.36.57,1.36,1.26s-.62,1.26-1.36,1.26Z"/>
        <path class="cls-5" d="m150.41,112.2h-39.82c-.75,0-1.36-.57-1.36-1.26v-36.95c0-.69.61-1.26,1.36-1.26h39.82c.75,0,1.36.57,1.36,1.26v36.95c0,.69-.61,1.26-1.36,1.26Zm-38.44-2.52h37.08v-34.41h-37.1v34.41h.01Z"/>
        <path class="cls-5" d="m227.29,170.9h-39.82c-.75,0-1.36-.57-1.36-1.26v-26.32c0-.69.62-1.26,1.36-1.26h39.82c.75,0,1.36.57,1.36,1.26v26.32c0,.69-.61,1.26-1.36,1.26Zm-38.44-2.53h37.08v-23.79h-37.08v23.79Z"/>
        <path class="cls-5" d="m227.29,134.47h-116.7c-.75,0-1.36-.57-1.36-1.26v-11.9c0-.69.61-1.26,1.36-1.26h116.71c.75,0,1.36.57,1.36,1.26v11.9c0,.69-.61,1.26-1.36,1.26h-.02Zm-115.34-2.53h113.98v-9.36h-113.98v9.36Z"/>
        <path class="cls-5" d="m227.29,76.77h-65.44c-.75,0-1.36-.57-1.36-1.26s.62-1.26,1.36-1.26h65.44c.75,0,1.36.57,1.36,1.26s-.61,1.26-1.36,1.26Z"/>
        <path class="cls-5" d="m227.29,86.9h-65.44c-.75,0-1.36-.57-1.36-1.26s.62-1.26,1.36-1.26h65.44c.75,0,1.36.57,1.36,1.26s-.61,1.26-1.36,1.26Z"/>
        <path class="cls-5" d="m227.29,97.02h-65.44c-.75,0-1.36-.57-1.36-1.26s.62-1.26,1.36-1.26h65.44c.75,0,1.36.57,1.36,1.26s-.61,1.26-1.36,1.26Z"/>
        <path class="cls-5" d="m227.29,107.15h-65.44c-.75,0-1.36-.57-1.36-1.26s.62-1.26,1.36-1.26h65.44c.75,0,1.36.57,1.36,1.26s-.61,1.26-1.36,1.26Z"/>
        <path class="cls-5" d="m176.58,147.63h-65.44c-.75,0-1.36-.57-1.36-1.26s.61-1.26,1.36-1.26h65.44c.75,0,1.36.57,1.36,1.26s-.62,1.26-1.36,1.26Z"/>
        <path class="cls-5" d="m176.58,157.74h-65.44c-.75,0-1.36-.57-1.36-1.26s.61-1.26,1.36-1.26h65.44c.75,0,1.36.57,1.36,1.26s-.62,1.26-1.36,1.26Z"/>
        <path class="cls-5" d="m176.58,167.87h-65.44c-.75,0-1.36-.57-1.36-1.26s.61-1.26,1.36-1.26h65.44c.75,0,1.36.57,1.36,1.26s-.62,1.26-1.36,1.26Z"/>
        <path class="cls-5" d="m110.87,53.92c1.24,0,2.27.94,2.27,2.1s-1.01,2.1-2.27,2.1-2.27-.94-2.27-2.1,1.01-2.1,2.27-2.1Zm0-2.53c-2.75,0-4.99,2.08-4.99,4.63s2.24,4.63,4.99,4.63,4.99-2.08,4.99-4.63-2.24-4.63-4.99-4.63Z"/>
        <path class="cls-5" d="m127.23,53.92c1.25,0,2.27.94,2.27,2.1s-1.01,2.1-2.27,2.1-2.27-.94-2.27-2.1,1.01-2.1,2.27-2.1Zm0-2.53c-2.75,0-4.99,2.08-4.99,4.63s2.24,4.63,4.99,4.63,4.99-2.08,4.99-4.63-2.24-4.63-4.99-4.63Z"/>
        <path class="cls-5" d="m143.59,53.92c1.25,0,2.27.94,2.27,2.1s-1.01,2.1-2.27,2.1-2.27-.94-2.27-2.1,1.01-2.1,2.27-2.1Zm0-2.53c-2.75,0-4.99,2.08-4.99,4.63s2.24,4.63,4.99,4.63,4.99-2.08,4.99-4.63-2.24-4.63-4.99-4.63Z"/>
        <path class="cls-5" d="m230.85,53.92c1.24,0,2.27.94,2.27,2.1s-1.01,2.1-2.27,2.1-2.27-.94-2.27-2.1,1.01-2.1,2.27-2.1Zm0-2.53c-2.75,0-4.99,2.08-4.99,4.63s2.24,4.63,4.99,4.63,4.99-2.08,4.99-4.63-2.24-4.63-4.99-4.63Z"/>
      </g>
    </g>
    <text class="cls-9" transform="translate(85.29 267.94)"><tspan x="0" y="0">ENTER</tspan><tspan class="cls-1" x="115.6" y="0">P</tspan><tspan class="cls-11" x="139.42" y="0">RISE</tspan><tspan x="9.39" y="34.8">SO</tspan><tspan class="cls-15" x="58.29" y="34.8">F</tspan><tspan class="cls-14" x="79.54" y="34.8">T</tspan><tspan class="cls-13" x="99.51" y="34.8">W</tspan><tspan x="136.63" y="34.8">ARE</tspan></text>
  </g>
</svg>