<?xml version="1.0" encoding="UTF-8"?>
<svg id="Layer_2" data-name="Layer 2" xmlns="http://www.w3.org/2000/svg" viewBox="0 0 381.31 346.91">
  <defs>
    <style>
      .cls-1, .cls-2 {
        letter-spacing: -.04em;
      }

      .cls-3 {
        letter-spacing: -.08em;
      }

      .cls-2, .cls-4, .cls-5, .cls-6, .cls-7, .cls-8, .cls-9 {
        font-family: Montserrat-Bold, Montserrat;
        font-weight: 700;
      }

      .cls-4, .cls-10 {
        letter-spacing: -.04em;
      }

      .cls-11 {
        letter-spacing: -.04em;
      }

      .cls-12 {
        letter-spacing: -.06em;
      }

      .cls-13 {
        letter-spacing: -.12em;
      }

      .cls-14 {
        letter-spacing: -.06em;
      }

      .cls-14, .cls-15, .cls-10 {
        font-family: Montserrat-Italic, Montserrat;
        font-style: italic;
      }

      .cls-16 {
        letter-spacing: -.05em;
      }

      .cls-5 {
        letter-spacing: -.04em;
      }

      .cls-6 {
        letter-spacing: -.03em;
      }

      .cls-17 {
        letter-spacing: -.05em;
      }

      .cls-7 {
        letter-spacing: -.04em;
      }

      .cls-18, .cls-9 {
        letter-spacing: -.05em;
      }

      .cls-19 {
        font-size: 32px;
      }

      .cls-19, .cls-20 {
        fill: #fff;
      }

      .cls-21 {
        fill: #0b1a30;
        stroke: #fff;
        stroke-width: 3px;
      }

      .cls-15 {
        letter-spacing: -.07em;
      }

      .cls-22 {
        letter-spacing: -.05em;
      }

      .cls-23 {
        letter-spacing: -.05em;
      }

      .cls-24, .cls-25, .cls-20 {
        stroke-width: 0px;
      }

      .cls-25 {
        fill: #ffdc5c;
      }
    </style>
  </defs>
  <g id="Layer_1-2" data-name="Layer 1">
    <path class="cls-21" d="m302.48,321.2c-4.18,7.13-10.05,12.98-16.89,17.13l-.08-.02-.94.54c-7.56,4.36-16.22,6.68-25.19,6.56h0l-139.67-1.74c-17.65-.27-34.04-10.01-42.73-25.46h0S7.94,195.91,7.94,195.91c-8.7-15.45-8.57-34.51.3-49.71,0,0,0,0,0,0L78.93,25.77h0C87.85,10.54,104.34,1.24,121.98,1.51h0l139.65,1.83h0c17.61.21,33.99,9.95,42.69,25.4h0s69.04,122.29,69.04,122.29c8.7,15.45,8.57,34.51-.3,49.71l-70.6,120.46Z"/>
    <text class="cls-19" transform="translate(90.56 268.94)"><tspan class="cls-6" x="0" y="0">Q</tspan><tspan class="cls-2" x="26.03" y="0">A </tspan><tspan class="cls-15" x="57.04" y="0">a</tspan><tspan class="cls-14" x="76.53" y="0">n</tspan><tspan class="cls-10" x="96.24" y="0">d</tspan><tspan class="cls-2" x="116.65" y="0"> </tspan><tspan class="cls-9" x="124.43" y="0">T</tspan><tspan class="cls-7" x="142.56" y="0">E</tspan><tspan class="cls-5" x="162.8" y="0">S</tspan><tspan class="cls-4" x="181.99" y="0">T</tspan><tspan class="cls-8"><tspan class="cls-3" x="-7.87" y="34.8">A</tspan><tspan class="cls-17" x="14.06" y="34.8">U</tspan><tspan class="cls-12" x="37.75" y="34.8">T</tspan><tspan class="cls-23" x="55.58" y="34.8">O</tspan><tspan class="cls-11" x="81.14" y="34.8">M</tspan><tspan class="cls-13" x="110.33" y="34.8">A</tspan><tspan class="cls-18" x="131.04" y="34.8">T</tspan><tspan class="cls-16" x="149.18" y="34.8">I</tspan><tspan class="cls-22" x="158.22" y="34.8">O</tspan><tspan class="cls-1" x="183.78" y="34.8">N</tspan></tspan></text>
    <g>
      <g>
        <path class="cls-25" d="m271.73,83.35c-23.63-24.78-81.07-46.07-81.07-46.07,0,0-57.45,21.29-81.07,46.07,0,0-19.44,98.78,81.07,135.77,100.51-36.99,81.07-135.77,81.07-135.77Z"/>
        <path class="cls-20" d="m190.66,227.67l-2.77-1.02c-55.17-20.3-75.71-58.65-83.22-87.25-8.08-30.75-3.17-56.52-2.96-57.6l.45-2.3,1.62-1.69c24.62-25.83,81.68-47.17,84.09-48.06l2.79-1.03,2.79,1.03c2.42.9,59.47,22.23,84.09,48.06l1.62,1.69.45,2.3c.21,1.08,5.12,26.86-2.96,57.6-7.51,28.6-28.05,66.95-83.22,87.25l-2.77,1.02ZM117.11,87.16c-.89,6.53-2.77,26.37,3.24,48.75,9.41,35.05,33.05,60.15,70.31,74.63,37.26-14.48,60.9-39.57,70.31-74.63,6-22.37,4.13-42.21,3.24-48.75-20.01-19.45-62.3-36.86-73.55-41.28-11.25,4.42-53.53,21.83-73.55,41.28Z"/>
      </g>
      <g>
        <path class="cls-25" d="m271.73,83.35c-23.63-24.78-81.07-46.07-81.07-46.07,0,0-57.45,21.29-81.07,46.07,0,0-19.44,98.78,81.07,135.77,100.51-36.99,81.07-135.77,81.07-135.77Z"/>
        <path class="cls-24" d="m190.66,222.84l-1.21-.44c-23.5-8.65-42.51-21.37-56.52-37.83-11.24-13.2-19.27-28.78-23.88-46.31-7.82-29.75-3.1-54.53-2.89-55.57l.2-1,.7-.74c23.91-25.08,80.01-46.06,82.39-46.94l1.21-.45,1.21.45c2.38.88,58.48,21.86,82.39,46.94l.7.74.2,1c.2,1.04,4.92,25.82-2.89,55.57-4.61,17.53-12.64,33.11-23.88,46.31-14.01,16.46-33.03,29.18-56.52,37.83l-1.21.44ZM112.84,85c-.76,4.81-3.61,26.7,3.03,51.73,4.37,16.46,11.93,31.07,22.48,43.43,12.97,15.19,30.56,27.04,52.3,35.23,21.8-8.21,39.43-20.11,52.41-35.36,10.55-12.39,18.1-27.05,22.44-43.56,6.57-25,3.73-46.68,2.96-51.47-21.32-21.64-69.55-40.81-77.82-43.99-8.27,3.19-56.5,22.35-77.82,43.99Z"/>
      </g>
      <polygon class="cls-24" points="179.5 176.02 137.19 133.72 153.82 117.09 179.5 142.76 235.41 86.85 252.04 103.48 179.5 176.02"/>
    </g>
  </g>
</svg>