<?xml version="1.0" encoding="utf-8"?>
<!-- Generator: Adobe Illustrator 27.8.1, SVG Export Plug-In . SVG Version: 6.00 Build 0)  -->
<svg version="1.1" id="Layer_2_00000078761052023833605320000013081655429990436240_"
	 xmlns="http://www.w3.org/2000/svg" xmlns:xlink="http://www.w3.org/1999/xlink" x="0px" y="0px" viewBox="0 0 381.3 346.9"
	 style="enable-background:new 0 0 381.3 346.9;" xml:space="preserve">
<style type="text/css">
	.st0{fill:#0B1A30;stroke:#FFFFFF;stroke-width:3;}
	.st1{enable-background:new    ;}
	.st2{fill:#FFFFFF;}
	.st3{fill:#FFDC5C;}
</style>
<g id="Layer_1-2">
	<path class="st0" d="M302.5,321.2c-4.2,7.1-10,13-16.9,17.1l-0.1,0l-0.9,0.5c-7.6,4.4-16.2,6.7-25.2,6.6l0,0l-139.7-1.7
		c-17.7-0.3-34-10-42.7-25.5l0,0l-69-122.3c-8.7-15.4-8.6-34.5,0.3-49.7l0,0L78.9,25.8l0,0C87.8,10.5,104.3,1.2,122,1.5l0,0
		l139.6,1.8l0,0c17.6,0.2,34,9.9,42.7,25.4l0,0l69,122.3c8.7,15.4,8.6,34.5-0.3,49.7L302.5,321.2L302.5,321.2z"/>
	<g class="st1">
		<path class="st2" d="M117.4,271.3c-1.5,1.8-3.6,2.8-6,2.8c-3.3,0-5.7-1.2-9.1-4.9c-6.1-0.8-10.5-5.4-10.5-11.5
			c0-6.7,5.2-11.6,12.3-11.6c7,0,12.3,4.9,12.3,11.6c0,5.2-3.2,9.4-8,10.9c1.1,1.2,2,1.6,3.2,1.6c1.4,0,2.6-0.5,3.6-1.7L117.4,271.3
			z M104.1,264.9c4,0,7-2.9,7-7.2s-3-7.2-7-7.2c-4,0-7,2.9-7,7.2S100.1,264.9,104.1,264.9z"/>
	</g>
	<g class="st1">
		<path class="st2" d="M134,264.1h-10.4l-2,4.8h-5.3l10-22.4h5.1l10,22.4H136L134,264.1z M132.4,260.2l-3.6-8.6l-3.6,8.6H132.4z"/>
	</g>
	<g class="st1">
		<path class="st2" d="M167.8,252.1l-3.4,16.8h-2.2l0.5-2.7c-1.6,1.8-3.8,2.8-6.6,2.8c-4.3,0-7.3-2.7-7.3-7.1c0-5.8,4-10,9.5-10
			c3.2,0,5.4,1.3,6.4,3.6l0.7-3.5H167.8z M164,259.2c0-3.3-2-5.2-5.5-5.2c-4.2,0-7.3,3.3-7.3,7.9c0,3.3,2,5.2,5.5,5.2
			C160.9,267.1,164,263.8,164,259.2z"/>
	</g>
	<g class="st1">
		<path class="st2" d="M186.2,257.5c0,0.6-0.1,1.2-0.2,1.9l-1.9,9.6h-2.3l1.9-9.6c0.1-0.5,0.2-1.1,0.2-1.5c0-2.4-1.4-3.8-4.4-3.8
			c-3.6,0-6,2-6.8,5.9l-1.8,9h-2.3l3.3-16.8h2.2l-0.5,2.7c1.6-1.9,3.9-2.8,6.6-2.8C184,252,186.2,254,186.2,257.5z"/>
	</g>
	<g class="st1">
		<path class="st2" d="M208.4,245.2l-4.7,23.7h-2.2l0.5-2.7c-1.6,1.8-3.8,2.8-6.6,2.8c-4.3,0-7.3-2.7-7.3-7.1c0-5.8,4-10,9.5-10
			c3.2,0,5.4,1.3,6.4,3.6l2.1-10.4H208.4z M203.2,259.2c0-3.3-2-5.2-5.5-5.2c-4.2,0-7.3,3.3-7.3,7.9c0,3.3,2,5.2,5.5,5.2
			C200.1,267.1,203.2,263.8,203.2,259.2z"/>
	</g>
	<g class="st1">
		<path class="st2" d="M222.3,250.8h-7.2v-4.2h19.5v4.2h-7.2v18.2h-5.2V250.8z"/>
	</g>
	<g class="st1">
		<path class="st2" d="M253.1,264.8v4.2h-17.3v-22.4h16.9v4.2h-11.8v4.9h10.4v4h-10.4v5.2H253.1z"/>
	</g>
	<g class="st1">
		<path class="st2" d="M254.3,266.7l1.8-3.9c1.9,1.4,4.7,2.3,7.4,2.3c3.1,0,4.3-1,4.3-2.4c0-4.2-13-1.3-13-9.6c0-3.8,3.1-7,9.4-7
			c2.8,0,5.7,0.7,7.8,2l-1.6,3.9c-2.1-1.2-4.2-1.8-6.2-1.8c-3.1,0-4.3,1.2-4.3,2.6c0,4.1,13,1.3,13,9.5c0,3.7-3.1,6.9-9.5,6.9
			C259.8,269.3,256.2,268.3,254.3,266.7z"/>
	</g>
	<g class="st1">
		<path class="st2" d="M279.8,250.8h-7.2v-4.2h19.5v4.2H285v18.2h-5.2V250.8z"/>
	</g>
	<g class="st1">
		<path class="st2" d="M100.1,298.9H89.7l-2,4.8h-5.3l10-22.4h5.1l10,22.4h-5.4L100.1,298.9z M98.5,295l-3.6-8.6l-3.6,8.6H98.5z"/>
	</g>
	<g class="st1">
		<path class="st2" d="M107.1,293.9v-12.5h5.2v12.4c0,4.3,1.9,6,5,6c3.2,0,5-1.8,5-6v-12.4h5.1v12.5c0,6.6-3.8,10.2-10.1,10.2
			C110.9,304.1,107.1,300.5,107.1,293.9z"/>
	</g>
	<g class="st1">
		<path class="st2" d="M135.6,285.6h-7.2v-4.2H148v4.2h-7.2v18.2h-5.2V285.6z"/>
	</g>
	<g class="st1">
		<path class="st2" d="M147.4,292.5c0-6.7,5.2-11.6,12.3-11.6c7,0,12.3,4.9,12.3,11.6s-5.2,11.6-12.3,11.6
			C152.6,304.1,147.4,299.2,147.4,292.5z M166.7,292.5c0-4.3-3-7.2-7-7.2c-4,0-7,2.9-7,7.2s3,7.2,7,7.2
			C163.6,299.7,166.7,296.8,166.7,292.5z"/>
	</g>
	<g class="st1">
		<path class="st2" d="M194.7,303.7l0-13.4l-6.6,11.1h-2.3l-6.6-10.8v13.2h-4.9v-22.4h4.3l8.4,13.9l8.3-13.9h4.3l0.1,22.4H194.7z"/>
	</g>
	<g class="st1">
		<path class="st2" d="M218.3,298.9h-10.4l-2,4.8h-5.3l10-22.4h5.1l10,22.4h-5.4L218.3,298.9z M216.7,295l-3.6-8.6l-3.6,8.6H216.7z"
			/>
	</g>
	<g class="st1">
		<path class="st2" d="M228.9,285.6h-7.2v-4.2h19.5v4.2h-7.2v18.2h-5.2V285.6z"/>
	</g>
	<g class="st1">
		<path class="st2" d="M242.4,281.3h5.2v22.4h-5.2V281.3z"/>
	</g>
	<g class="st1">
		<path class="st2" d="M250,292.5c0-6.7,5.2-11.6,12.3-11.6c7,0,12.3,4.9,12.3,11.6s-5.2,11.6-12.3,11.6
			C255.2,304.1,250,299.2,250,292.5z M269.3,292.5c0-4.3-3-7.2-7-7.2s-7,2.9-7,7.2s3,7.2,7,7.2S269.3,296.8,269.3,292.5z"/>
	</g>
	<g class="st1">
		<path class="st2" d="M297.5,281.3v22.4h-4.3l-11.2-13.6v13.6H277v-22.4h4.3l11.1,13.6v-13.6H297.5z"/>
	</g>
	<g>
		<g>
			<path class="st3" d="M271.7,83.3c-23.6-24.8-81.1-46.1-81.1-46.1s-57.4,21.3-81.1,46.1c0,0-19.4,98.8,81.1,135.8
				C291.2,182.1,271.7,83.3,271.7,83.3z"/>
			<path class="st2" d="M190.7,227.7l-2.8-1c-55.2-20.3-75.7-58.6-83.2-87.2c-8.1-30.8-3.2-56.5-3-57.6l0.4-2.3l1.6-1.7
				c24.6-25.8,81.7-47.2,84.1-48.1l2.8-1l2.8,1c2.4,0.9,59.5,22.2,84.1,48.1l1.6,1.7l0.5,2.3c0.2,1.1,5.1,26.9-3,57.6
				c-7.5,28.6-28.1,66.9-83.2,87.2L190.7,227.7L190.7,227.7z M117.1,87.2c-0.9,6.5-2.8,26.4,3.2,48.8c9.4,35.1,33,60.1,70.3,74.6
				c37.3-14.5,60.9-39.6,70.3-74.6c6-22.4,4.1-42.2,3.2-48.8c-20-19.4-62.3-36.9-73.6-41.3C179.4,50.3,137.1,67.7,117.1,87.2
				L117.1,87.2z"/>
		</g>
		<g>
			<path class="st3" d="M271.7,83.3c-23.6-24.8-81.1-46.1-81.1-46.1s-57.4,21.3-81.1,46.1c0,0-19.4,98.8,81.1,135.8
				C291.2,182.1,271.7,83.3,271.7,83.3z"/>
			<path d="M190.7,222.8l-1.2-0.4c-23.5-8.6-42.5-21.4-56.5-37.8c-11.2-13.2-19.3-28.8-23.9-46.3c-7.8-29.8-3.1-54.5-2.9-55.6l0.2-1
				l0.7-0.7c23.9-25.1,80-46.1,82.4-46.9l1.2-0.5l1.2,0.5c2.4,0.9,58.5,21.9,82.4,46.9l0.7,0.7l0.2,1c0.2,1,4.9,25.8-2.9,55.6
				c-4.6,17.5-12.6,33.1-23.9,46.3c-14,16.5-33,29.2-56.5,37.8L190.7,222.8z M112.8,85c-0.8,4.8-3.6,26.7,3,51.7
				c4.4,16.5,11.9,31.1,22.5,43.4c13,15.2,30.6,27,52.3,35.2c21.8-8.2,39.4-20.1,52.4-35.4c10.6-12.4,18.1-27.1,22.4-43.6
				c6.6-25,3.7-46.7,3-51.5c-21.3-21.6-69.6-40.8-77.8-44C182.4,44.2,134.1,63.4,112.8,85L112.8,85z"/>
		</g>
		<polygon points="179.5,176 137.2,133.7 153.8,117.1 179.5,142.8 235.4,86.8 252,103.5 		"/>
	</g>
</g>
</svg>
