<?xml version="1.0" encoding="utf-8"?>
<!-- Generator: Adobe Illustrator 27.8.1, SVG Export Plug-In . SVG Version: 6.00 Build 0)  -->
<svg version="1.1" id="Layer_2_00000140720323215669043720000014359390084138825605_"
	 xmlns="http://www.w3.org/2000/svg" xmlns:xlink="http://www.w3.org/1999/xlink" x="0px" y="0px" viewBox="0 0 381.3 346.9"
	 style="enable-background:new 0 0 381.3 346.9;" xml:space="preserve">
<style type="text/css">
	.st0{fill:#0B1A30;stroke:#FFFFFF;stroke-width:3;}
	.st1{enable-background:new    ;}
	.st2{fill:#FFFFFF;}
	.st3{fill:#FFDC5C;}
</style>
<g id="Layer_1-2">
	<path class="st0" d="M302.5,321.2c-4.2,7.1-10,13-16.9,17.1l-0.1,0l-0.9,0.5c-7.6,4.4-16.2,6.7-25.2,6.6l0,0l-139.7-1.7
		c-17.7-0.3-34-10-42.7-25.5l0,0l-69-122.3c-8.7-15.4-8.6-34.5,0.3-49.7l0,0L78.9,25.8l0,0C87.8,10.5,104.3,1.2,122,1.5l0,0
		l139.6,1.8l0,0c17.6,0.2,34,9.9,42.7,25.4l0,0l69,122.3c8.7,15.4,8.6,34.5-0.3,49.7L302.5,321.2L302.5,321.2z"/>
	<g class="st1">
		<path class="st2" d="M77.3,265.7l1.8-4c1.9,1.4,4.9,2.4,7.6,2.4c3.2,0,4.5-1.1,4.5-2.5c0-4.3-13.4-1.4-13.4-9.9
			c0-3.9,3.2-7.2,9.7-7.2c2.9,0,5.9,0.7,8,2l-1.6,4.1c-2.1-1.2-4.4-1.8-6.4-1.8c-3.2,0-4.4,1.2-4.4,2.6c0,4.3,13.4,1.3,13.4,9.8
			c0,3.9-3.2,7.2-9.8,7.2C83,268.3,79.3,267.2,77.3,265.7z"/>
		<path class="st2" d="M118,263.6v4.3h-17.9v-23.1h17.5v4.3h-12.1v5h10.7v4.2h-10.7v5.3H118z"/>
		<path class="st2" d="M137,267.9l-4.5-6.4h-0.3h-4.7v6.4h-5.3v-23.1h10c6.2,0,10,3.2,10,8.4c0,3.5-1.7,6-4.8,7.3l5.2,7.4H137z
			 M132,249.2h-4.4v8.1h4.4c3.3,0,4.9-1.5,4.9-4C136.9,250.7,135.3,249.2,132,249.2z"/>
	</g>
	<g class="st1">
		<path class="st2" d="M168.8,244.8l-10,23.1h-5.3l-10-23.1h5.8l7,16.5l7.1-16.5H168.8z"/>
	</g>
	<g class="st1">
		<path class="st2" d="M188.6,263.6v4.3h-17.9v-23.1h17.5v4.3H176v5h10.7v4.2H176v5.3H188.6z"/>
		<path class="st2" d="M207.5,267.9l-4.5-6.4h-0.3h-4.7v6.4h-5.3v-23.1h10c6.2,0,10,3.2,10,8.4c0,3.5-1.7,6-4.8,7.3l5.2,7.4H207.5z
			 M202.5,249.2h-4.4v8.1h4.4c3.3,0,4.9-1.5,4.9-4C207.4,250.7,205.8,249.2,202.5,249.2z"/>
		<path class="st2" d="M224.6,265.7l1.8-4c1.9,1.4,4.9,2.4,7.6,2.4c3.2,0,4.5-1.1,4.5-2.5c0-4.3-13.4-1.4-13.4-9.9
			c0-3.9,3.2-7.2,9.7-7.2c2.9,0,5.9,0.7,8,2l-1.7,4.1c-2.1-1.2-4.4-1.8-6.4-1.8c-3.2,0-4.4,1.2-4.4,2.6c0,4.3,13.4,1.3,13.4,9.8
			c0,3.9-3.2,7.2-9.8,7.2C230.3,268.3,226.6,267.2,224.6,265.7z"/>
		<path class="st2" d="M247.5,244.8h5.3v23.1h-5.3V244.8z"/>
		<path class="st2" d="M258.3,244.8h10.5c7.6,0,12.7,4.6,12.7,11.6s-5.2,11.6-12.7,11.6h-10.5V244.8z M268.5,263.6
			c4.6,0,7.6-2.7,7.6-7.2s-3-7.2-7.6-7.2h-4.9v14.3H268.5z"/>
		<path class="st2" d="M303.4,263.6v4.3h-17.9v-23.1H303v4.3h-12.1v5h10.7v4.2h-10.7v5.3H303.4z"/>
	</g>
	<g class="st1">
		<path class="st2" d="M93.7,293.7c0-6.1,1.5-11.5,4.1-15.4h4.9c-2.8,5-4,9.9-4,15.4s1.2,10.5,4,15.4h-4.9
			C95.2,305.1,93.7,299.8,93.7,293.7z"/>
		<path class="st2" d="M127,296.4c0,4-3.2,6.3-9.2,6.3h-11.9v-23.1h11.3c5.8,0,8.7,2.4,8.7,6c0,2.3-1.2,4.1-3.1,5.1
			C125.4,291.6,127,293.5,127,296.4z M111.1,283.7v5.4h5.3c2.6,0,4-0.9,4-2.7s-1.4-2.7-4-2.7H111.1z M121.6,295.9
			c0-1.9-1.5-2.9-4.3-2.9h-6.2v5.7h6.2C120.2,298.7,121.6,297.9,121.6,295.9z"/>
	</g>
	<g class="st1">
		<path class="st2" d="M146.3,297.8h-10.7l-2,5H128l10.3-23.1h5.3l10.3,23.1h-5.6L146.3,297.8z M144.6,293.7l-3.7-8.8l-3.7,8.8
			H144.6z"/>
	</g>
	<g class="st1">
		<path class="st2" d="M154.6,291.2c0-7,5.3-11.9,12.5-11.9c4,0,7.3,1.5,9.5,4.1l-3.4,3.2c-1.6-1.8-3.5-2.7-5.8-2.7
			c-4.3,0-7.4,3-7.4,7.4s3.1,7.4,7.4,7.4c2.3,0,4.3-0.9,5.8-2.7l3.4,3.2c-2.2,2.7-5.5,4.1-9.5,4.1
			C159.9,303.1,154.6,298.2,154.6,291.2z"/>
		<path class="st2" d="M188.6,293.7l-3.1,3.2v5.8h-5.3v-23.1h5.3v10.8l10.2-10.8h5.9l-9.6,10.3l10.1,12.8H196L188.6,293.7z"/>
		<path class="st2" d="M222.5,298.4v4.3h-17.9v-23.1h17.5v4.3h-12.1v5h10.7v4.2h-10.7v5.3H222.5z"/>
		<path class="st2" d="M248,279.6v23.1h-4.4l-11.5-14v14h-5.3v-23.1h4.4l11.5,14v-14H248z"/>
	</g>
	<g class="st1">
		<path class="st2" d="M253.4,279.6h10.5c7.6,0,12.7,4.6,12.7,11.6s-5.2,11.6-12.7,11.6h-10.5V279.6z M263.7,298.4
			c4.6,0,7.6-2.7,7.6-7.2s-3-7.2-7.6-7.2h-4.9v14.3H263.7z"/>
	</g>
	<g class="st1">
		<path class="st2" d="M278.5,309.1c2.8-5,4-9.9,4-15.4s-1.2-10.5-4-15.4h4.9c2.7,3.9,4.2,9.4,4.2,15.4c0,6.1-1.5,11.5-4.2,15.4
			H278.5z"/>
	</g>
	<g id="G1EEFV">
		<g>
			<path d="M182.5,210.5L182.5,210.5c-0.4,0-0.7-0.1-1-0.1c-0.6-0.1-1.2-0.2-1.8-0.2c-16.1-0.8-29.3-3.1-41.5-7.1
				c-6.6-2.2-14.1-5.2-20.5-10.9c-4.5-4.1-6.7-8.7-6.7-14.3c0.1-38.9,0.1-74.5,0-108.8c0-5.5,2-10.2,6.2-14.2
				c5.8-5.6,12.9-8.7,18.5-10.7c10.6-3.9,22.5-6.3,37.5-7.5c1.9-0.2,3.7-0.3,5.6-0.5l2.6-0.2h18.2c0,0,2.5,0.2,3.7,0.3
				c2.7,0.2,5.3,0.5,8,0.7c13.1,1.2,24.3,3.5,34.3,7.2c5.6,2,12.7,5.1,18.4,10.9c4,4,6,8.5,6,13.8c-0.1,37-0.1,73.6,0,108.8
				c0,5.7-2.2,10.4-6.8,14.5c-6.3,5.6-13.8,8.6-20.3,10.8c-10.5,3.5-22.3,5.7-36.1,6.8c-1.8,0.1-3.7,0.3-5.5,0.4l-2.7,0.2
				L182.5,210.5L182.5,210.5z M120.5,161.1c0,5.6,0,11.5,0,17.3c0,2.2,0.7,4.1,2.3,5.8c3.1,3.5,7.2,5.6,10.5,7.1
				c11.9,5.3,25.3,8.2,43.5,9.6c4.6,0.3,9.3,0.5,14,0.5c5.9,0,11.8-0.3,17.7-0.8c14.3-1.3,25.7-3.7,35.9-7.6c5.5-2.1,9.4-4.3,12.6-7
				c2.8-2.4,4-4.9,3.9-8.1c-0.1-5.1-0.1-10.4-0.1-15.4c0-1.8,0-3.6,0-5.3c-4.3,3.3-9.4,5.9-15.9,8.2c-11.8,4.2-24.6,6.5-40.4,7.4
				c-4.9,0.3-9.8,0.4-14.4,0.4c-10.4,0-20.5-0.7-29.9-2.1c-8.5-1.3-19.6-3.4-29.9-8.3c-2.9-1.4-5.6-3-8.3-4.6
				c-0.5-0.3-0.9-0.6-1.4-0.9C120.5,158.5,120.5,159.8,120.5,161.1L120.5,161.1z M120.5,119.6c0,1.3,0,2.7,0,4
				c0,5.7,0.1,11.1-0.1,16.6c-0.1,3.4,1.2,6.1,4,8.1c3.1,2.3,5.9,4,8.7,5.3c8.1,3.9,17.6,6.4,29.7,8.2c9.3,1.3,18.7,2,27.9,2l0,0
				c9.8,0,19.6-0.8,29.3-2.3c11.3-1.8,20.2-4.3,28.1-7.9c3-1.4,6.9-3.4,9.9-6.6c1.9-1.9,2.7-4,2.6-6.4c-0.1-2.8,0-5.6,0-8.3
				c0-1.3,0-2.6,0-3.8c0-2.8,0-5.5,0-8.2v-0.8c-0.4,0.3-0.9,0.5-1.3,0.8c-2.5,1.6-5.1,3.2-7.9,4.5c-6.7,3.2-17.1,7.2-37.4,9.5
				c-7.4,0.8-15.2,1.2-23.1,1.2c-5.1,0-10.5-0.2-15.8-0.5c-12-0.8-22.4-2.5-31.8-5.1c-9.7-2.7-16.7-5.8-22.6-10.1
				C120.8,119.8,120.7,119.7,120.5,119.6L120.5,119.6z M120.5,82.2c0,1.7,0,3.3,0,5c0,5.3,0.1,10.7,0,16.1c0,2.7,0.9,4.8,2.9,6.8
				c2.5,2.5,5.6,4.4,10,6.5c8.2,3.7,17.5,6.2,29,7.9c9.5,1.4,19.1,2.1,28.4,2.1c10,0,20.1-0.8,30-2.4c10.8-1.7,19.4-4.1,27.1-7.6
				c3.6-1.6,7.7-3.7,10.8-7.2c1.5-1.7,2.2-3.3,2.2-5c0-5.5,0-11.1,0-16.6v-5.5c-8,5.9-17.1,8.9-24.2,10.8
				c-10.9,2.9-23.1,4.6-37.2,5.1c-3.3,0.1-6.5,0.2-9.5,0.2c-16.4,0-30.9-1.7-44.2-5c-10.5-2.7-18.5-6.2-25-11
				C120.6,82.3,120.5,82.2,120.5,82.2L120.5,82.2z M190.6,45.2c-1.8,0.1-3.6,0.2-5.5,0.3c-4,0.2-8.1,0.4-12.1,0.7
				c-12.4,1-23.3,3.2-33.3,6.6c-5.9,2-10.2,4.2-13.8,6.8c-1.1,0.8-2,1.6-2.7,2.3c-1.8,1.8-2.7,3.6-2.6,5.5c0,1.8,1,3.7,3,5.5
				c3.1,2.9,7.1,5.3,12.7,7.5c11.3,4.5,24.1,7.1,40.3,8.2c4.8,0.3,9.6,0.5,14.4,0.5c7.9,0,15.9-0.5,23.6-1.4
				c12.2-1.5,21.9-3.8,30.6-7.3c3.9-1.6,8.8-3.8,12.8-7.6c1.9-1.8,2.8-3.6,2.9-5.4c0-1.8-0.8-3.6-2.6-5.4c-0.8-0.8-1.7-1.6-2.7-2.3
				c-6.2-4.5-13.4-6.9-18.9-8.5C223.1,47.3,208.5,45.4,190.6,45.2L190.6,45.2z"/>
			<path class="st2" d="M199.7,37.6c3.9,0.3,7.8,0.6,11.6,1c11.6,1,23,3.1,33.9,7.1c6.6,2.4,12.8,5.5,17.9,10.5
				c3.5,3.5,5.5,7.5,5.5,12.7c-0.1,36.3-0.1,72.5,0,108.8c0,5.6-2.3,9.9-6.3,13.4c-5.7,5.1-12.6,8.1-19.8,10.5
				c-11.6,3.9-23.6,5.8-35.7,6.7c-2.7,0.2-5.4,0.4-8.1,0.6h-16.1c-0.9-0.1-1.9-0.3-2.8-0.3c-14-0.7-27.7-2.6-41.1-7.1
				c-7.2-2.4-14.2-5.4-19.9-10.6c-3.9-3.5-6.2-7.6-6.2-13.1c0.1-36.3,0.1-72.5,0-108.8c0-5.4,2.1-9.6,5.8-13.2
				c5.1-5,11.4-8,17.9-10.4c12-4.4,24.4-6.4,37.1-7.4c2.7-0.2,5.4-0.4,8.1-0.7L199.7,37.6 M190.9,90.6c7.9,0,15.9-0.5,23.8-1.4
				c10.6-1.3,21-3.4,31-7.4c4.8-1.9,9.5-4.2,13.3-7.9c4.3-4.1,4.5-8.7,0.3-13c-0.9-0.9-1.9-1.8-2.9-2.5c-5.9-4.3-12.5-6.7-19.4-8.7
				c-15.1-4.3-30.6-5.8-46.3-6c-5.9,0.3-11.8,0.5-17.7,1c-11.5,0.9-22.8,2.9-33.7,6.7c-5,1.7-9.9,3.8-14.2,7c-1,0.8-2,1.6-2.9,2.5
				c-4.2,4.3-4,9,0.4,13.1c3.8,3.6,8.4,5.9,13.2,7.8c13.1,5.2,26.8,7.3,40.8,8.3C181.3,90.4,186.1,90.6,190.9,90.6 M190.9,128
				c10.1,0,20.1-0.8,30.2-2.4c9.4-1.5,18.7-3.8,27.4-7.7c4.2-1.9,8.2-4.1,11.3-7.6c1.5-1.7,2.5-3.7,2.5-6c0-7.8,0-15.5,0-23.3
				c0-0.5,0-1.1,0-1.6c-0.3,0-0.4,0-0.5,0.1c-7.5,6.2-16.4,9.6-25.7,12.1c-12.1,3.2-24.4,4.6-36.9,5.1c-3.2,0.1-6.3,0.2-9.5,0.2
				c-14.8,0-29.4-1.3-43.8-5c-8.7-2.2-17.1-5.3-24.5-10.7c-0.8-0.6-1.6-1.2-2.5-1.9c0,0.6-0.1,0.9-0.1,1.2c0,7.6,0.1,15.2,0,22.8
				c-0.1,3.2,1.1,5.7,3.3,7.9c3,3,6.6,5.1,10.5,6.8c9.4,4.2,19.3,6.6,29.4,8C171.8,127.3,181.3,128,190.9,128 M190.9,165.4
				c9.8,0,19.7-0.8,29.5-2.3s19.4-3.9,28.5-8c3.8-1.8,7.5-3.8,10.4-6.9c2-2.1,3.1-4.5,3-7.5c-0.1-4,0-8,0-12.1c0-3.9,0-7.9,0-11.7
				c-3.8,2.2-7.4,4.7-11.3,6.6c-11.7,5.6-24.2,7.9-36.9,9.4c-7.6,0.9-15.2,1.2-22.9,1.2c-5.2,0-10.5-0.2-15.7-0.5
				c-10.6-0.7-21.2-2.2-31.5-5c-7.9-2.2-15.5-5.1-22.2-9.9c-0.9-0.7-1.8-1.4-2.9-2.2c0,8.1,0.1,15.9-0.1,23.7
				c-0.1,4,1.6,7.1,4.6,9.3c2.8,2.1,5.8,4,8.9,5.5c9.6,4.5,19.8,6.8,30.2,8.3C172.1,164.7,181.5,165.4,190.9,165.4 M190.1,171.6
				c-9.9,0-19.8-0.6-29.7-2.1c-10.2-1.5-20.2-3.7-29.5-8.2c-4.1-1.9-7.9-4.5-11.9-6.8c0,7.8,0.1,15.9,0,23.9c0,2.7,0.9,4.9,2.7,6.8
				c3,3.4,6.9,5.6,11,7.4c14,6.2,28.9,8.6,44,9.7c4.7,0.3,9.4,0.5,14.1,0.5c5.9,0,11.9-0.3,17.8-0.8c12.4-1.1,24.6-3.3,36.3-7.7
				c4.7-1.8,9.2-4,13.1-7.3c2.8-2.4,4.5-5.3,4.4-9.3c-0.2-7.2,0-14.5,0-21.8V154c-0.5,0.3-0.7,0.4-0.8,0.5
				c-5.1,4.3-10.9,7.1-17.1,9.3c-12.9,4.6-26.4,6.6-40,7.4C199.6,171.4,194.9,171.6,190.1,171.6 M199.8,34.6h-18.4l-2.6,0.2
				c-1.9,0.2-3.7,0.3-5.6,0.5c-15.1,1.2-27.2,3.6-37.9,7.5c-5.7,2.1-13,5.2-19,11.1c-4.5,4.4-6.7,9.4-6.7,15.3
				c0.1,34.3,0.1,69.9,0,108.8c0,6,2.3,11,7.2,15.4c6.5,5.9,14.3,9,21,11.2c12.2,4,25.9,6.4,41.9,7.2c0.5,0,1.1,0.1,1.7,0.2
				c0.3,0,0.6,0.1,0.9,0.1l0.2,0h16.5l2.6-0.2c1.9-0.1,3.7-0.3,5.6-0.4c13.9-1.1,25.8-3.3,36.4-6.9c6.7-2.2,14.4-5.3,20.9-11.1
				c4.9-4.4,7.3-9.5,7.3-15.7c-0.1-35.1-0.1-71.7,0-108.8c0-5.7-2.1-10.6-6.4-14.9c-6-5.9-13.3-9.1-18.9-11.2
				c-10.1-3.8-21.5-6.2-34.7-7.3c-2.7-0.2-5.4-0.5-8-0.7c-1.2-0.1-2.4-0.2-3.6-0.3L199.8,34.6L199.8,34.6z M190.9,87.6
				c-4.7,0-9.5-0.2-14.3-0.5c-16.1-1.1-28.7-3.7-39.9-8.1c-5.4-2.2-9.2-4.4-12.2-7.2c-1.6-1.5-2.4-3-2.5-4.4c0-1.4,0.7-2.9,2.2-4.4
				c0.7-0.7,1.5-1.4,2.6-2.2c3.5-2.6,7.6-4.6,13.4-6.6c9.9-3.4,20.6-5.5,32.9-6.5c4-0.3,8.1-0.5,12.1-0.7c1.8-0.1,3.6-0.2,5.4-0.3
				c17.7,0.2,32.2,2.1,45.4,5.9c10.4,3,15.3,6,18.5,8.2c1,0.7,1.8,1.4,2.5,2.2c1.5,1.5,2.2,3,2.2,4.4c0,1.4-0.8,2.9-2.4,4.4
				c-3.8,3.6-8.6,5.8-12.3,7.3c-8.6,3.4-18.1,5.7-30.2,7.2C206.7,87.1,198.8,87.6,190.9,87.6L190.9,87.6L190.9,87.6z M190.8,125
				c-9.3,0-18.8-0.7-28.2-2.1c-11.4-1.7-20.5-4.1-28.6-7.8c-4.3-1.9-7.3-3.8-9.6-6.2c-1.7-1.7-2.5-3.5-2.4-5.7
				c0.1-5.4,0.1-10.8,0-16.1c0-0.7,0-1.4,0-2.1c6.3,4.1,13.7,7.2,23.3,9.6c13.4,3.4,28,5.1,44.6,5.1c3.1,0,6.3-0.1,9.6-0.2
				c14.2-0.5,26.5-2.2,37.6-5.2c11-2.9,17.7-6.3,22.3-9.4v2.2c0,5.7,0,11.3,0,16.9c0,1.4-0.6,2.7-1.8,4c-2.9,3.3-6.8,5.3-10.3,6.9
				c-7.6,3.4-16,5.8-26.7,7.5C210.8,124.2,200.8,125,190.8,125L190.8,125L190.8,125z M191.2,137.2c7.9,0,15.7-0.4,23.2-1.3
				c7.5-0.8,13.6-1.8,19.2-3.2c6.9-1.6,13-3.8,18.7-6.4c2.4-1.2,4.7-2.6,7-3.9c0,2.1,0,4.2,0,6.3c0,1.3,0,2.6,0,3.8
				c0,2.7-0.1,5.5,0,8.3c0.1,2-0.6,3.7-2.2,5.3c-2.9,3-6.6,4.9-9.5,6.2c-7.8,3.6-16.6,6-27.8,7.8c-9.6,1.5-19.3,2.2-29.1,2.2
				c-9.1,0-18.5-0.7-27.7-2c-12-1.7-21.3-4.3-29.3-8.1c-2.7-1.3-5.4-3-8.4-5.2c-2.4-1.7-3.4-3.9-3.4-6.8c0.1-5.5,0.1-10.9,0.1-16.7
				c0-0.4,0-0.8,0-1.1c5.7,3.7,12.4,6.6,21.2,9c9.5,2.6,20,4.3,32.1,5.1C180.7,137,186.1,137.2,191.2,137.2L191.2,137.2L191.2,137.2
				z M190.7,199.8c-4.6,0-9.3-0.2-13.9-0.5c-18-1.3-31.3-4.2-43-9.4c-3.1-1.4-7.1-3.4-10-6.7c-1.3-1.5-1.9-2.9-1.9-4.8
				c0.1-5.8,0-11.6,0-17.3c0-0.4,0-0.9,0-1.3c2.4,1.5,4.9,2.9,7.6,4.2c10.6,5,21.8,7.1,30.4,8.4c9.5,1.4,19.7,2.2,30.1,2.2
				c4.7,0,9.6-0.1,14.5-0.4c15.9-0.9,28.9-3.3,40.8-7.5c5.5-1.9,10-4.1,13.9-6.7c0,0.8,0,1.6,0,2.4c0,5.1,0,10.3,0.1,15.4
				c0.1,2.7-0.9,4.8-3.4,6.9c-3.1,2.6-6.8,4.7-12.2,6.8c-10.1,3.9-21.4,6.3-35.5,7.6C202.4,199.5,196.5,199.8,190.7,199.8
				L190.7,199.8L190.7,199.8z"/>
		</g>
	</g>
	<g id="G1EEFV-2">
		<path d="M181.6,37.6c6,0,12.1,0,18.1,0c3.9,0.3,7.8,0.6,11.6,1c11.6,1,23,3.1,33.9,7.1c6.6,2.4,12.8,5.5,17.9,10.5
			c3.5,3.5,5.5,7.5,5.5,12.7c-0.1,36.3-0.1,72.5,0,108.8c0,5.6-2.3,9.9-6.3,13.4c-5.7,5.1-12.6,8.1-19.8,10.5
			c-11.6,3.9-23.6,5.8-35.7,6.7c-2.7,0.2-5.4,0.4-8.1,0.6h-16.1c-0.9-0.1-1.9-0.3-2.8-0.3c-14-0.7-27.7-2.6-41.1-7.1
			c-7.2-2.4-14.2-5.4-19.9-10.6c-3.9-3.5-6.2-7.6-6.2-13.1c0.1-36.3,0.1-72.5,0-108.8c0-5.4,2.1-9.6,5.8-13.2
			c5.1-5,11.4-8,17.9-10.4c12-4.4,24.4-6.4,37.1-7.4C176.2,38,178.9,37.8,181.6,37.6L181.6,37.6z"/>
	</g>
	<path class="st3" d="M190.6,43.7c-5.9,0.3-11.8,0.5-17.7,1c-11.5,0.9-22.8,2.9-33.7,6.7c-5,1.7-9.9,3.8-14.2,7
		c-1,0.8-2,1.6-2.9,2.5c-4.2,4.3-4,9,0.4,13.1c3.8,3.6,8.4,5.9,13.2,7.8c13.1,5.2,26.8,7.3,40.8,8.3c12.8,0.9,25.5,0.6,38.2-0.9
		c10.6-1.3,21-3.4,31-7.4c4.8-1.9,9.5-4.2,13.3-7.9c4.3-4.1,4.5-8.7,0.3-13c-0.9-0.9-1.9-1.8-2.9-2.5c-5.9-4.3-12.5-6.7-19.4-8.7
		C221.8,45.3,206.3,43.9,190.6,43.7L190.6,43.7z"/>
	<path class="st3" d="M119,154.5c0,7.8,0.1,15.9,0,23.9c0,2.7,0.9,4.9,2.7,6.8c3,3.4,6.9,5.6,11,7.4c14,6.2,28.9,8.6,44,9.7
		c10.6,0.8,21.3,0.7,31.9-0.3c12.4-1.1,24.6-3.3,36.3-7.7c4.7-1.8,9.2-4,13.1-7.3c2.8-2.4,4.5-5.3,4.4-9.3c-0.2-7.2,0-14.5,0-21.8
		V154c-0.5,0.3-0.7,0.4-0.8,0.5c-5.1,4.3-10.9,7.1-17.1,9.3c-12.9,4.6-26.4,6.6-40,7.4c-14.7,0.9-29.4,0.5-44.1-1.7
		c-10.2-1.5-20.2-3.7-29.5-8.2C126.7,159.3,122.9,156.8,119,154.5L119,154.5z"/>
	<path class="st3" d="M262.4,117c-3.8,2.2-7.4,4.7-11.3,6.6c-11.7,5.6-24.2,7.9-36.9,9.3c-12.8,1.4-25.7,1.6-38.6,0.7
		c-10.6-0.7-21.2-2.2-31.5-5c-7.9-2.2-15.5-5.1-22.2-9.9c-0.9-0.7-1.8-1.4-2.9-2.2c0,8.1,0.1,15.9-0.1,23.7c-0.1,4,1.6,7.1,4.6,9.3
		c2.8,2.1,5.8,4,8.9,5.5c9.6,4.5,19.8,6.8,30.2,8.3c19.2,2.7,38.5,2.7,57.7-0.3c9.8-1.5,19.4-3.9,28.5-8c3.8-1.8,7.5-3.8,10.4-6.9
		c2-2.1,3.1-4.5,3-7.5c-0.1-4,0-8,0-12.1C262.3,124.7,262.3,120.8,262.4,117L262.4,117z"/>
	<path class="st3" d="M262.3,79.4c-0.3,0-0.4,0-0.5,0.1c-7.5,6.2-16.4,9.6-25.7,12.1c-12.1,3.2-24.4,4.6-36.9,5.1
		c-18,0.6-35.8-0.4-53.3-4.8c-8.7-2.2-17.1-5.3-24.5-10.7c-0.8-0.6-1.6-1.2-2.5-1.9c0,0.6-0.1,0.9-0.1,1.2c0,7.6,0.1,15.2,0,22.8
		c-0.1,3.2,1.1,5.7,3.3,7.9c3,3,6.6,5.1,10.5,6.8c9.4,4.2,19.3,6.6,29.4,8c19.6,2.8,39.2,2.8,58.8-0.3c9.4-1.5,18.7-3.8,27.4-7.7
		c4.2-1.9,8.2-4.1,11.3-7.6c1.5-1.7,2.5-3.7,2.5-6c0-7.8,0-15.5,0-23.3C262.3,80.5,262.3,80,262.3,79.4L262.3,79.4z"/>
</g>
</svg>
