<?xml version="1.0" encoding="UTF-8"?>
<svg id="Layer_2" data-name="Layer 2" xmlns="http://www.w3.org/2000/svg" viewBox="0 0 381.31 346.91">
  <defs>
    <style>
      .cls-1 {
        font-family: Montserrat-Bold, Montserrat;
        font-size: 33px;
        font-weight: 700;
      }

      .cls-1, .cls-2 {
        fill: #fff;
      }

      .cls-3 {
        letter-spacing: 0em;
      }

      .cls-4 {
        fill: #0b1a30;
        stroke: #fff;
        stroke-width: 3px;
      }

      .cls-5 {
        letter-spacing: -.02em;
      }

      .cls-6, .cls-7, .cls-2 {
        stroke-width: 0px;
      }

      .cls-8 {
        letter-spacing: 0em;
      }

      .cls-7 {
        fill: #ffdc5c;
      }
    </style>
  </defs>
  <g id="Layer_1-2" data-name="Layer 1">
    <path class="cls-4" d="m302.48,321.2c-4.18,7.13-10.05,12.98-16.89,17.13l-.08-.02-.94.54c-7.56,4.36-16.22,6.68-25.19,6.56h0l-139.67-1.74c-17.65-.27-34.04-10.01-42.73-25.46h0S7.94,195.91,7.94,195.91c-8.7-15.45-8.57-34.51.3-49.71,0,0,0,0,0,0L78.93,25.77h0C87.85,10.54,104.34,1.24,121.98,1.51h0l139.65,1.83h0c17.61.21,33.99,9.95,42.69,25.4h0s69.04,122.29,69.04,122.29c8.7,15.45,8.57,34.51-.3,49.71l-70.6,120.46Z"/>
    <text class="cls-1" transform="translate(76.36 267.94)"><tspan x="0" y="0">SER</tspan><tspan class="cls-5" x="67.45" y="0">V</tspan><tspan x="91.57" y="0">ER SIDE</tspan><tspan x="14.95" y="34.8">(B</tspan><tspan class="cls-8" x="51.97" y="34.8">A</tspan><tspan x="76.92" y="34.8">CKEN</tspan><tspan class="cls-3" x="174.34" y="34.8">D</tspan><tspan x="201.83" y="34.8">)</tspan></text>
    <g id="G1EEFV">
      <g>
        <path class="cls-6" d="m182.54,210.52h-.09c-.31-.04-.61-.08-.92-.12-.63-.08-1.22-.16-1.8-.19-16.08-.81-29.26-3.08-41.47-7.12-6.57-2.18-14.14-5.17-20.47-10.9-4.5-4.06-6.68-8.73-6.66-14.26.1-38.91.1-74.49-.01-108.78-.02-5.49,2.02-10.15,6.25-14.24,5.81-5.62,12.93-8.69,18.48-10.73,10.61-3.9,22.52-6.27,37.5-7.45,1.85-.15,3.7-.3,5.55-.45l2.65-.21h18.21s2.48.21,3.69.31c2.67.22,5.34.45,8.01.68,13.07,1.15,24.3,3.52,34.31,7.22,5.55,2.05,12.65,5.14,18.41,10.87,4.04,4.02,6,8.54,5.98,13.83-.11,37.04-.11,73.63,0,108.78.02,5.68-2.2,10.43-6.79,14.54-6.27,5.61-13.8,8.6-20.34,10.78-10.49,3.5-22.3,5.72-36.08,6.79-1.84.14-3.67.29-5.51.43l-2.7.21h-16.22Zm-62.04-49.43c0,5.65.02,11.5-.03,17.29-.02,2.2.7,4.05,2.27,5.8,3.12,3.49,7.25,5.6,10.5,7.05,11.87,5.29,25.29,8.24,43.5,9.55,4.63.33,9.33.5,13.97.5,5.87,0,11.83-.27,17.71-.8,14.27-1.29,25.69-3.72,35.93-7.65,5.54-2.12,9.44-4.29,12.63-7.04,2.78-2.39,3.99-4.89,3.91-8.08-.13-5.14-.1-10.35-.07-15.39,0-1.78.02-3.55.02-5.33-4.3,3.28-9.41,5.91-15.91,8.22-11.75,4.17-24.59,6.53-40.39,7.45-4.92.29-9.78.43-14.45.43-10.39,0-20.46-.72-29.92-2.14-8.49-1.28-19.57-3.37-29.94-8.31-2.87-1.37-5.63-3.03-8.3-4.65-.47-.28-.95-.57-1.43-.86,0,1.32,0,2.64,0,3.96Zm.02-41.47c0,1.35.01,2.7.02,4.04.03,5.72.05,11.13-.08,16.64-.08,3.41,1.22,6.05,3.98,8.09,3.09,2.28,5.94,4.03,8.69,5.33,8.13,3.85,17.58,6.45,29.74,8.18,9.34,1.33,18.74,2,27.95,2h0c9.79,0,19.64-.76,29.28-2.26,11.27-1.75,20.22-4.26,28.15-7.89,3.02-1.38,6.89-3.38,9.94-6.55,1.87-1.94,2.7-3.98,2.63-6.42-.09-2.76-.05-5.56-.03-8.26.01-1.28.03-2.56.03-3.83,0-2.77,0-5.53,0-8.24v-.76c-.43.26-.85.52-1.27.78-2.53,1.56-5.15,3.17-7.88,4.48-6.74,3.23-17.09,7.23-37.41,9.49-7.45.83-15.21,1.25-23.05,1.25-5.15,0-10.47-.18-15.81-.54-11.99-.8-22.38-2.47-31.77-5.08-9.67-2.69-16.65-5.81-22.64-10.11-.16-.12-.32-.23-.48-.35Zm-.02-37.43c0,1.65.01,3.31.02,4.96.02,5.27.05,10.71-.03,16.08-.04,2.66.87,4.83,2.88,6.82,2.47,2.46,5.56,4.45,10.04,6.47,8.25,3.72,17.47,6.24,29.01,7.92,9.49,1.38,19.05,2.08,28.42,2.08,10.02,0,20.1-.8,29.97-2.38,10.77-1.72,19.37-4.14,27.06-7.59,3.59-1.61,7.68-3.73,10.79-7.23,1.47-1.66,2.16-3.26,2.17-5.03,0-5.54.01-11.09.02-16.63v-5.46c-7.97,5.92-17.06,8.88-24.25,10.82-10.93,2.94-23.1,4.61-37.21,5.11-3.27.11-6.47.17-9.54.17-16.42,0-30.88-1.65-44.19-5.04-10.54-2.68-18.49-6.17-25.03-10.96-.04-.03-.08-.06-.12-.09Zm70.12-37.02c-1.82.1-3.65.18-5.47.27-3.99.19-8.11.38-12.15.7-12.44.99-23.34,3.15-33.31,6.6-5.93,2.05-10.18,4.15-13.77,6.81-1.09.81-1.99,1.57-2.74,2.34-1.77,1.81-2.65,3.64-2.61,5.45.04,1.85,1.03,3.71,2.96,5.52,3.14,2.95,7.05,5.26,12.68,7.49,11.31,4.48,24.13,7.09,40.33,8.23,4.81.34,9.65.51,14.38.51,7.94,0,15.88-.48,23.58-1.43,12.2-1.51,21.92-3.82,30.59-7.29,3.88-1.55,8.84-3.82,12.8-7.59,1.87-1.78,2.84-3.61,2.87-5.43.03-1.8-.84-3.62-2.6-5.43-.78-.8-1.7-1.59-2.72-2.33-6.16-4.48-13.36-6.88-18.95-8.47-13.43-3.82-28.01-5.71-45.88-5.93Z"/>
        <path class="cls-2" d="m199.7,37.59c3.88.33,7.76.64,11.64.98,11.59,1.02,22.98,3.09,33.92,7.14,6.57,2.43,12.82,5.5,17.87,10.52,3.52,3.5,5.55,7.53,5.54,12.75-.11,36.26-.11,72.52,0,108.79.02,5.64-2.32,9.86-6.29,13.41-5.72,5.12-12.64,8.08-19.81,10.47-11.6,3.87-23.57,5.77-35.72,6.72-2.72.21-5.43.43-8.15.65h-16.07c-.94-.11-1.87-.26-2.81-.31-13.97-.71-27.74-2.63-41.07-7.05-7.23-2.4-14.19-5.4-19.93-10.59-3.86-3.49-6.18-7.63-6.16-13.14.1-36.26.11-72.52-.01-108.79-.02-5.42,2.08-9.57,5.79-13.15,5.11-4.95,11.37-7.98,17.95-10.4,11.97-4.4,24.45-6.36,37.1-7.36,2.71-.21,5.43-.44,8.14-.65h18.08m-8.78,53c7.93,0,15.86-.47,23.77-1.45,10.59-1.31,21.01-3.41,30.96-7.38,4.83-1.93,9.46-4.25,13.28-7.9,4.33-4.13,4.46-8.74.32-13.01-.89-.92-1.88-1.75-2.92-2.5-5.86-4.26-12.54-6.74-19.42-8.7-15.13-4.31-30.63-5.8-46.32-5.99-5.9.31-11.81.5-17.7.97-11.48.91-22.77,2.9-33.69,6.68-5.02,1.74-9.87,3.84-14.17,7.02-1.03.76-2.03,1.58-2.92,2.5-4.2,4.29-4.03,8.96.39,13.12,3.81,3.58,8.37,5.89,13.16,7.79,13.1,5.18,26.83,7.35,40.78,8.33,4.83.34,9.66.51,14.49.51m-.09,37.43c10.08,0,20.15-.79,30.21-2.4,9.44-1.51,18.68-3.77,27.44-7.7,4.19-1.88,8.18-4.1,11.29-7.6,1.52-1.71,2.54-3.67,2.55-6.02.01-7.76.01-15.51.02-23.27,0-.53,0-1.06,0-1.63-.29.04-.42.02-.49.08-7.52,6.23-16.39,9.58-25.66,12.08-12.07,3.25-24.41,4.62-36.87,5.06-3.17.11-6.33.17-9.49.17-14.76,0-29.4-1.32-43.82-4.99-8.74-2.23-17.14-5.31-24.51-10.72-.78-.57-1.55-1.17-2.47-1.86-.03.58-.06.91-.05,1.23,0,7.59.11,15.18,0,22.77-.05,3.21,1.13,5.73,3.32,7.91,3.01,3,6.65,5.05,10.48,6.77,9.38,4.23,19.3,6.56,29.42,8.03,9.54,1.39,19.09,2.1,28.64,2.1m0,37.4c9.84,0,19.68-.75,29.51-2.28,9.83-1.53,19.45-3.85,28.54-8.01,3.82-1.75,7.45-3.81,10.4-6.87,2.01-2.09,3.14-4.49,3.05-7.51-.12-4.01,0-8.03,0-12.05,0-3.95,0-7.9,0-11.66-3.82,2.24-7.42,4.7-11.31,6.56-11.66,5.58-24.2,7.94-36.92,9.36-7.61.85-15.24,1.24-22.88,1.24-5.24,0-10.47-.19-15.71-.54-10.64-.71-21.17-2.16-31.47-5.03-7.88-2.19-15.46-5.06-22.16-9.88-.92-.66-1.8-1.37-2.88-2.2,0,8.11.13,15.92-.05,23.71-.09,4.04,1.55,7.09,4.59,9.33,2.81,2.07,5.8,3.99,8.94,5.48,9.55,4.53,19.78,6.84,30.17,8.31,9.38,1.33,18.78,2.01,28.16,2.01m-.74,6.18c-9.93,0-19.83-.64-29.7-2.13-10.17-1.53-20.18-3.74-29.52-8.19-4.09-1.95-7.89-4.48-11.89-6.78,0,7.83.05,15.85-.03,23.88-.02,2.68.92,4.88,2.65,6.82,3.04,3.4,6.92,5.6,11.01,7.42,14,6.24,28.88,8.58,44.01,9.67,4.69.34,9.39.51,14.08.51,5.95,0,11.9-.27,17.84-.81,12.42-1.12,24.63-3.26,36.33-7.74,4.7-1.8,9.21-3.98,13.07-7.3,2.83-2.43,4.53-5.29,4.43-9.26-.18-7.25-.05-14.5-.05-21.75v-1.93c-.46.29-.66.39-.82.52-5.06,4.27-10.92,7.09-17.1,9.28-12.93,4.58-26.35,6.58-39.97,7.37-4.79.28-9.58.43-14.36.43m9.74-137.02h-18.45s-2.57.22-2.57.22c-1.86.15-3.71.3-5.57.45-15.12,1.19-27.16,3.59-37.9,7.54-5.69,2.09-13,5.24-19.01,11.06-4.53,4.39-6.72,9.4-6.7,15.33.11,34.29.12,69.87.01,108.77-.02,5.98,2.33,11.01,7.16,15.38,6.54,5.91,14.29,8.98,21.01,11.21,12.17,4.04,25.87,6.39,41.86,7.2.52.03,1.08.1,1.68.18.31.04.63.08.94.12l.17.02h16.48s2.59-.22,2.59-.22c1.85-.15,3.71-.3,5.56-.44,13.91-1.08,25.83-3.32,36.44-6.86,6.68-2.23,14.39-5.29,20.87-11.09,4.93-4.41,7.32-9.54,7.3-15.67-.11-35.14-.11-71.73,0-108.77.02-5.71-2.09-10.58-6.43-14.9-5.97-5.93-13.26-9.11-18.95-11.21-10.14-3.75-21.49-6.15-34.7-7.31-2.67-.24-5.38-.46-8-.68-1.22-.1-2.43-.2-3.65-.31h-.13Zm-8.91,53c-4.69,0-9.5-.17-14.28-.5-16.05-1.12-28.72-3.71-39.89-8.12-5.45-2.16-9.21-4.37-12.2-7.18-1.62-1.52-2.45-3.02-2.48-4.45-.03-1.39.71-2.86,2.18-4.37.69-.71,1.53-1.42,2.56-2.18,3.47-2.56,7.59-4.6,13.37-6.6,9.85-3.41,20.63-5.54,32.94-6.52,4.01-.32,8.12-.51,12.09-.69,1.78-.08,3.62-.17,5.43-.26,17.72.22,32.16,2.09,45.44,5.87,10.41,2.96,15.34,5.96,18.48,8.24.96.69,1.81,1.42,2.53,2.16,1.47,1.51,2.2,2.97,2.17,4.35-.03,1.4-.84,2.87-2.41,4.37-3.77,3.6-8.57,5.78-12.32,7.28-8.55,3.42-18.15,5.7-30.21,7.19-7.64.94-15.51,1.42-23.4,1.42h0Zm-.09,37.43c-9.3,0-18.78-.69-28.2-2.06-11.4-1.66-20.49-4.14-28.61-7.8-4.3-1.94-7.26-3.84-9.59-6.16-1.72-1.71-2.47-3.47-2.43-5.72.08-5.38.06-10.84.03-16.11,0-.68,0-1.36,0-2.05,6.25,4.11,13.72,7.19,23.25,9.62,13.43,3.42,28.01,5.09,44.56,5.09,3.08,0,6.31-.06,9.59-.17,14.22-.5,26.51-2.18,37.55-5.16,10.96-2.95,17.73-6.3,22.35-9.36v2.24c0,5.65,0,11.29-.02,16.94,0,1.38-.57,2.66-1.78,4.03-2.92,3.28-6.83,5.31-10.28,6.86-7.56,3.4-16.04,5.78-26.68,7.48-9.79,1.57-19.8,2.36-29.74,2.36h0Zm.4,12.22c7.89,0,15.7-.42,23.21-1.26,7.47-.83,13.58-1.84,19.22-3.18,6.91-1.64,13.02-3.75,18.67-6.45,2.43-1.17,4.75-2.55,7-3.93,0,2.08,0,4.19,0,6.3,0,1.27-.02,2.57-.03,3.82-.03,2.72-.06,5.53.03,8.32.06,2.03-.62,3.68-2.2,5.33-2.88,2.99-6.58,4.9-9.48,6.22-7.8,3.57-16.62,6.04-27.75,7.77-9.56,1.49-19.33,2.24-29.05,2.24-9.14,0-18.47-.67-27.74-1.98-12.01-1.7-21.32-4.26-29.31-8.05-2.67-1.27-5.43-2.96-8.45-5.18-2.37-1.74-3.44-3.92-3.37-6.84.13-5.54.1-10.95.08-16.68,0-.38,0-.76,0-1.14,5.71,3.74,12.36,6.56,21.2,9.02,9.49,2.64,19.98,4.32,32.08,5.13,5.38.36,10.73.54,15.91.54h0Zm-.52,62.56c-4.61,0-9.27-.17-13.86-.5-18.03-1.3-31.3-4.2-43-9.42-3.11-1.39-7.06-3.4-9.99-6.68-1.32-1.47-1.9-2.95-1.88-4.78.05-5.8.04-11.65.03-17.31,0-.43,0-.86,0-1.29,2.43,1.46,4.95,2.94,7.57,4.2,10.55,5.03,21.77,7.15,30.36,8.44,9.54,1.43,19.68,2.16,30.15,2.16,4.7,0,9.59-.15,14.54-.43,15.95-.92,28.92-3.32,40.81-7.53,5.47-1.94,9.99-4.12,13.89-6.71,0,.8,0,1.6-.01,2.39-.03,5.05-.05,10.28.08,15.44.07,2.74-.94,4.8-3.39,6.9-3.05,2.62-6.81,4.71-12.19,6.77-10.11,3.87-21.4,6.27-35.53,7.55-5.84.53-11.75.8-17.57.8h0Z"/>
      </g>
    </g>
    <g id="G1EEFV-2" data-name="G1EEFV">
      <path class="cls-6" d="m181.62,37.59c6.03,0,12.06,0,18.08,0,3.88.33,7.76.64,11.64.98,11.59,1.02,22.98,3.09,33.92,7.14,6.57,2.43,12.82,5.5,17.87,10.52,3.52,3.5,5.55,7.53,5.54,12.75-.11,36.26-.11,72.52,0,108.79.02,5.64-2.32,9.86-6.29,13.41-5.72,5.12-12.64,8.08-19.81,10.47-11.6,3.87-23.57,5.77-35.72,6.72-2.72.21-5.43.43-8.15.65h-16.07c-.94-.11-1.87-.26-2.81-.31-13.97-.71-27.74-2.63-41.07-7.05-7.23-2.4-14.19-5.4-19.93-10.59-3.86-3.49-6.18-7.63-6.16-13.14.1-36.26.11-72.52-.01-108.79-.02-5.42,2.08-9.57,5.79-13.15,5.11-4.95,11.37-7.98,17.95-10.4,11.97-4.4,24.45-6.36,37.1-7.36,2.71-.21,5.43-.44,8.14-.65Z"/>
    </g>
    <path class="cls-7" d="m190.58,43.67c-5.9.31-11.81.5-17.7.97-11.48.91-22.77,2.9-33.69,6.68-5.02,1.74-9.87,3.84-14.17,7.02-1.03.76-2.03,1.58-2.92,2.5-4.2,4.29-4.03,8.96.39,13.12,3.81,3.58,8.37,5.89,13.16,7.79,13.1,5.18,26.83,7.35,40.78,8.33,12.77.89,25.53.64,38.25-.93,10.59-1.31,21.01-3.41,30.96-7.38,4.83-1.93,9.46-4.25,13.28-7.9,4.33-4.13,4.46-8.74.32-13.01-.89-.92-1.88-1.75-2.92-2.5-5.86-4.26-12.54-6.74-19.42-8.7-15.13-4.31-30.63-5.8-46.32-5.99Z"/>
    <path class="cls-7" d="m118.96,154.49c0,7.83.05,15.85-.03,23.88-.02,2.68.92,4.88,2.65,6.82,3.04,3.4,6.92,5.6,11.01,7.42,14,6.24,28.88,8.58,44.01,9.67,10.64.77,21.29.66,31.92-.3,12.42-1.12,24.63-3.26,36.33-7.74,4.7-1.8,9.21-3.98,13.07-7.3,2.83-2.43,4.53-5.29,4.43-9.26-.18-7.25-.05-14.5-.05-21.75v-1.93c-.46.29-.66.39-.82.52-5.06,4.27-10.92,7.09-17.1,9.28-12.93,4.58-26.35,6.58-39.97,7.37-14.73.85-29.44.5-44.06-1.7-10.17-1.53-20.18-3.74-29.52-8.19-4.09-1.95-7.89-4.48-11.89-6.78Z"/>
    <path class="cls-7" d="m262.35,117.04c-3.82,2.24-7.42,4.7-11.31,6.56-11.66,5.58-24.2,7.94-36.92,9.35-12.83,1.43-25.71,1.57-38.59.71-10.64-.71-21.17-2.16-31.47-5.03-7.88-2.19-15.46-5.06-22.16-9.88-.92-.66-1.8-1.37-2.88-2.2,0,8.11.13,15.92-.05,23.71-.09,4.04,1.55,7.09,4.59,9.33,2.81,2.07,5.8,3.99,8.94,5.48,9.55,4.53,19.78,6.84,30.17,8.31,19.22,2.73,38.47,2.72,57.67-.27,9.83-1.53,19.45-3.85,28.54-8.01,3.82-1.75,7.45-3.81,10.4-6.87,2.01-2.09,3.14-4.49,3.05-7.51-.12-4.01,0-8.03,0-12.05,0-3.95,0-7.9,0-11.66Z"/>
    <path class="cls-7" d="m262.34,79.39c-.29.04-.42.02-.49.08-7.52,6.23-16.39,9.58-25.66,12.08-12.07,3.25-24.41,4.62-36.87,5.06-17.97.63-35.8-.36-53.31-4.82-8.74-2.23-17.14-5.31-24.51-10.72-.78-.57-1.55-1.17-2.47-1.86-.03.58-.06.91-.05,1.23,0,7.59.11,15.18,0,22.77-.05,3.21,1.13,5.73,3.32,7.91,3.01,3,6.65,5.05,10.48,6.77,9.38,4.23,19.3,6.56,29.42,8.03,19.62,2.85,39.25,2.83,58.85-.3,9.44-1.51,18.68-3.77,27.44-7.7,4.19-1.88,8.18-4.1,11.29-7.6,1.52-1.71,2.54-3.67,2.55-6.02.01-7.76.01-15.51.02-23.27,0-.53,0-1.06,0-1.63Z"/>
  </g>
</svg>