<?xml version="1.0" encoding="UTF-8"?>
<svg id="Layer_2" data-name="Layer 2" xmlns="http://www.w3.org/2000/svg" xmlns:xlink="http://www.w3.org/1999/xlink" viewBox="0 0 406.57 368.74">
  <defs>
    <style>
      .cls-1, .cls-2 {
        fill: none;
      }

      .cls-1, .cls-3, .cls-4, .cls-5 {
        stroke-miterlimit: 10;
      }

      .cls-1, .cls-6, .cls-4 {
        stroke: #fff;
      }

      .cls-1, .cls-6, .cls-4, .cls-5 {
        stroke-width: 3px;
      }

      .cls-7 {
        clip-path: url(#clippath);
      }

      .cls-2, .cls-8 {
        stroke-width: 0px;
      }

      .cls-3 {
        stroke-width: 2px;
      }

      .cls-3, .cls-5 {
        stroke: #000;
      }

      .cls-3, .cls-8 {
        fill: #fff;
      }

      .cls-6 {
        fill: #0b1a30;
      }

      .cls-4, .cls-5 {
        fill: #f7d852;
      }
    </style>
    <clipPath id="clippath">
      <rect class="cls-2" x="116.35" y="28.58" width="185.2" height="219.07"/>
    </clipPath>
  </defs>
  <g id="Layer_1-2" data-name="Layer 1">
    <path class="cls-6" d="m322.26,341.38c-4.48,7.6-10.76,13.84-18.06,18.27l-.08-.02-1,.58c-8.07,4.66-17.32,7.15-26.89,7.03h0l-148.99-1.56c-18.83-.25-36.28-10.58-45.52-27h0S8.32,208.66,8.32,208.66c-9.24-16.42-9.07-36.7.42-52.89,0,0,0,0,0,0L84.4,27.42h0C93.95,11.19,111.57,1.26,130.39,1.5h0l148.97,1.66h0c18.79.19,36.24,10.52,45.48,26.94h0s73.4,130.02,73.4,130.02c9.24,16.42,9.07,36.7-.42,52.9,0,0,0,0,0,0l-75.56,128.36Z"/>
    <g class="cls-7">
      <g>
        <path class="cls-1" d="m187.58,127.13v39.01h-33.29c-7.69,0-13.91,6.23-13.91,13.93v37.5"/>
        <path class="cls-1" d="m182.87,166.12h24.78v55.93"/>
        <path class="cls-1" d="m198.08,166.12h58.23c7.72,0,14.01,6.27,14.01,14.03v41.9"/>
        <path class="cls-4" d="m163.68,192.38h-36.48c-4.33,0-7.85,3.52-7.85,7.86v36.54c0,4.34,3.51,7.86,7.85,7.86h36.48c4.33,0,7.85-3.52,7.85-7.86v-36.54c0-4.34-3.51-7.86-7.85-7.86Z"/>
        <path class="cls-4" d="m227.19,192.38h-36.48c-4.33,0-7.85,3.52-7.85,7.86v36.54c0,4.34,3.51,7.86,7.85,7.86h36.48c4.33,0,7.85-3.52,7.85-7.86v-36.54c0-4.34-3.51-7.86-7.85-7.86Z"/>
        <path class="cls-4" d="m290.7,192.38h-36.48c-4.33,0-7.85,3.52-7.85,7.86v36.54c0,4.34,3.51,7.86,7.85,7.86h36.48c4.33,0,7.85-3.52,7.85-7.86v-36.54c0-4.34-3.51-7.86-7.85-7.86Z"/>
        <path class="cls-5" d="m249.97,31.6h-122.76c-4.33,0-7.85,3.52-7.85,7.86v90.8c0,4.34,3.51,7.86,7.85,7.86h122.76c4.33,0,7.85-3.52,7.85-7.86V39.46c0-4.34-3.51-7.86-7.85-7.86Z"/>
        <path class="cls-3" d="m244.21,41.65h-111.24c-1.97,0-3.57,1.6-3.57,3.58v35.05c0,1.98,1.6,3.58,3.57,3.58h111.24c1.97,0,3.57-1.6,3.57-3.58v-35.05c0-1.98-1.6-3.58-3.57-3.58Z"/>
        <path class="cls-3" d="m158.49,91.89h-24.08c-2.77,0-5.02,2.25-5.02,5.02v24.12c0,2.77,2.25,5.02,5.02,5.02h24.08c2.77,0,5.02-2.25,5.02-5.02v-24.12c0-2.77-2.24-5.02-5.02-5.02Z"/>
        <path class="cls-3" d="m200.62,91.89h-24.08c-2.77,0-5.02,2.25-5.02,5.02v24.12c0,2.77,2.25,5.02,5.02,5.02h24.08c2.77,0,5.02-2.25,5.02-5.02v-24.12c0-2.77-2.24-5.02-5.02-5.02Z"/>
        <path class="cls-3" d="m242.76,91.89h-24.08c-2.77,0-5.02,2.25-5.02,5.02v24.12c0,2.77,2.25,5.02,5.02,5.02h24.08c2.77,0,5.02-2.25,5.02-5.02v-24.12c0-2.77-2.24-5.02-5.02-5.02Z"/>
      </g>
    </g>
    <path class="cls-8" d="m156.16,290.12c-6.63,0-10.57-3.8-10.57-10.67v-13.07h5.4v12.87c0,4.43,1.93,6.27,5.2,6.27s5.2-1.83,5.2-6.27v-12.87h5.33v13.07c0,6.87-3.93,10.67-10.57,10.67Zm15.91-.4v-23.34h5.4v23.34h-5.4Zm16.51,3.33l11-31.4h4.63l-11,31.4h-4.63Zm36.73-2.93c-6.63,0-10.57-3.8-10.57-10.67v-13.07h5.4v12.87c0,4.43,1.93,6.27,5.2,6.27s5.2-1.83,5.2-6.27v-12.87h5.33v13.07c0,6.87-3.93,10.67-10.57,10.67Zm36.52-.4h-6.23l-5.63-8.1-5.53,8.1h-6.2l8.63-11.87-8.2-11.47h6.13l5.37,7.57,5.27-7.57h5.83l-8.13,11.27,8.7,12.07Zm-123.96,35.19v-23.34h10.6c7.63,0,12.87,4.6,12.87,11.67s-5.23,11.67-12.87,11.67h-10.6Zm5.4-4.43h4.93c4.63,0,7.67-2.77,7.67-7.23s-3.03-7.23-7.67-7.23h-4.93v14.47Zm27.51.1h12.7v4.33h-18.07v-23.34h17.64v4.33h-12.27v5.07h10.83v4.2h-10.83v5.4Zm24.67,4.73c-3.7,0-7.43-1.1-9.5-2.7l1.83-4.07c1.97,1.43,4.9,2.43,7.7,2.43,3.2,0,4.5-1.07,4.5-2.5,0-4.37-13.57-1.37-13.57-10.03,0-3.97,3.2-7.27,9.83-7.27,2.93,0,5.93.7,8.1,2.07l-1.67,4.1c-2.17-1.23-4.4-1.83-6.47-1.83-3.2,0-4.43,1.2-4.43,2.67,0,4.3,13.57,1.33,13.57,9.9,0,3.9-3.23,7.23-9.9,7.23Zm13.59-.4v-23.34h5.4v23.34h-5.4Zm26.71-5.2v-6.83h4.93v9.47c-2.57,1.93-6.1,2.97-9.43,2.97-7.33,0-12.73-5.03-12.73-12.07s5.4-12.07,12.83-12.07c4.1,0,7.5,1.4,9.77,4.03l-3.47,3.2c-1.7-1.8-3.67-2.63-6.03-2.63-4.53,0-7.63,3.03-7.63,7.47s3.1,7.47,7.57,7.47c1.47,0,2.83-.27,4.2-1Zm26.02-18.14h5.33v23.34h-4.43l-11.63-14.17v14.17h-5.33v-23.34h4.47l11.6,14.17v-14.17Z"/>
    <path class="cls-1" d="m255.22,27.04H121.95c-4.7,0-8.52,3.82-8.52,8.53v98.58c0,4.71,3.81,8.53,8.52,8.53h133.27c4.7,0,8.52-3.82,8.52-8.53V35.57c0-4.71-3.81-8.53-8.52-8.53Z"/>
  </g>
</svg>