<?xml version="1.0" encoding="UTF-8"?>
<svg id="Layer_2" data-name="Layer 2" xmlns="http://www.w3.org/2000/svg" xmlns:xlink="http://www.w3.org/1999/xlink" viewBox="0 0 220.9 200.48">
  <defs>
    <style>
      .cls-1 {
        clip-path: url(#clippath);
      }

      .cls-2 {
        fill: none;
      }

      .cls-2, .cls-3, .cls-4, .cls-5, .cls-6 {
        stroke-width: 0px;
      }

      .cls-7 {
        mask: url(#mask);
      }

      .cls-8 {
        fill: #0b1a30;
        stroke: #fff;
        stroke-width: 3px;
      }

      .cls-9, .cls-10 {
        stroke: #000;
        stroke-miterlimit: 10;
      }

      .cls-9, .cls-3, .cls-5 {
        fill: #fff;
      }

      .cls-10 {
        fill: #f7d852;
      }

      .cls-3, .cls-6 {
        fill-rule: evenodd;
      }
    </style>
    <mask id="mask" x="41.66" y="32.12" width="137" height="86" maskUnits="userSpaceOnUse">
      <g id="path-2-outside-1_67_695" data-name="path-2-outside-1 67 695">
        <rect class="cls-5" x="41.66" y="32.12" width="137" height="86"/>
        <path class="cls-6" d="m164.22,35.12H54.53c-2.25,0-4.08,1.83-4.08,4.08v67.56h-5.78v3.39c0,2.59,2.11,4.7,4.7,4.7h120.61c2.59,0,4.7-2.11,4.7-4.7v-3.39h-6.35V39.21c0-2.25-1.83-4.08-4.08-4.08h0Z"/>
      </g>
    </mask>
    <clipPath id="clippath">
      <rect class="cls-2" x="44.66" y="35.12" width="130" height="79.73"/>
    </clipPath>
  </defs>
  <g id="Layer_1-2" data-name="Layer 1">
    <path class="cls-8" d="m174.69,185.02c-2.42,4.1-5.81,7.47-9.75,9.86h-.04s-.54.3-.54.3c-4.36,2.52-9.35,3.86-14.52,3.8h0l-80.45-.84c-10.17-.13-19.59-5.71-24.58-14.58h0S5.18,113.35,5.18,113.35c-4.99-8.87-4.9-19.82.23-28.56,0,0,0,0,0,0L46.26,15.5h0c5.16-8.76,14.67-14.13,24.83-13.99h0l80.43.89h0c10.14.1,19.57,5.68,24.56,14.54h0s39.63,70.21,39.63,70.21c4.99,8.87,4.9,19.82-.23,28.56,0,0,0,0,0,0l-40.8,69.31Z"/>
    <path class="cls-3" d="m164.22,35.12H54.53c-2.25,0-4.08,1.83-4.08,4.08v67.56h-5.78v3.39c0,2.59,2.11,4.7,4.7,4.7h120.61c2.59,0,4.7-2.11,4.7-4.7v-3.39h-6.35V39.21c0-2.25-1.83-4.08-4.08-4.08h0Z"/>
    <g class="cls-7">
      <path class="cls-5" d="m50.44,106.77v3h3v-3h-3Zm-5.78,0v-3h-3v3h3Zm130.01,0h3v-3h-3v3Zm-6.35,0h-3v3h3v-3ZM54.53,38.12h109.7v-6H54.53v6Zm-1.08,1.08c0-.6.49-1.08,1.08-1.08v-6c-3.91,0-7.08,3.17-7.08,7.08h6Zm0,67.56V39.21h-6v67.56h6Zm-8.78,3h5.78v-6h-5.78v6Zm3,.39v-3.39h-6v3.39h6Zm1.7,1.7c-.93,0-1.7-.76-1.7-1.7h-6c0,4.25,3.45,7.7,7.7,7.7v-6Zm120.61,0H49.36v6h120.61v-6Zm1.7-1.7c0,.93-.76,1.7-1.7,1.7v6c4.24,0,7.7-3.45,7.7-7.7h-6Zm0-3.39v3.39h6v-3.39h-6Zm-3.35,3h6.35v-6h-6.35v6Zm-3-70.56v67.56h6V39.21h-6Zm-1.08-1.08c.6,0,1.08.49,1.08,1.08h6c0-3.91-3.18-7.08-7.08-7.08v6Zm0,0h0v-6h0v6Z"/>
    </g>
    <g class="cls-1">
      <g>
        <path class="cls-5" d="m49.36,114.28c-2.27,0-4.12-1.85-4.12-4.12v-2.81h5.78V39.21c0-1.94,1.57-3.51,3.51-3.51h109.7c1.94,0,3.51,1.57,3.51,3.51v68.14h6.36v2.81c0,2.27-1.85,4.12-4.12,4.12H49.36Z"/>
        <path class="cls-4" d="m164.22,36.28c1.62,0,2.93,1.31,2.93,2.93v68.72h6.36v2.24c0,1.95-1.58,3.54-3.54,3.54H49.36c-1.95,0-3.54-1.58-3.54-3.54v-2.24h5.78V39.21c0-1.62,1.31-2.93,2.93-2.93h109.7Zm0-1.16H54.53c-2.25,0-4.08,1.83-4.08,4.08v67.56h-5.78v3.39c0,2.59,2.11,4.7,4.7,4.7h120.61c2.59,0,4.7-2.11,4.7-4.7v-3.39h-6.35V39.21c0-2.25-1.83-4.08-4.08-4.08h0Z"/>
        <path class="cls-10" d="m54.53,36.28h109.7c1.62,0,2.93,1.31,2.93,2.93v68.72H51.6V39.21c0-1.62,1.31-2.93,2.93-2.93Z"/>
        <path class="cls-10" d="m169.97,113.7H49.36c-1.95,0-3.54-1.58-3.54-3.54v-2.24h127.69v2.24c0,1.95-1.58,3.54-3.54,3.54Z"/>
        <path class="cls-4" d="m162.05,41.48H56.7c-.58,0-1.06.47-1.06,1.06v60.86c0,.58.47,1.06,1.06,1.06h105.35c.58,0,1.06-.47,1.06-1.06v-60.86c0-.58-.47-1.06-1.06-1.06Z"/>
        <path class="cls-9" d="m159.11,49.57h-68.27c-.93,0-1.69.76-1.69,1.69v39.96c0,.93.76,1.69,1.69,1.69h68.27c.93,0,1.69-.76,1.69-1.69v-39.96c0-.93-.76-1.69-1.69-1.69Z"/>
        <path class="cls-9" d="m89.15,49.57h70.47c.65,0,1.18.53,1.18,1.18v2.87h-71.64v-4.04Z"/>
        <path class="cls-9" d="m157.04,55.92h-62.98c-.8,0-1.44.65-1.44,1.44s.65,1.44,1.44,1.44h62.98c.8,0,1.44-.65,1.44-1.44s-.65-1.44-1.44-1.44Z"/>
        <path class="cls-9" d="m157.04,61.12h-62.98c-.8,0-1.44.65-1.44,1.44s.65,1.44,1.44,1.44h62.98c.8,0,1.44-.65,1.44-1.44s-.65-1.44-1.44-1.44Z"/>
        <path class="cls-9" d="m157.04,66.32h-62.98c-.8,0-1.44.65-1.44,1.44s.65,1.44,1.44,1.44h62.98c.8,0,1.44-.65,1.44-1.44s-.65-1.44-1.44-1.44Z"/>
        <path class="cls-9" d="m157.04,71.52h-62.98c-.8,0-1.44.65-1.44,1.44s.65,1.44,1.44,1.44h62.98c.8,0,1.44-.65,1.44-1.44s-.65-1.44-1.44-1.44Z"/>
        <path class="cls-9" d="m157.04,76.72h-62.98c-.8,0-1.44.65-1.44,1.44s.65,1.44,1.44,1.44h62.98c.8,0,1.44-.65,1.44-1.44s-.65-1.44-1.44-1.44Z"/>
        <path class="cls-9" d="m157.04,81.92h-62.98c-.8,0-1.44.65-1.44,1.44s.65,1.44,1.44,1.44h62.98c.8,0,1.44-.65,1.44-1.44s-.65-1.44-1.44-1.44Z"/>
        <path class="cls-9" d="m157.04,87.12h-62.98c-.8,0-1.44.65-1.44,1.45s.65,1.44,1.44,1.44h62.98c.8,0,1.44-.65,1.44-1.44s-.65-1.45-1.44-1.45Z"/>
        <path class="cls-9" d="m126.75,43.79H58.48c-.93,0-1.69.76-1.69,1.69v41.69c0,.93.76,1.69,1.69,1.69h68.27c.93,0,1.69-.76,1.69-1.69v-41.69c0-.93-.75-1.69-1.69-1.69Z"/>
        <path class="cls-9" d="m57.98,43.79h69.29c.65,0,1.18.53,1.18,1.18v2.87H56.8v-2.87c0-.65.53-1.18,1.18-1.18Z"/>
        <path class="cls-9" d="m77.54,50.15h-17.22c-.67,0-1.21.54-1.21,1.21v12.88c0,.67.54,1.21,1.21,1.21h17.22c.67,0,1.21-.54,1.21-1.21v-12.88c0-.67-.54-1.21-1.21-1.21Z"/>
        <path class="cls-9" d="m100.65,50.15h-17.22c-.67,0-1.21.54-1.21,1.21v12.88c0,.67.54,1.21,1.21,1.21h17.22c.67,0,1.21-.54,1.21-1.21v-12.88c0-.67-.54-1.21-1.21-1.21Z"/>
        <path class="cls-9" d="m77.54,70.37h-17.22c-.67,0-1.21.54-1.21,1.21v12.88c0,.67.54,1.21,1.21,1.21h17.22c.67,0,1.21-.54,1.21-1.21v-12.88c0-.67-.54-1.21-1.21-1.21Z"/>
        <path class="cls-9" d="m100.65,70.37h-17.22c-.67,0-1.21.54-1.21,1.21v12.88c0,.67.54,1.21,1.21,1.21h17.22c.67,0,1.21-.54,1.21-1.21v-12.88c0-.67-.54-1.21-1.21-1.21Z"/>
        <path class="cls-9" d="m123.76,50.15h-17.22c-.67,0-1.21.54-1.21,1.21v32.82c0,.67.54,1.21,1.21,1.21h17.22c.67,0,1.21-.54,1.21-1.21v-32.82c0-.67-.54-1.21-1.21-1.21Z"/>
        <path class="cls-9" d="m63.37,98.68h91.43c.76,0,1.38.62,1.38,1.38v4.4H62v-4.4c0-.76.62-1.38,1.38-1.38Z"/>
        <path class="cls-9" d="m70.95,99.4c0-1.68-1.36-3.03-3.03-3.03s-3.03,1.36-3.03,3.03,1.36,3.03,3.03,3.03,3.03-1.36,3.03-3.03Z"/>
        <path class="cls-9" d="m79.23,96.37h-6.07v6.07h6.07v-6.07Z"/>
        <path class="cls-9" d="m87.5,99.4c0-1.68-1.36-3.03-3.03-3.03s-3.03,1.36-3.03,3.03,1.36,3.03,3.03,3.03,3.03-1.36,3.03-3.03Z"/>
        <path class="cls-9" d="m95.77,99.4c0-1.68-1.36-3.03-3.03-3.03s-3.03,1.36-3.03,3.03,1.36,3.03,3.03,3.03,3.03-1.36,3.03-3.03Z"/>
        <path class="cls-9" d="m104.04,99.4c0-1.68-1.36-3.03-3.03-3.03s-3.03,1.36-3.03,3.03,1.36,3.03,3.03,3.03,3.03-1.36,3.03-3.03Z"/>
        <path class="cls-9" d="m110.34,96.37h-2.13c-1.09,0-1.97.88-1.97,1.97v2.13c0,1.09.88,1.97,1.97,1.97h2.13c1.09,0,1.97-.88,1.97-1.97v-2.13c0-1.09-.88-1.97-1.97-1.97Z"/>
        <path class="cls-9" d="m120.59,99.4c0-1.68-1.36-3.03-3.03-3.03s-3.03,1.36-3.03,3.03,1.36,3.03,3.03,3.03,3.03-1.36,3.03-3.03Z"/>
        <path class="cls-9" d="m128.86,99.4c0-1.68-1.36-3.03-3.03-3.03s-3.03,1.36-3.03,3.03,1.36,3.03,3.03,3.03,3.03-1.36,3.03-3.03Z"/>
        <path class="cls-9" d="m136.25,96.37h-4.29c-.49,0-.89.4-.89.89v4.29c0,.49.4.89.89.89h4.29c.49,0,.89-.4.89-.89v-4.29c0-.49-.4-.89-.89-.89Z"/>
        <path class="cls-9" d="m145.4,99.4c0-1.68-1.36-3.03-3.03-3.03s-3.03,1.36-3.03,3.03,1.36,3.03,3.03,3.03,3.03-1.36,3.03-3.03Z"/>
        <path class="cls-9" d="m152.41,96.37h-3.52c-.7,0-1.27.57-1.27,1.27v3.52c0,.7.57,1.27,1.27,1.27h3.52c.7,0,1.27-.57,1.27-1.27v-3.52c0-.7-.57-1.27-1.27-1.27Z"/>
      </g>
    </g>
    <path class="cls-5" d="m73.34,150.57c1.4.45,2.3,1.53,2.3,3.11,0,2.18-1.73,3.44-5.04,3.44h-6.52v-12.6h6.16c3.15,0,4.77,1.31,4.77,3.28,0,1.26-.65,2.23-1.67,2.77Zm-3.46-3.85h-2.9v2.97h2.9c1.42,0,2.2-.5,2.2-1.49s-.77-1.48-2.2-1.48Zm.5,8.21c1.51,0,2.32-.47,2.32-1.55s-.81-1.57-2.32-1.57h-3.4v3.11h3.4Zm18.62,2.2h-3.13l-2.43-3.51h-2.68v3.51h-2.92v-12.6h5.45c3.37,0,5.47,1.75,5.47,4.57,0,1.89-.95,3.28-2.59,3.98l2.83,4.05Zm-3.19-8.03c0-1.39-.9-2.2-2.68-2.2h-2.38v4.39h2.38c1.78,0,2.68-.83,2.68-2.2Zm14.68,8.03l-1.12-2.7h-5.85l-1.12,2.7h-2.99l5.62-12.6h2.88l5.63,12.6h-3.06Zm-6.03-4.91h4l-2-4.82-2,4.82Zm19.07-7.69h2.88v12.6h-2.39l-6.28-7.65v7.65h-2.88v-12.6h2.41l6.26,7.65v-7.65Zm5.86,12.6v-12.6h5.72c4.12,0,6.95,2.48,6.95,6.3s-2.83,6.3-6.95,6.3h-5.72Zm2.92-2.39h2.66c2.5,0,4.14-1.49,4.14-3.91s-1.64-3.91-4.14-3.91h-2.66v7.81Zm14.85.05h6.86v2.34h-9.76v-12.6h9.52v2.34h-6.62v2.74h5.85v2.27h-5.85v2.92Zm9.18,2.34v-12.6h5.72c4.12,0,6.95,2.48,6.95,6.3s-2.83,6.3-6.95,6.3h-5.72Zm2.92-2.39h2.66c2.5,0,4.14-1.49,4.14-3.91s-1.64-3.91-4.14-3.91h-2.66v7.81Zm-69.65,8.79h2.79l-4.12,12.6h-3.13l-2.77-8.53-2.86,8.53h-3.11l-4.14-12.6h3.02l2.84,8.86,2.97-8.86h2.7l2.88,8.93,2.93-8.93Zm7.32,10.26h6.86v2.34h-9.76v-12.6h9.52v2.34h-6.62v2.74h5.85v2.27h-5.85v2.92Zm18.43-4.21c1.4.45,2.3,1.53,2.3,3.11,0,2.18-1.73,3.44-5.04,3.44h-6.52v-12.6h6.16c3.15,0,4.77,1.31,4.77,3.28,0,1.26-.65,2.23-1.67,2.77Zm-3.46-3.85h-2.9v2.97h2.9c1.42,0,2.2-.5,2.2-1.49s-.77-1.48-2.2-1.48Zm.5,8.21c1.51,0,2.32-.47,2.32-1.55s-.81-1.57-2.32-1.57h-3.4v3.11h3.4Zm11.6,2.41c-2,0-4.01-.59-5.13-1.46l.99-2.2c1.06.77,2.65,1.31,4.16,1.31,1.73,0,2.43-.58,2.43-1.35,0-2.36-7.33-.74-7.33-5.42,0-2.14,1.73-3.92,5.31-3.92,1.58,0,3.2.38,4.37,1.12l-.9,2.21c-1.17-.67-2.38-.99-3.49-.99-1.73,0-2.39.65-2.39,1.44,0,2.32,7.33.72,7.33,5.35,0,2.11-1.75,3.91-5.35,3.91Zm7.34-.22v-12.6h2.92v12.6h-2.92Zm8.52,0v-10.22h-4.03v-2.38h10.98v2.38h-4.03v10.22h-2.92Zm11.41-2.34h6.86v2.34h-9.76v-12.6h9.52v2.34h-6.62v2.74h5.85v2.27h-5.85v2.92Zm13.32,2.56c-2,0-4.01-.59-5.13-1.46l.99-2.2c1.06.77,2.65,1.31,4.16,1.31,1.73,0,2.43-.58,2.43-1.35,0-2.36-7.33-.74-7.33-5.42,0-2.14,1.73-3.92,5.31-3.92,1.58,0,3.2.38,4.37,1.12l-.9,2.21c-1.17-.67-2.38-.99-3.49-.99-1.73,0-2.39.65-2.39,1.44,0,2.32,7.33.72,7.33,5.35,0,2.11-1.75,3.91-5.35,3.91Z"/>
  </g>
</svg>